<svg width="15" height="13" viewBox="0 0 15 13" fill="none" xmlns="http://www.w3.org/2000/svg">
<path d="M2.11964 5.91801C1.85801 5.91875 1.60193 5.99354 1.38103 6.13374C1.16013 6.27394 0.98344 6.47382 0.871398 6.71025C0.759356 6.94668 0.716542 7.21 0.74791 7.46974C0.779278 7.72949 0.883546 7.97505 1.04865 8.17801L4.56829 12.4896C4.69378 12.6454 4.85464 12.769 5.03751 12.8502C5.22038 12.9314 5.41997 12.9677 5.61972 12.9563C6.04692 12.9333 6.43262 12.7048 6.67852 12.329L13.9897 0.554395C13.9909 0.552442 13.9922 0.550489 13.9934 0.548565C14.062 0.443235 14.0398 0.2345 13.8982 0.10337C13.8593 0.0673602 13.8134 0.0396946 13.7634 0.0220771C13.7135 0.0044595 13.6604 -0.00273702 13.6075 0.000930869C13.5546 0.00459876 13.503 0.0190534 13.456 0.0434044C13.4089 0.0677554 13.3673 0.101487 13.3337 0.142523C13.3311 0.145749 13.3284 0.148927 13.3256 0.152056L5.95221 8.48292C5.92415 8.51462 5.89007 8.54043 5.85196 8.55885C5.81384 8.57727 5.77244 8.58794 5.73017 8.59023C5.6879 8.59251 5.64559 8.58638 5.60571 8.57217C5.56583 8.55797 5.52917 8.53599 5.49786 8.50749L3.05076 6.28062C2.79661 6.04764 2.46442 5.91828 2.11964 5.91801Z" fill="#E9791E"/>
</svg>
