<svg width="20" height="20" viewBox="0 0 20 20" fill="none" xmlns="http://www.w3.org/2000/svg">
<path d="M8.89375 7.15625C8.31563 7.15625 7.8375 7.575 7.74063 8.12188L3.86563 9.63438H2.89688C1.64375 9.63438 0.625 10.6531 0.625 11.9062V11.9375C0.625 12.925 1.25938 13.7656 2.14063 14.0781L2.52813 16.5969C2.625 17.2313 3.15938 17.6906 3.79375 17.6906C4.16875 17.6906 4.525 17.525 4.76875 17.2344C5.01563 16.9406 5.11875 16.5531 5.05313 16.1719L4.77188 14.5625L7.7375 15.7188C7.8375 16.2656 8.31563 16.6844 8.89063 16.6844C9.54063 16.6844 10.0656 16.1562 10.0656 15.5094V8.33438C10.0656 7.6875 9.5375 7.15938 8.89063 7.15938L8.89375 7.15625ZM1.25 11.9344V11.9031C1.25 10.9969 1.9875 10.2562 2.89688 10.2562H3.60938V13.5781H2.89688C1.99063 13.5781 1.25 12.8406 1.25 11.9313V11.9344ZM4.29063 16.8281C4.16563 16.975 3.98438 17.0625 3.79375 17.0625C3.46875 17.0625 3.19688 16.825 3.14688 16.4969L2.79375 14.2C2.82812 14.2 2.8625 14.2062 2.89688 14.2062H3.86563L4.09375 14.2969L4.44063 16.2781C4.475 16.475 4.42188 16.6781 4.29375 16.8313L4.29063 16.8281ZM7.71563 15.0375L4.23125 13.6781V10.1562L7.71563 8.79688V15.0344V15.0375ZM9.44375 15.5062C9.44375 15.8094 9.19688 16.0563 8.89375 16.0563C8.59063 16.0563 8.34375 15.8094 8.34375 15.5062V8.33125C8.34375 8.02813 8.59063 7.78125 8.89375 7.78125C9.19688 7.78125 9.44375 8.02813 9.44375 8.33125V15.5062Z" fill="white" stroke="white" stroke-width="0.5"/>
<path d="M17.5687 2.3125H8.27183C7.27495 2.3125 6.46558 3.125 6.46558 4.12187V7.1125C6.46558 7.28438 6.6062 7.425 6.77808 7.425C6.94995 7.425 7.09058 7.28438 7.09058 7.1125V4.12187C7.09058 3.46875 7.62183 2.9375 8.27183 2.9375H17.5687C18.2218 2.9375 18.75 3.46875 18.75 4.12187V9.64375C18.75 10.2969 18.2187 10.8281 17.5687 10.8281H14.5875C14.4968 10.8281 14.4093 10.8688 14.35 10.9375L12.9187 12.5937L11.4875 10.9375C11.375 10.8063 11.1781 10.7938 11.0468 10.9063C10.9156 11.0188 10.9031 11.2156 11.0156 11.3469L12.6843 13.275C12.7437 13.3437 12.8312 13.3844 12.9218 13.3844C13.0125 13.3844 13.1 13.3437 13.1593 13.275L14.7343 11.4531H17.5718C18.5687 11.4531 19.3781 10.6406 19.3781 9.64375V4.12187C19.3781 3.125 18.5687 2.3125 17.5718 2.3125H17.5687Z" fill="white" stroke="white" stroke-width="0.5"/>
<path d="M16.003 5.41565H9.8374C9.66553 5.41565 9.5249 5.55627 9.5249 5.72815C9.5249 5.90002 9.66553 6.04065 9.8374 6.04065H16.003C16.1749 6.04065 16.3155 5.90002 16.3155 5.72815C16.3155 5.55627 16.1749 5.41565 16.003 5.41565Z" fill="white" stroke="white" stroke-width="0.5"/>
<path d="M16.003 7.72498H11.2749C11.103 7.72498 10.9624 7.8656 10.9624 8.03748C10.9624 8.20935 11.103 8.34998 11.2749 8.34998H16.003C16.1749 8.34998 16.3155 8.20935 16.3155 8.03748C16.3155 7.8656 16.1749 7.72498 16.003 7.72498Z" fill="white" stroke="white" stroke-width="0.5"/>
</svg>
