<svg width="18" height="12" viewBox="0 0 18 12" fill="none" xmlns="http://www.w3.org/2000/svg">
<g id="Group">
<g id="Group_2">
<path id="Vector" d="M16.437 0H1.30183C0.583995 0 0 0.583995 0 1.30183V10.6982C0 11.416 0.583995 12 1.30183 12H16.437C17.1548 12 17.7388 11.416 17.7388 10.6982V1.30183C17.7388 0.583995 17.1548 0 16.437 0ZM5.45663 7.81336H7.21509C7.42609 7.81336 7.59707 7.98438 7.59707 8.19534C7.59707 8.4063 7.42605 8.57731 7.21509 8.57731H5.45663C5.24563 8.57731 5.07465 8.4063 5.07465 8.19534C5.07465 7.98438 5.24567 7.81336 5.45663 7.81336ZM1.65193 3.98195C1.65193 3.77095 1.82294 3.59998 2.0339 3.59998H4.32221C4.5332 3.59998 4.70418 3.77099 4.70418 3.98195V5.63641C4.70418 5.8474 4.53317 6.01838 4.32221 6.01838H2.0339C1.82291 6.01838 1.65193 5.84737 1.65193 5.63641V3.98195ZM2.0339 7.81336H3.79237C4.00336 7.81336 4.17434 7.98438 4.17434 8.19534C4.17434 8.4063 4.00333 8.57731 3.79237 8.57731H2.0339C1.82291 8.57731 1.65193 8.4063 1.65193 8.19534C1.65193 7.98438 1.82298 7.81336 2.0339 7.81336ZM8.31161 10.2759H2.0339C1.82291 10.2759 1.65193 10.1049 1.65193 9.89393C1.65193 9.68297 1.82294 9.51196 2.0339 9.51196H8.31161C8.5226 9.51196 8.69358 9.68297 8.69358 9.89393C8.69358 10.1049 8.5226 10.2759 8.31161 10.2759ZM10.6378 8.57731H8.87935C8.66836 8.57731 8.49738 8.4063 8.49738 8.19534C8.49738 7.98438 8.66839 7.81336 8.87935 7.81336H10.6378C10.8488 7.81336 11.0198 7.98438 11.0198 8.19534C11.0198 8.4063 10.8488 8.57731 10.6378 8.57731ZM14.0605 8.57731H12.3021C12.0911 8.57731 11.9201 8.4063 11.9201 8.19534C11.9201 7.98438 12.0911 7.81336 12.3021 7.81336H14.0605C14.2715 7.81336 14.4425 7.98438 14.4425 8.19534C14.4425 8.4063 14.2715 8.57731 14.0605 8.57731ZM15.7049 2.99734H11.5575C11.3465 2.99734 11.1755 2.82633 11.1755 2.61537C11.1755 2.40441 11.3465 2.23339 11.5575 2.23339H15.7049C15.9159 2.23339 16.0869 2.40441 16.0869 2.61537C16.0869 2.82633 15.9158 2.99734 15.7049 2.99734Z" fill="#0E395E"/>
</g>
</g>
</svg>
