<svg width="12" height="12" viewBox="0 0 12 12" fill="none" xmlns="http://www.w3.org/2000/svg">
<g clip-path="url(#clip0_1_7633)">
<path d="M5.99992 6.53886C5.83147 6.53886 5.69482 6.40221 5.69482 6.23376V1.93218C5.69482 1.76373 5.83147 1.62708 5.99992 1.62708C6.16837 1.62708 6.30502 1.76373 6.30502 1.93218V6.23376C6.30502 6.40221 6.16837 6.53886 5.99992 6.53886Z" fill="white" stroke="white" stroke-width="0.5"/>
<path d="M6 12C5.89792 12 5.80275 11.949 5.74616 11.8641L4.2096 9.55931H1.11866C0.50175 9.55931 0 9.0576 0 8.44065V1.11866C0 0.501712 0.501712 0 1.11866 0H10.8813C11.4983 0 12 0.501712 12 1.11866V8.44069C12 9.0576 11.4983 9.55935 10.8813 9.55935H7.79036L6.2538 11.8642C6.19718 11.949 6.10208 12 6 12ZM1.11866 0.610162C0.8382 0.610162 0.6102 0.8382 0.6102 1.11863V8.44069C0.6102 8.72115 0.838237 8.94915 1.11866 8.94915H4.37288C4.47495 8.94915 4.57013 9.00019 4.62671 9.08501L6 11.1449L7.37329 9.08501C7.42991 9.00019 7.52505 8.94915 7.62713 8.94915H10.8814C11.1618 8.94915 11.3898 8.72111 11.3898 8.44069V1.11866C11.3898 0.8382 11.1618 0.6102 10.8814 0.6102L1.11866 0.610162Z" fill="white" stroke="white" stroke-width="0.5"/>
<path d="M6.00007 7.98111C6.16866 7.98111 6.30532 7.84444 6.30532 7.67586C6.30532 7.50727 6.16866 7.37061 6.00007 7.37061C5.83149 7.37061 5.69482 7.50727 5.69482 7.67586C5.69482 7.84444 5.83149 7.98111 6.00007 7.98111Z" fill="white" stroke="white" stroke-width="0.5"/>
</g>
<defs>
<clipPath id="clip0_1_7633">
<rect width="12" height="12" fill="white"/>
</clipPath>
</defs>
</svg>
