<svg width="17" height="19" viewBox="0 0 17 19" fill="none" xmlns="http://www.w3.org/2000/svg">
<path fill-rule="evenodd" clip-rule="evenodd" d="M7.01967 0C4.64352 0 2.71729 1.92625 2.71729 4.30238C2.71729 6.67852 4.64352 8.60475 7.01967 8.60475C9.39584 8.60475 11.322 6.67852 11.322 4.30238C11.322 1.92625 9.39584 0 7.01967 0ZM4.07593 4.30238C4.07593 2.6766 5.39388 1.35865 7.01967 1.35865C8.64542 1.35865 9.9634 2.6766 9.9634 4.30238C9.9634 5.92817 8.64542 7.24612 7.01967 7.24612C5.39388 7.24612 4.07593 5.92817 4.07593 4.30238Z" fill="white"/>
<path d="M4.30239 9.96338C1.92624 9.96338 0 11.8897 0 14.2658C0 16.6419 1.92624 18.5681 4.30239 18.5681H9.73697C10.1121 18.5681 10.4163 18.264 10.4163 17.8888C10.4163 17.5137 10.1121 17.2095 9.73697 17.2095H4.30239C2.6766 17.2095 1.35865 15.8915 1.35865 14.2658C1.35865 12.64 2.6766 11.322 4.30239 11.322H9.73697C10.1121 11.322 10.4163 11.0179 10.4163 10.6427C10.4163 10.2675 10.1121 9.96338 9.73697 9.96338H4.30239Z" fill="white"/>
<path d="M15.9815 13.0446C16.2468 12.7793 16.2468 12.3492 15.9815 12.0839C15.7162 11.8186 15.2862 11.8186 15.0209 12.0839L13.5798 13.5249L12.1387 12.0839C11.8734 11.8186 11.4433 11.8186 11.178 12.0839C10.9127 12.3492 10.9127 12.7793 11.178 13.0446L12.619 14.4857L11.178 15.9267C10.9127 16.192 10.9127 16.6221 11.178 16.8874C11.4433 17.1527 11.8734 17.1527 12.1387 16.8874L13.5798 15.4463L15.0209 16.8874C15.2862 17.1527 15.7162 17.1527 15.9815 16.8874C16.2468 16.6221 16.2468 16.192 15.9815 15.9267L14.5404 14.4857L15.9815 13.0446Z" fill="white"/>
</svg>
