<svg width="17" height="14" viewBox="0 0 17 14" fill="none" xmlns="http://www.w3.org/2000/svg">
<g clip-path="url(#clip0_450_702)">
<path d="M15.053 2.05298H11.632V1.36898C11.6315 1.00632 11.4872 0.658676 11.2307 0.402241C10.9743 0.145806 10.6267 0.0015056 10.264 0.000976562H6.158C5.79552 0.00150486 5.44802 0.145667 5.19161 0.401886C4.93521 0.658105 4.79079 1.0055 4.79 1.36798V2.05198H1.368C1.00517 2.0525 0.657373 2.19694 0.400909 2.45359C0.144446 2.71025 0.000264451 3.05815 0 3.42098L0 5.47398C0.000529036 5.83663 0.144827 6.18428 0.401262 6.44072C0.657697 6.69715 1.00535 6.84145 1.368 6.84198H6.842V6.49998C6.842 6.40927 6.87803 6.32228 6.94217 6.25814C7.00631 6.19401 7.0933 6.15798 7.184 6.15798H9.237C9.3277 6.15798 9.41469 6.19401 9.47883 6.25814C9.54297 6.32228 9.579 6.40927 9.579 6.49998V6.84198H15.053C15.4157 6.84145 15.7633 6.69715 16.0197 6.44072C16.2762 6.18428 16.4205 5.83663 16.421 5.47398V3.42098C16.4205 3.05832 16.2762 2.71067 16.0197 2.45424C15.7633 2.1978 15.4157 2.05351 15.053 2.05298ZM10.263 2.05298H6.158V1.36898H10.263V2.05298Z" fill="#0E395E"/>
<path d="M16.232 7.21203C16.1749 7.18381 16.1111 7.17203 16.0477 7.17803C15.9843 7.18404 15.9238 7.20759 15.873 7.24603C15.638 7.42722 15.3498 7.52595 15.053 7.527H9.57902V8.553C9.57902 8.64371 9.54299 8.73072 9.47885 8.79486C9.41472 8.85899 9.32773 8.89501 9.23702 8.89501H7.18402C7.09332 8.89501 7.00633 8.85899 6.94219 8.79486C6.87806 8.73072 6.84202 8.64371 6.84202 8.553V7.527H1.36802C1.07125 7.52595 0.783074 7.42722 0.548024 7.24603C0.497262 7.20743 0.436719 7.1838 0.373233 7.17779C0.309747 7.17178 0.245846 7.18364 0.188746 7.21203C0.131646 7.24043 0.0836226 7.28422 0.0500978 7.33847C0.016573 7.39271 -0.00111742 7.45524 -0.000975718 7.51901V12.319C-0.000446682 12.6817 0.143851 13.0293 0.400287 13.2858C0.656722 13.5422 1.00437 13.6865 1.36702 13.687H15.053C15.4157 13.6865 15.7633 13.5422 16.0198 13.2858C16.2762 13.0293 16.4205 12.6817 16.421 12.319V7.51901C16.4212 7.45531 16.4037 7.39283 16.3703 7.33859C16.3369 7.28435 16.289 7.24053 16.232 7.21203Z" fill="#0E395E"/>
</g>
<defs>
<clipPath id="clip0_450_702">
<rect width="16.421" height="13.685" fill="white"/>
</clipPath>
</defs>
</svg>
