<svg width="20" height="20" viewBox="0 0 20 20" fill="none" xmlns="http://www.w3.org/2000/svg">
<path d="M17.5004 4.74869H13.7507V3.99896C13.7501 3.60146 13.592 3.22041 13.3109 2.93933C13.0298 2.65826 12.6487 2.50009 12.2512 2.49951H7.7507C7.35339 2.50009 6.9725 2.65811 6.69145 2.93894C6.41041 3.21978 6.25212 3.60056 6.25125 3.99787V4.74759H2.50043C2.10274 4.74817 1.72152 4.90649 1.44041 5.1878C1.1593 5.46912 1.00127 5.85045 1.00098 6.24814V8.49841C1.00156 8.89592 1.15972 9.27697 1.4408 9.55805C1.72187 9.83912 2.10293 9.99729 2.50043 9.99787H8.50043V9.623C8.50043 9.52358 8.53992 9.42823 8.61022 9.35793C8.68052 9.28763 8.77587 9.24814 8.87529 9.24814H11.1256C11.225 9.24814 11.3203 9.28763 11.3906 9.35793C11.4609 9.42823 11.5004 9.52358 11.5004 9.623V9.99787H17.5004C17.8979 9.99729 18.279 9.83912 18.5601 9.55805C18.8411 9.27697 18.9993 8.89592 18.9999 8.49841V6.24814C18.9993 5.85064 18.8411 5.46959 18.5601 5.18851C18.279 4.90743 17.8979 4.74927 17.5004 4.74869ZM12.2502 4.74869H7.7507V3.99896H12.2502V4.74869Z" fill="#0E395E"/>
<path d="M18.7928 10.4035C18.7303 10.3725 18.6603 10.3596 18.5908 10.3662C18.5213 10.3728 18.455 10.3986 18.3993 10.4407C18.1417 10.6393 17.8258 10.7475 17.5005 10.7487H11.5005V11.8733C11.5005 11.9727 11.4611 12.0681 11.3908 12.1384C11.3205 12.2087 11.2251 12.2482 11.1257 12.2482H8.87541C8.77599 12.2482 8.68064 12.2087 8.61034 12.1384C8.54004 12.0681 8.50055 11.9727 8.50055 11.8733V10.7487H2.50055C2.17525 10.7475 1.85939 10.6393 1.60175 10.4407C1.54611 10.3984 1.47975 10.3725 1.41017 10.3659C1.34058 10.3593 1.27054 10.3723 1.20795 10.4035C1.14537 10.4346 1.09273 10.4826 1.05598 10.542C1.01924 10.6015 0.999846 10.67 1 10.7399V16.0012C1.00058 16.3987 1.15874 16.7797 1.43982 17.0608C1.7209 17.3419 2.10195 17.5 2.49945 17.5006H17.5005C17.898 17.5 18.2791 17.3419 18.5602 17.0608C18.8413 16.7797 18.9994 16.3987 19 16.0012V10.7399C19.0002 10.6701 18.981 10.6016 18.9444 10.5422C18.9078 10.4827 18.8553 10.4347 18.7928 10.4035Z" fill="#0E395E"/>
</svg>
