<svg width="18" height="12" viewBox="0 0 18 12" fill="none" xmlns="http://www.w3.org/2000/svg">
<path d="M8.963 11.361C14.257 11.361 17.919 7.078 17.919 5.743C17.919 4.408 14.251 0.125 8.963 0.125C3.735 0.125 0 4.402 0 5.743C0 7.084 3.734 11.361 8.963 11.361ZM8.963 9.424C7.98481 9.42401 7.04642 9.03666 6.35305 8.34667C5.65968 7.65667 5.26776 6.72018 5.263 5.742C5.25978 5.25605 5.35342 4.77434 5.53844 4.32498C5.72347 3.87563 5.99618 3.46765 6.34064 3.12486C6.6851 2.78208 7.09441 2.51136 7.54466 2.32853C7.99491 2.1457 8.47708 2.05441 8.963 2.06C9.4481 2.05656 9.92906 2.14935 10.3781 2.33301C10.8271 2.51667 11.2352 2.78754 11.5788 3.12996C11.9225 3.47239 12.1948 3.87955 12.38 4.3279C12.5652 4.77626 12.6597 5.25689 12.658 5.742C12.6535 6.71949 12.2624 7.65548 11.5701 8.34555C10.8778 9.03562 9.9405 9.42269 8.963 9.424ZM8.963 7.071C9.31652 7.0705 9.65561 6.93072 9.9068 6.68197C10.158 6.43321 10.3011 6.0955 10.305 5.742C10.3021 5.38762 10.1596 5.04868 9.90832 4.79874C9.65707 4.54881 9.31739 4.40804 8.963 4.407C8.60731 4.40646 8.26583 4.54663 8.01311 4.79692C7.76038 5.04722 7.6169 5.38732 7.614 5.743C7.61848 6.09755 7.76267 6.43601 8.01526 6.68485C8.26785 6.93369 8.60843 7.07182 8.963 7.071Z" fill="#0F2D52" fill-opacity="0.45"/>
</svg>
