<svg width="18" height="15" viewBox="0 0 18 15" fill="none" xmlns="http://www.w3.org/2000/svg">
<path d="M8.96202 12.654C14.256 12.654 17.918 8.37097 17.918 7.03597C17.918 5.70097 14.25 1.41797 8.96202 1.41797C3.73402 1.41797 -0.000976562 5.69497 -0.000976562 7.03597C-0.000976562 8.37697 3.73302 12.654 8.96202 12.654ZM8.96202 10.717C7.98383 10.717 7.04544 10.3296 6.35207 9.63964C5.6587 8.94964 5.26678 8.01315 5.26202 7.03497C5.2588 6.54902 5.35244 6.06731 5.53747 5.61795C5.72249 5.1686 5.9952 4.76061 6.33966 4.41783C6.68412 4.07505 7.09343 3.80433 7.54368 3.6215C7.99393 3.43866 8.4761 3.34738 8.96202 3.35297C9.44712 3.34953 9.92809 3.44232 10.3771 3.62598C10.8261 3.80964 11.2342 4.08051 11.5778 4.42293C11.9215 4.76535 12.1938 5.17252 12.379 5.62087C12.5643 6.06922 12.6588 6.54986 12.657 7.03497C12.6525 8.01245 12.2614 8.94845 11.5691 9.63852C10.8768 10.3286 9.93952 10.7157 8.96202 10.717ZM8.96202 8.36397C9.31554 8.36346 9.65463 8.22369 9.90582 7.97494C10.157 7.72618 10.3001 7.38847 10.304 7.03497C10.3011 6.68059 10.1586 6.34165 9.90734 6.09171C9.65609 5.84177 9.31641 5.70101 8.96202 5.69997C8.60633 5.69943 8.26486 5.8396 8.01213 6.08989C7.7594 6.34019 7.61593 6.68028 7.61302 7.03597C7.6175 7.39052 7.7617 7.72898 8.01429 7.97782C8.26687 8.22666 8.60745 8.36479 8.96202 8.36397Z" fill="#0F2D52" fill-opacity="0.45"/>
<path d="M14.9561 1L1.95605 14" stroke="#92A0B1" stroke-linecap="round"/>
</svg>
