<svg width="384" height="287" viewBox="0 0 384 287" fill="none" xmlns="http://www.w3.org/2000/svg">
<path d="M384 251.443H0V251.635H384V251.443Z" fill="#EBEBEB"/>
<path d="M345.523 263.8H320.087V263.992H345.523V263.8Z" fill="#EBEBEB"/>
<path d="M254.377 265.889H247.703V266.081H254.377V265.889Z" fill="#EBEBEB"/>
<path d="M319.319 256.673H304.581V256.865H319.319V256.673Z" fill="#EBEBEB"/>
<path d="M73.459 257.964H40.2891V258.156H73.459V257.964Z" fill="#EBEBEB"/>
<path d="M85.1637 257.964H80.3022V258.156H85.1637V257.964Z" fill="#EBEBEB"/>
<path d="M172.915 261.204H100.969V261.396H172.915V261.204Z" fill="#EBEBEB"/>
<path d="M182.016 217.19H33.7228C32.5611 217.188 31.4477 216.725 30.6269 215.903C29.8062 215.081 29.3452 213.967 29.3452 212.805V4.34688C29.3553 3.19183 29.8208 2.08741 30.6404 1.27351C31.4601 0.459616 32.5677 0.00197867 33.7228 0H182.016C183.179 0 184.294 0.462019 185.117 1.28442C185.939 2.10682 186.401 3.22223 186.401 4.38528V212.805C186.401 213.968 185.939 215.084 185.117 215.906C184.294 216.728 183.179 217.19 182.016 217.19ZM33.7228 0.153601C32.612 0.155635 31.5474 0.598322 30.7627 1.38449C29.978 2.17067 29.5372 3.23608 29.5372 4.34688V212.805C29.5372 213.916 29.978 214.981 30.7627 215.767C31.5474 216.554 32.612 216.996 33.7228 216.998H182.016C183.127 216.996 184.193 216.554 184.979 215.768C185.765 214.982 186.207 213.917 186.209 212.805V4.34688C186.207 3.23538 185.765 2.16998 184.979 1.38403C184.193 0.598073 183.127 0.155631 182.016 0.153601H33.7228Z" fill="#EBEBEB"/>
<path d="M348.142 217.19H199.841C198.679 217.188 197.565 216.726 196.743 215.904C195.921 215.082 195.458 213.968 195.456 212.805V4.34688C195.468 3.19113 195.935 2.08671 196.756 1.27303C197.577 0.459347 198.686 0.00195709 199.841 0H348.142C349.296 0.00399705 350.402 0.462527 351.22 1.27621C352.038 2.08989 352.502 3.19315 352.512 4.34688V212.805C352.512 213.965 352.052 215.079 351.233 215.901C350.414 216.723 349.303 217.186 348.142 217.19ZM199.841 0.153601C198.73 0.155631 197.664 0.598073 196.878 1.38403C196.093 2.16998 195.65 3.23538 195.648 4.34688V212.805C195.65 213.917 196.093 214.982 196.878 215.768C197.664 216.554 198.73 216.996 199.841 216.998H348.142C349.254 216.996 350.319 216.554 351.105 215.768C351.891 214.982 352.333 213.917 352.335 212.805V4.34688C352.333 3.23538 351.891 2.16998 351.105 1.38403C350.319 0.598073 349.254 0.155631 348.142 0.153601H199.841Z" fill="#EBEBEB"/>
<path d="M171.026 98.8646H50.8032V251.098H171.026V98.8646Z" fill="#F0F0F0"/>
<path d="M166.771 104.417H55.0503V136.973H166.771V104.417Z" fill="#E0E0E0"/>
<path d="M61.394 109.686H55.0503V136.965H61.394V109.686Z" fill="#EBEBEB"/>
<path d="M92.0834 109.686H85.7397V136.965H92.0834V109.686Z" fill="#EBEBEB"/>
<path d="M126.92 108.993L120.668 110.071L125.302 136.954L131.554 135.876L126.92 108.993Z" fill="#EBEBEB"/>
<path d="M69.2582 113.28H62.9146V136.965H69.2582V113.28Z" fill="#EBEBEB"/>
<path d="M83.8427 113.28H77.499V136.965H83.8427V113.28Z" fill="#EBEBEB"/>
<path d="M120.661 113.28H114.317V136.965H120.661V113.28Z" fill="#EBEBEB"/>
<path d="M100.417 112.464L94.2246 113.84L99.3631 136.961L105.556 135.585L100.417 112.464Z" fill="#EBEBEB"/>
<path d="M74.7495 108.326H71.5776V136.965H74.7495V108.326Z" fill="#EBEBEB"/>
<path d="M112.497 108.326H109.325V136.965H112.497V108.326Z" fill="#EBEBEB"/>
<path d="M55.05 174.674H166.771V142.118H55.05V174.674Z" fill="#E0E0E0"/>
<path d="M160.427 174.674H166.771V147.395H160.427V174.674Z" fill="#EBEBEB"/>
<path d="M129.738 174.674H136.082V147.395H129.738V174.674Z" fill="#EBEBEB"/>
<path d="M90.269 173.6L96.5205 174.678L101.154 147.795L94.9028 146.717L90.269 173.6Z" fill="#EBEBEB"/>
<path d="M152.556 174.674H158.899V150.989H152.556V174.674Z" fill="#EBEBEB"/>
<path d="M137.979 174.674H144.323V150.989H137.979V174.674Z" fill="#EBEBEB"/>
<path d="M101.153 174.674H107.497V150.989H101.153V174.674Z" fill="#EBEBEB"/>
<path d="M116.275 173.292L122.467 174.668L127.606 151.547L121.413 150.171L116.275 173.292Z" fill="#EBEBEB"/>
<path d="M147.072 174.674H150.244V146.035H147.072V174.674Z" fill="#EBEBEB"/>
<path d="M109.325 174.674H112.497V146.035H109.325V174.674Z" fill="#EBEBEB"/>
<path d="M61.394 147.395H55.0503V174.674H61.394V147.395Z" fill="#EBEBEB"/>
<path d="M69.2582 150.989H62.9146V174.674H69.2582V150.989Z" fill="#EBEBEB"/>
<path d="M83.8427 150.989H77.499V174.674H83.8427V150.989Z" fill="#EBEBEB"/>
<path d="M74.7495 146.035H71.5776V174.674H74.7495V146.035Z" fill="#EBEBEB"/>
<path d="M166.771 179.827H55.0503V212.383H166.771V179.827Z" fill="#E0E0E0"/>
<path d="M125.514 185.096H119.17V212.375H125.514V185.096Z" fill="#EBEBEB"/>
<path d="M160.357 184.408L154.105 185.486L158.739 212.369L164.991 211.291L160.357 184.408Z" fill="#EBEBEB"/>
<path d="M102.689 188.698H96.3457V212.383H102.689V188.698Z" fill="#EBEBEB"/>
<path d="M117.281 188.698H110.938V212.383H117.281V188.698Z" fill="#EBEBEB"/>
<path d="M154.099 188.698H147.755V212.383H154.099V188.698Z" fill="#EBEBEB"/>
<path d="M133.862 187.877L127.669 189.254L132.807 212.375L139 210.998L133.862 187.877Z" fill="#EBEBEB"/>
<path d="M108.181 183.744H105.009V212.383H108.181V183.744Z" fill="#EBEBEB"/>
<path d="M145.928 183.744H142.756V212.383H145.928V183.744Z" fill="#EBEBEB"/>
<path d="M87.3443 184.415L81.0928 185.493L85.7266 212.376L91.9781 211.298L87.3443 184.415Z" fill="#EBEBEB"/>
<path d="M81.0854 188.698H74.7417V212.383H81.0854V188.698Z" fill="#EBEBEB"/>
<path d="M60.8435 187.882L54.6509 189.258L59.7894 212.379L65.982 211.003L60.8435 187.882Z" fill="#EBEBEB"/>
<path d="M72.914 183.744H69.7422V212.383H72.914V183.744Z" fill="#EBEBEB"/>
<path d="M234.455 160.228H302.208C303.958 160.228 305.691 160.573 307.307 161.244C308.924 161.915 310.392 162.898 311.627 164.137C312.863 165.377 313.842 166.848 314.508 168.466C315.175 170.084 315.515 171.818 315.51 173.568V226.468H221.184V173.568C221.176 170.039 222.569 166.652 225.058 164.15C227.546 161.649 230.927 160.238 234.455 160.228Z" fill="#E6E6E6"/>
<path d="M201.124 199.442H213.243C214.285 199.438 215.317 199.64 216.281 200.036C217.245 200.432 218.121 201.015 218.859 201.751C219.597 202.486 220.182 203.361 220.581 204.323C220.98 205.286 221.185 206.318 221.184 207.36V251.136H193.213V207.36C193.212 206.321 193.416 205.291 193.813 204.331C194.21 203.37 194.793 202.497 195.528 201.762C196.262 201.026 197.135 200.443 198.095 200.045C199.055 199.647 200.084 199.442 201.124 199.442Z" fill="#E0E0E0"/>
<path d="M201.124 199.442H201.377C202.417 199.442 203.446 199.647 204.406 200.045C205.366 200.443 206.239 201.026 206.973 201.762C207.708 202.497 208.291 203.37 208.688 204.33C209.085 205.291 209.289 206.321 209.288 207.36V251.136H193.213V207.36C193.212 206.321 193.416 205.291 193.813 204.33C194.21 203.37 194.793 202.497 195.528 201.762C196.262 201.026 197.135 200.443 198.095 200.045C199.055 199.647 200.084 199.442 201.124 199.442Z" fill="#EBEBEB"/>
<path d="M305.641 230.999H212.667V251.098H305.641V230.999Z" fill="#E6E6E6"/>
<path d="M302.2 212.621H212.536C208.095 212.621 204.495 216.221 204.495 220.662V225.661C204.495 230.102 208.095 233.702 212.536 233.702H302.2C306.641 233.702 310.241 230.102 310.241 225.661V220.662C310.241 216.221 306.641 212.621 302.2 212.621Z" fill="#F5F5F5"/>
<path d="M302.046 212.621H290.934C286.493 212.621 282.893 216.221 282.893 220.662V225.661C282.893 230.102 286.493 233.702 290.934 233.702H302.046C306.487 233.702 310.087 230.102 310.087 225.661V220.662C310.087 216.221 306.487 212.621 302.046 212.621Z" fill="#E0E0E0"/>
<path d="M303.252 199.442H315.379C316.418 199.442 317.447 199.647 318.407 200.045C319.367 200.443 320.239 201.027 320.973 201.762C321.707 202.497 322.288 203.37 322.685 204.331C323.081 205.292 323.284 206.321 323.282 207.36V251.136H295.35V207.36C295.348 206.321 295.551 205.292 295.947 204.331C296.343 203.37 296.925 202.497 297.659 201.762C298.393 201.027 299.265 200.443 300.225 200.045C301.184 199.647 302.213 199.442 303.252 199.442Z" fill="#E0E0E0"/>
<path d="M303.252 199.442H303.513C304.553 199.442 305.581 199.647 306.541 200.045C307.501 200.443 308.373 201.027 309.107 201.762C309.841 202.497 310.423 203.37 310.819 204.331C311.215 205.292 311.418 206.321 311.416 207.36V251.136H295.35V207.36C295.348 206.321 295.551 205.292 295.947 204.331C296.343 203.37 296.925 202.497 297.659 201.762C298.393 201.027 299.265 200.443 300.225 200.045C301.184 199.647 302.213 199.442 303.252 199.442Z" fill="#F0F0F0"/>
<path d="M115.396 80.3586C125.256 78.7581 131.951 69.4677 130.351 59.6079C128.75 49.7481 119.46 43.0526 109.6 44.6531C99.7405 46.2536 93.045 55.544 94.6455 65.4038C96.2459 75.2635 105.536 81.959 115.396 80.3586Z" fill="#E0E0E0"/>
<path d="M114.963 77.6902C123.349 76.329 129.044 68.4272 127.683 60.0411C126.322 51.6551 118.42 45.9604 110.034 47.3216C101.648 48.6829 95.9531 56.5846 97.3144 64.9707C98.6756 73.3567 106.577 79.0515 114.963 77.6902Z" fill="#F0F0F0"/>
<path d="M111.767 73.0676V62.3156L104.647 66.3476" fill="#F0F0F0"/>
<path d="M111.767 73.8355C111.563 73.8355 111.368 73.7546 111.224 73.6106C111.08 73.4665 110.999 73.2712 110.999 73.0675V63.6288L105.024 67.0157C104.847 67.1152 104.637 67.1403 104.441 67.0856C104.246 67.0309 104.08 66.9008 103.98 66.7238C103.879 66.5475 103.853 66.3387 103.906 66.143C103.96 65.9473 104.088 65.7807 104.264 65.6794L111.391 61.6474C111.508 61.5817 111.639 61.5478 111.773 61.5489C111.907 61.55 112.039 61.5861 112.154 61.6536C112.27 61.7212 112.366 61.8178 112.433 61.9339C112.5 62.05 112.535 62.1816 112.535 62.3155V73.0675C112.535 73.2712 112.454 73.4665 112.31 73.6106C112.166 73.7546 111.971 73.8355 111.767 73.8355Z" fill="#E0E0E0"/>
<path d="M329.172 39.6902H213.396V142.426H329.172V39.6902Z" fill="#E6E6E6"/>
<path d="M326.124 42.5088H216.292V139.668H326.124V42.5088Z" fill="#F0F0F0"/>
<path d="M242.066 42.5088L216.292 139.453V93.9034L229.901 42.5088H242.066Z" fill="white"/>
<path d="M251.198 42.5088L225.193 139.668H221.046L247.05 42.5088H251.198Z" fill="white"/>
<path d="M326.123 103.818V119.34L320.863 139.668H316.715L326.123 103.818Z" fill="white"/>
<path d="M254.6 40.7654H252.749V141.842H254.6V40.7654Z" fill="#E6E6E6"/>
<path d="M290.458 40.7654H288.607V141.842H290.458V40.7654Z" fill="#E6E6E6"/>
<path d="M192 286.126C274.239 286.126 340.907 282.234 340.907 277.432C340.907 272.631 274.239 268.739 192 268.739C109.76 268.739 43.0923 272.631 43.0923 277.432C43.0923 282.234 109.76 286.126 192 286.126Z" fill="#F5F5F5"/>
<path d="M308.659 258.225C308.659 258.225 312.307 250.268 308.137 242.419C303.967 234.57 302.761 232.727 305.418 231.114C308.075 229.501 309.297 237.396 309.297 237.396C310.61 233.831 310.745 229.939 309.681 226.291C307.837 220.616 306.678 211.369 309.197 210.378C311.716 209.387 309.681 221.898 311.877 226.184C312.991 223.184 313.711 220.053 314.02 216.868C314.319 212.306 313.851 205.025 315.84 203.159C317.829 201.293 319.112 202.583 317.153 212.644C315.976 218.658 315.326 224.764 315.21 230.891C315.21 230.891 319.534 217.69 322.445 217.306C325.355 216.922 325.348 221.192 322.859 224.901C320.371 228.611 315.571 235.254 314.788 238.671C314.788 238.671 319.542 228.733 323.812 231.759C328.082 234.785 320.095 240.799 316.531 242.972C312.968 245.146 310.495 258.724 310.495 258.724L308.659 258.225Z" fill="#0E395E"/>
<path opacity="0.2" d="M308.659 258.225C308.659 258.225 312.307 250.268 308.137 242.419C303.967 234.57 302.761 232.727 305.418 231.114C308.075 229.501 309.297 237.396 309.297 237.396C310.61 233.831 310.745 229.939 309.681 226.291C307.837 220.616 306.678 211.369 309.197 210.378C311.716 209.387 309.681 221.898 311.877 226.184C312.991 223.184 313.711 220.053 314.02 216.868C314.319 212.306 313.851 205.025 315.84 203.159C317.829 201.293 319.112 202.583 317.153 212.644C315.976 218.658 315.326 224.764 315.21 230.891C315.21 230.891 319.534 217.69 322.445 217.306C325.355 216.922 325.348 221.192 322.859 224.901C320.371 228.611 315.571 235.254 314.788 238.671C314.788 238.671 319.542 228.733 323.812 231.759C328.082 234.785 320.095 240.799 316.531 242.972C312.968 245.146 310.495 258.724 310.495 258.724L308.659 258.225Z" fill="black"/>
<path d="M311.539 261.489C311.539 261.489 307.983 253.478 312.245 245.691C316.508 237.903 317.737 236.076 315.102 234.432C312.468 232.788 311.147 240.653 311.147 240.653C309.875 237.074 309.786 233.181 310.894 229.548C312.806 223.895 314.081 214.664 311.57 213.635C309.058 212.605 310.948 225.155 308.705 229.402C307.626 226.387 306.942 223.245 306.67 220.055C306.424 215.493 306.985 208.22 305.011 206.323C303.037 204.426 301.747 205.701 303.59 215.793C304.694 221.819 305.27 227.93 305.31 234.056C305.31 234.056 301.14 220.792 298.245 220.37C295.349 219.948 295.296 224.21 297.738 227.958C300.18 231.706 304.896 238.418 305.664 241.843C305.664 241.843 301.056 231.859 296.724 234.824C292.393 237.788 300.334 243.917 303.867 246.144C307.399 248.371 309.719 261.988 309.719 261.988L311.539 261.489Z" fill="#0E395E"/>
<path d="M295.15 255.775H324.495L322.122 276.779H297.523L295.15 255.775Z" fill="#263238"/>
<path d="M186.371 273.408V276.165C186.371 276.247 186.355 276.328 186.323 276.403C186.292 276.479 186.246 276.547 186.188 276.605C186.131 276.663 186.062 276.709 185.987 276.74C185.911 276.771 185.83 276.787 185.749 276.787H107.858C107.194 276.787 106.539 276.624 105.953 276.313C105.366 276.001 104.864 275.551 104.492 275C104.12 274.45 103.889 273.817 103.818 273.156C103.747 272.496 103.84 271.828 104.087 271.212L128.771 210.079L168.661 210.348L167.301 218.281L158.5 269.622C158.434 270.011 158.454 270.41 158.558 270.791C158.662 271.171 158.847 271.525 159.102 271.827C159.356 272.129 159.673 272.371 160.031 272.538C160.388 272.705 160.778 272.792 161.173 272.794H185.749C185.83 272.793 185.911 272.808 185.986 272.838C186.061 272.869 186.13 272.914 186.188 272.971C186.246 273.028 186.292 273.096 186.323 273.171C186.355 273.246 186.371 273.327 186.371 273.408Z" fill="#263238"/>
<path opacity="0.5" d="M186.371 273.408V276.165C186.371 276.247 186.355 276.328 186.323 276.403C186.292 276.479 186.246 276.547 186.188 276.605C186.131 276.663 186.062 276.709 185.987 276.74C185.911 276.771 185.83 276.787 185.749 276.787H107.858C107.194 276.787 106.539 276.624 105.953 276.313C105.366 276.001 104.864 275.551 104.492 275C104.12 274.45 103.889 273.817 103.818 273.156C103.747 272.496 103.84 271.828 104.087 271.212L119.393 233.311L128.771 210.079L168.661 210.348L167.301 218.281L163.461 240.607L158.492 269.622C158.426 270.011 158.446 270.41 158.55 270.791C158.654 271.171 158.84 271.525 159.094 271.827C159.348 272.129 159.665 272.371 160.023 272.538C160.381 272.705 160.77 272.792 161.165 272.794H185.741C185.823 272.792 185.904 272.806 185.981 272.836C186.057 272.866 186.127 272.911 186.185 272.968C186.244 273.025 186.291 273.094 186.322 273.169C186.354 273.245 186.371 273.326 186.371 273.408Z" fill="white"/>
<path opacity="0.2" d="M161.173 272.786H110.485C110.193 272.785 109.905 272.712 109.648 272.574C109.391 272.436 109.171 272.237 109.009 271.995C108.846 271.752 108.746 271.473 108.717 271.182C108.688 270.892 108.73 270.598 108.841 270.328L130.483 218.273H167.294L158.492 269.614C158.426 270.004 158.446 270.403 158.551 270.785C158.655 271.166 158.841 271.52 159.096 271.822C159.352 272.124 159.67 272.367 160.028 272.533C160.387 272.7 160.777 272.786 161.173 272.786Z" fill="black"/>
<path opacity="0.1" d="M168.661 210.34L167.301 218.273L163.469 240.599L119.394 233.311L128.771 210.071L168.661 210.34Z" fill="black"/>
<path d="M246.221 96.384H61.5552C60.935 96.384 60.3208 96.5062 59.7477 96.7436C59.1747 96.9809 58.654 97.3288 58.2154 97.7674C57.7768 98.206 57.4289 98.7267 57.1916 99.2997C56.9542 99.8728 56.832 100.487 56.832 101.107V226.13C56.832 227.383 57.3297 228.584 58.2154 229.47C59.1012 230.356 60.3026 230.853 61.5552 230.853H246.221C247.474 230.853 248.676 230.356 249.563 229.47C250.45 228.585 250.95 227.383 250.952 226.13V101.107C250.95 99.8539 250.45 98.6525 249.563 97.767C248.676 96.8814 247.474 96.384 246.221 96.384Z" fill="#263238"/>
<path opacity="0.6" d="M246.221 96.384H61.5552C60.935 96.384 60.3208 96.5062 59.7477 96.7436C59.1747 96.9809 58.654 97.3288 58.2154 97.7674C57.7768 98.206 57.4289 98.7267 57.1916 99.2997C56.9542 99.8728 56.832 100.487 56.832 101.107V226.13C56.832 227.383 57.3297 228.584 58.2154 229.47C59.1012 230.356 60.3026 230.853 61.5552 230.853H246.221C247.474 230.853 248.676 230.356 249.563 229.47C250.45 228.585 250.95 227.383 250.952 226.13V101.107C250.95 99.8539 250.45 98.6525 249.563 97.767C248.676 96.8814 247.474 96.384 246.221 96.384Z" fill="white"/>
<path opacity="0.2" d="M65.472 230.845H61.5552C60.3039 230.845 59.1037 230.349 58.2181 229.465C57.3326 228.581 56.8341 227.381 56.832 226.13V101.115C56.831 100.494 56.9525 99.8789 57.1894 99.305C57.4263 98.7311 57.774 98.2095 58.2127 97.7701C58.6514 97.3307 59.1724 96.9821 59.746 96.7442C60.3195 96.5064 60.9343 96.384 61.5552 96.384H65.472C64.8492 96.3809 64.2319 96.5011 63.6557 96.7376C63.0795 96.9741 62.5557 97.3222 62.1146 97.7619C61.6735 98.2016 61.3237 98.7242 61.0853 99.2997C60.847 99.8751 60.7248 100.492 60.7258 101.115V226.13C60.7258 226.752 60.8488 227.367 61.0877 227.942C61.3266 228.516 61.6767 229.037 62.1178 229.475C62.5589 229.913 63.0824 230.26 63.6581 230.495C64.2337 230.73 64.8502 230.849 65.472 230.845Z" fill="black"/>
<path d="M246.697 100.447H65.0112V221H246.697V100.447Z" fill="#0E395E"/>
<path opacity="0.4" d="M153.347 138.549C162.059 138.549 169.121 131.487 169.121 122.775C169.121 114.063 162.059 107 153.347 107C144.634 107 137.572 114.063 137.572 122.775C137.572 131.487 144.634 138.549 153.347 138.549Z" fill="white"/>
<path d="M149.583 120.378V118.935C149.583 118.246 149.857 117.586 150.344 117.099C150.83 116.612 151.491 116.339 152.179 116.339H154.483C154.827 116.335 155.167 116.399 155.486 116.528C155.804 116.656 156.094 116.847 156.339 117.088C156.583 117.33 156.777 117.617 156.909 117.934C157.042 118.251 157.11 118.591 157.11 118.935V120.409H158.792V118.935C158.79 117.801 158.338 116.714 157.536 115.912C156.735 115.11 155.648 114.659 154.514 114.657H152.21C151.076 114.659 149.989 115.11 149.187 115.912C148.386 116.714 147.934 117.801 147.932 118.935V120.409L149.583 120.378Z" fill="white"/>
<path d="M145.782 122.322V130.071C145.782 130.184 145.804 130.296 145.847 130.4C145.89 130.504 145.954 130.599 146.034 130.679C146.114 130.759 146.208 130.822 146.313 130.865C146.417 130.909 146.529 130.931 146.642 130.931H160.051C160.164 130.931 160.276 130.909 160.38 130.865C160.485 130.822 160.58 130.759 160.659 130.679C160.739 130.599 160.803 130.504 160.846 130.4C160.889 130.296 160.911 130.184 160.911 130.071V122.322C160.911 122.093 160.821 121.875 160.659 121.713C160.498 121.552 160.279 121.461 160.051 121.461H146.642C146.529 121.461 146.417 121.484 146.313 121.527C146.208 121.57 146.114 121.633 146.034 121.713C145.954 121.793 145.89 121.888 145.847 121.992C145.804 122.097 145.782 122.209 145.782 122.322ZM153.83 126.707V128.243H152.886V126.707C152.748 126.63 152.631 126.519 152.548 126.385C152.465 126.25 152.417 126.097 152.41 125.939C152.41 125.684 152.511 125.44 152.691 125.26C152.871 125.08 153.115 124.979 153.37 124.979C153.624 124.979 153.868 125.08 154.048 125.26C154.228 125.44 154.33 125.684 154.33 125.939C154.32 126.099 154.269 126.254 154.181 126.389C154.094 126.523 153.973 126.633 153.83 126.707Z" fill="white"/>
<path d="M114.862 159.398H99.963C99.0765 159.398 98.3579 160.117 98.3579 161.003V175.903C98.3579 176.789 99.0765 177.508 99.963 177.508H114.862C115.749 177.508 116.467 176.789 116.467 175.903V161.003C116.467 160.117 115.749 159.398 114.862 159.398Z" fill="white"/>
<path d="M137.833 159.375H122.934C122.047 159.375 121.329 160.094 121.329 160.98V175.88C121.329 176.766 122.047 177.485 122.934 177.485H137.833C138.719 177.485 139.438 176.766 139.438 175.88V160.98C139.438 160.094 138.719 159.375 137.833 159.375Z" fill="white"/>
<path d="M160.796 159.352H145.897C145.011 159.352 144.292 160.071 144.292 160.957V175.857C144.292 176.743 145.011 177.462 145.897 177.462H160.796C161.683 177.462 162.401 176.743 162.401 175.857V160.957C162.401 160.071 161.683 159.352 160.796 159.352Z" fill="white"/>
<path d="M183.759 159.322H168.86C167.974 159.322 167.255 160.04 167.255 160.927V175.826C167.255 176.712 167.974 177.431 168.86 177.431H183.759C184.646 177.431 185.364 176.712 185.364 175.826V160.927C185.364 160.04 184.646 159.322 183.759 159.322Z" fill="white"/>
<path d="M206.723 159.299H191.823C190.937 159.299 190.218 160.017 190.218 160.904V175.803C190.218 176.689 190.937 177.408 191.823 177.408H206.723C207.609 177.408 208.328 176.689 208.328 175.803V160.904C208.328 160.017 207.609 159.299 206.723 159.299Z" fill="white"/>
<path d="M195.287 168.706C195.287 165.519 196.992 163.707 199.281 163.707C201.569 163.707 203.267 165.519 203.267 168.706C203.267 171.894 201.562 173.706 199.281 173.706C197 173.706 195.287 171.894 195.287 168.706ZM201.869 168.706C201.869 166.203 200.801 164.951 199.281 164.951C197.76 164.951 196.685 166.203 196.685 168.706C196.685 171.21 197.745 172.462 199.281 172.462C200.817 172.462 201.869 171.202 201.869 168.706Z" fill="#263238"/>
<path d="M111.053 168.584C111.053 171.917 109.163 173.706 106.445 173.706C105.596 173.737 104.755 173.538 104.01 173.13L104.502 172.032C105.072 172.362 105.725 172.522 106.383 172.493C108.365 172.493 109.624 171.249 109.624 168.799V168.453C109.296 168.882 108.867 169.223 108.376 169.446C107.884 169.668 107.344 169.765 106.806 169.728C104.863 169.728 103.465 168.568 103.465 166.771C103.465 164.974 105.001 163.699 106.913 163.699C109.57 163.707 111.053 165.466 111.053 168.584ZM109.332 166.725C109.332 165.719 108.564 164.836 107.028 164.836C106.76 164.803 106.487 164.828 106.228 164.908C105.97 164.989 105.731 165.123 105.528 165.302C105.325 165.481 105.162 165.701 105.05 165.948C104.938 166.195 104.879 166.462 104.878 166.733C104.878 167.885 105.73 168.622 107.105 168.622C108.48 168.622 109.332 167.8 109.332 166.725Z" fill="#263238"/>
<path d="M126.39 168.706C126.39 165.519 128.095 163.707 130.383 163.707C132.672 163.707 134.369 165.519 134.369 168.706C134.369 171.894 132.664 173.706 130.383 173.706C128.102 173.706 126.39 171.894 126.39 168.706ZM132.971 168.706C132.971 166.203 131.912 164.951 130.383 164.951C128.855 164.951 127.787 166.203 127.787 168.706C127.787 171.21 128.847 172.462 130.383 172.462C131.919 172.462 132.971 171.21 132.971 168.706Z" fill="#263238"/>
<path d="M156.88 172.378V173.568H149.852V172.646L153.831 168.806C154.867 167.8 155.059 167.186 155.059 166.571C155.059 165.565 154.353 164.951 152.978 164.951C152.509 164.925 152.04 165.007 151.607 165.191C151.174 165.374 150.789 165.655 150.482 166.011L149.53 165.189C149.979 164.692 150.533 164.301 151.152 164.045C151.771 163.788 152.44 163.673 153.109 163.707C155.144 163.707 156.457 164.751 156.457 166.426C156.457 167.378 156.181 168.23 154.852 169.498L151.865 172.37L156.88 172.378Z" fill="#263238"/>
<path d="M177.462 163.814V173.568H176.08V165.035H173.868V163.814H177.462Z" fill="#263238"/>
<path opacity="0.4" d="M174.359 207.068H131.558C129.867 207.066 128.246 206.393 127.051 205.196C125.855 203.999 125.184 202.377 125.184 200.686C125.184 198.995 125.855 197.372 127.051 196.176C128.246 194.979 129.867 194.306 131.558 194.304H174.359C176.052 194.304 177.675 194.976 178.872 196.173C180.069 197.37 180.741 198.993 180.741 200.686C180.741 202.379 180.069 204.002 178.872 205.199C177.675 206.396 176.052 207.068 174.359 207.068Z" fill="white"/>
<path opacity="0.1" d="M226.747 100C201.626 125.167 137.106 181.185 64 177.038V100H226.747Z" fill="white"/>
<path opacity="0.1" d="M246.689 147.264V221.568H137.311C141.504 206.561 149.89 186.01 166.157 171.325C195.417 144.906 229.378 144.983 246.689 147.264Z" fill="white"/>
<path d="M269.745 89.1571L272.294 100.416L274.844 89.1571H269.745Z" fill="#0E395E"/>
<path opacity="0.7" d="M269.745 89.1571L272.294 100.416L274.844 89.1571H269.745Z" fill="white"/>
<path d="M300.833 57.2775H243.763C240.12 57.2775 237.166 60.2311 237.166 63.8746V85.056C237.166 88.6995 240.12 91.6531 243.763 91.6531H300.833C304.477 91.6531 307.43 88.6995 307.43 85.056V63.8746C307.43 60.2311 304.477 57.2775 300.833 57.2775Z" fill="#E9791E"/>
<path opacity="0.7" d="M300.667 57H243.597C239.954 57 237 59.9536 237 63.5971V84.7786C237 88.422 239.954 91.3757 243.597 91.3757H300.667C304.311 91.3757 307.264 88.422 307.264 84.7786V63.5971C307.264 59.9536 304.311 57 300.667 57Z" fill="white" fill-opacity="0.5"/>
<g opacity="0.5">
<path d="M263.424 78.106C263.424 80.5252 262.064 81.8154 260.075 81.8154C259.462 81.8371 258.855 81.6938 258.317 81.4007L258.701 80.6327C259.116 80.8691 259.59 80.9836 260.068 80.9629C261.504 80.9629 262.418 80.0644 262.418 78.2903V78.0445C262.18 78.3559 261.869 78.6038 261.513 78.7659C261.157 78.9281 260.766 78.9995 260.375 78.9738C260.072 79.007 259.766 78.9766 259.476 78.8844C259.186 78.7922 258.918 78.6403 258.69 78.4385C258.463 78.2367 258.279 77.9894 258.153 77.7125C258.026 77.4357 257.959 77.1354 257.956 76.8311C257.963 76.5168 258.034 76.2074 258.166 75.9219C258.297 75.6363 258.485 75.3807 258.719 75.1706C258.953 74.9605 259.227 74.8005 259.525 74.7004C259.823 74.6003 260.138 74.5622 260.452 74.5885C262.349 74.5731 263.424 75.848 263.424 78.106ZM262.172 76.8004C262.172 76.0708 261.588 75.4333 260.482 75.4333C260.289 75.4129 260.094 75.4332 259.909 75.4929C259.724 75.5526 259.554 75.6504 259.409 75.7799C259.265 75.9094 259.149 76.0678 259.069 76.2449C258.989 76.422 258.947 76.6138 258.946 76.808C258.946 77.6375 259.561 78.1751 260.551 78.1751C260.749 78.1951 260.948 78.1751 261.138 78.1162C261.327 78.0573 261.503 77.9608 261.654 77.8325C261.805 77.7041 261.929 77.5466 262.018 77.3692C262.107 77.1919 262.159 76.9984 262.172 76.8004Z" fill="#263238"/>
<path d="M264.392 78.1978C264.392 75.8938 265.628 74.5729 267.287 74.5729C268.946 74.5729 270.167 75.8938 270.167 78.1978C270.167 80.5018 268.93 81.8151 267.287 81.8151C265.643 81.8151 264.392 80.5018 264.392 78.1978ZM269.153 78.1978C269.153 76.3854 268.385 75.4791 267.287 75.4791C266.189 75.4791 265.405 76.3854 265.405 78.1978C265.405 80.0103 266.173 80.9166 267.287 80.9166C268.401 80.9166 269.153 80.0103 269.153 78.1978Z" fill="#263238"/>
<path d="M276.088 80.8551V81.7383H270.996V81.0471L273.884 78.267C274.652 77.5374 274.767 77.0919 274.767 76.6465C274.767 75.9246 274.252 75.4791 273.231 75.4791C272.891 75.4591 272.551 75.5181 272.238 75.6513C271.925 75.7845 271.647 75.9885 271.426 76.2471L270.735 75.6481C271.06 75.2883 271.46 75.0053 271.908 74.8193C272.356 74.6334 272.839 74.5492 273.323 74.5729C274.798 74.5729 275.75 75.3409 275.75 76.5466C275.738 76.9816 275.628 77.4082 275.427 77.7941C275.226 78.18 274.94 78.515 274.59 78.7738L272.424 80.8551H276.088Z" fill="#263238"/>
<path d="M279.114 74.6573V81.7383H278.108V75.5405H276.479V74.6573H279.114Z" fill="#263238"/>
<path d="M280.658 78.1978C280.658 75.8938 281.894 74.5729 283.553 74.5729C285.212 74.5729 286.433 75.8938 286.433 78.1978C286.433 80.5018 285.204 81.8151 283.553 81.8151C281.902 81.8151 280.658 80.5018 280.658 78.1978ZM285.427 78.1978C285.427 76.3854 284.659 75.4791 283.553 75.4791C282.447 75.4791 281.671 76.3854 281.671 78.1978C281.671 80.0103 282.439 80.9166 283.553 80.9166C284.667 80.9166 285.427 80.0103 285.427 78.1978Z" fill="#263238"/>
</g>
<path d="M265.981 122.181C270.566 125.354 275.694 127.657 281.111 128.978H281.165C280.759 128.966 280.36 129.079 280.02 129.3C279.686 129.509 279.419 129.811 279.252 130.168C279.196 130.278 279.165 130.399 279.16 130.522C279.283 128.909 278.584 127.096 278.093 125.353C277.209 122.596 276.173 119.77 275.136 116.997L278.1 115.407C280.55 119.163 288.729 131.052 283.146 134.492C282.189 135.05 281.058 135.231 279.974 134.999C273.891 134.098 268.089 131.835 263.001 128.379C262.648 128.133 262.341 127.918 261.926 127.611L265.997 122.166L265.981 122.181Z" fill="#DC897C"/>
<path d="M265.121 121.344C267.81 121.668 270.364 122.705 272.517 124.347L269.445 133.855C269.445 133.855 254.515 120.092 265.121 121.344Z" fill="#0E395E"/>
<path opacity="0.6" d="M265.09 129.339C266.457 130.904 267.903 132.399 269.422 133.816L270.689 129.907L272.517 124.308C270.366 122.668 267.815 121.631 265.129 121.306C258.601 120.576 261.719 125.46 265.09 129.339Z" fill="white"/>
<path opacity="0.2" d="M265.091 129.339C266.457 130.904 267.903 132.399 269.422 133.816L270.689 129.907C269.096 128.666 267.134 127.99 265.114 127.987C265.068 128.436 265.06 128.888 265.091 129.339Z" fill="black"/>
<path d="M231.936 107.282C231.936 107.282 224.794 131.029 239.839 134.216C254.884 137.403 256.512 126.474 256.512 126.474C256.512 126.474 244.147 107.766 231.936 107.282Z" fill="#263238"/>
<path d="M228.411 115.146C228.383 115.154 228.354 115.154 228.326 115.146C228.304 115.136 228.285 115.121 228.269 115.103C228.254 115.084 228.242 115.063 228.235 115.04C228.227 115.017 228.225 114.993 228.228 114.969C228.23 114.945 228.238 114.922 228.249 114.901C228.474 114.491 228.791 114.139 229.174 113.872C229.558 113.606 229.999 113.432 230.461 113.365C230.509 113.366 230.555 113.385 230.59 113.417C230.625 113.45 230.648 113.494 230.653 113.541C230.655 113.565 230.653 113.59 230.645 113.613C230.638 113.636 230.626 113.658 230.61 113.676C230.595 113.695 230.575 113.71 230.554 113.721C230.532 113.732 230.508 113.739 230.484 113.741C230.084 113.806 229.703 113.962 229.372 114.196C229.041 114.43 228.767 114.737 228.572 115.093C228.552 115.115 228.527 115.132 228.499 115.141C228.47 115.151 228.44 115.152 228.411 115.146Z" fill="#263238"/>
<path d="M230.561 118.095C230.465 119.021 230.256 119.931 229.939 120.806C230.177 120.949 230.449 121.024 230.726 121.024C231.003 121.024 231.275 120.949 231.513 120.806L230.561 118.095Z" fill="#DE5753"/>
<path d="M229.11 117.059C229.271 117.481 229.632 117.734 229.878 117.627C230.123 117.519 230.262 117.097 230.1 116.675C229.939 116.252 229.578 115.999 229.332 116.106C229.086 116.214 228.956 116.636 229.11 117.059Z" fill="#263238"/>
<path d="M229.455 116.083H228.403C228.403 116.083 229.156 116.667 229.455 116.083Z" fill="#263238"/>
<path d="M244.401 121.045C244.374 121.113 244.338 121.178 244.293 121.237C244.224 121.367 244.147 121.49 244.071 121.621C243.62 122.43 243.021 123.146 242.304 123.733C240 125.568 237.996 126.121 236.252 125.591L235.999 125.507C233.411 124.454 231.391 121.359 229.786 117.266C229.073 115.664 228.625 113.958 228.457 112.213C228.457 112.213 228.457 112.151 228.457 112.136C228.457 112.12 228.457 111.998 228.457 111.936C228.397 110.936 228.588 109.937 229.011 109.029C229.435 108.121 230.079 107.333 230.884 106.737C231.572 106.196 232.32 105.735 233.111 105.362C240.784 101.622 248.248 113.802 244.401 121.045Z" fill="#E4897B"/>
<path opacity="0.2" d="M244.07 121.621C243.62 122.43 243.021 123.147 242.304 123.733C240 125.568 237.995 126.121 236.252 125.591C237.947 125.18 239.474 124.255 240.622 122.942C241.065 122.483 241.604 122.126 242.199 121.898C242.795 121.67 243.434 121.575 244.07 121.621Z" fill="black"/>
<path d="M228.419 112.166C228.419 112.166 230.561 117.804 236.821 117.704C236.821 117.704 241.705 122.312 245 120.845C249.493 118.856 250.414 110.684 245.837 104.978C239.893 97.5745 226.929 102.912 228.419 112.166Z" fill="#263238"/>
<path d="M233.472 117.381C233.073 116.529 233.08 114.785 234.486 114.355C235.891 113.925 238.326 116.913 235.3 119.247C234.87 119.585 234.301 119.148 233.472 117.381Z" fill="#E4897B"/>
<path d="M235.154 101.906C235.154 101.906 229.348 103.05 227.474 106.514C225.278 110.538 225.17 113.656 231.007 115.73C231.007 115.73 238.387 108.818 241.567 108.05C243.42 107.59 245.308 107.287 247.212 107.144C245.092 101.007 237.496 99.3639 235.154 101.906Z" fill="#263238"/>
<path d="M240.783 123.878C240.783 123.878 244.777 126.643 245.814 131.205L258.263 123.94C258.263 123.94 248.517 121.72 246.843 117.949C246.843 117.949 240.33 118.756 240.783 123.878Z" fill="#E4897B"/>
<path d="M253.148 153.792C253.148 153.792 237.02 137.948 235.284 132.972C235.284 132.972 242.066 122.412 255.621 121.966C269.176 121.521 278.4 147.31 278.4 147.31L253.148 153.792Z" fill="#0E395E"/>
<path opacity="0.6" d="M278.4 147.318L253.156 153.8C253.156 153.8 249.638 150.336 245.706 146.12C244.493 144.806 243.225 143.424 242.004 142.057C238.802 138.424 235.976 134.876 235.292 132.949C235.292 132.949 242.066 122.389 255.621 121.943C269.176 121.498 278.4 147.318 278.4 147.318Z" fill="white"/>
<path d="M238.08 115C238.08 115 240.438 122.834 248.717 125.43C256.996 128.026 254.914 136.481 262.94 135.483C267.21 134.953 270.866 126.267 257.771 118.587C250.137 114.125 253.102 99.456 236.897 100.831C236.882 100.838 240.246 110.892 238.08 115Z" fill="#263238"/>
<path d="M246.121 273.201L242.281 272.325C242.857 253.125 245.629 229.909 248.079 212.467C248.463 209.733 248.847 207.153 249.2 204.741C249.377 203.597 249.538 202.499 249.7 201.439C250.468 196.209 251.174 192.077 251.597 189.519C251.911 187.653 252.088 186.632 252.088 186.632L265.912 190.003L264.921 193.49L261.657 205.01L261.289 206.323L259.123 213.919L255.452 226.844C255.682 246.359 246.121 273.201 246.121 273.201Z" fill="#E4897B"/>
<path d="M278.991 269.99L275.059 269.791C272.064 249.147 270.805 223.327 270.259 205.379C270.182 202.598 270.113 200.003 270.06 197.637C270.06 197.522 270.06 197.407 270.06 197.292C269.96 192.614 269.914 188.897 269.891 186.54C269.891 184.696 269.891 183.69 269.891 183.69L284.076 184.62L283.469 190.533L282.578 199.212L282.401 200.917L281.787 206.83L280.128 222.72C283.753 241.92 278.991 269.99 278.991 269.99Z" fill="#E4897B"/>
<path d="M280.466 269.222C280.466 268.731 274.398 269.115 274.398 269.115C274.398 269.115 270.674 272.901 267.056 273.723C263.439 274.545 265.467 276.749 269.506 276.749H279.49C282.378 276.78 280.581 274.33 280.466 269.222Z" fill="#263238"/>
<path d="M270.682 270.52C270.594 270.441 270.533 270.336 270.507 270.221C270.481 270.105 270.491 269.985 270.536 269.875C270.56 269.789 270.6 269.709 270.656 269.639C270.711 269.569 270.78 269.511 270.858 269.468C271.289 269.293 271.759 269.239 272.218 269.315C271.726 269.054 271.296 268.739 271.273 268.416C271.273 268.209 271.396 268.04 271.672 267.909C271.793 267.854 271.924 267.826 272.056 267.826C272.189 267.826 272.32 267.854 272.44 267.909C273.262 268.255 273.769 269.668 273.792 269.722C273.808 269.761 273.808 269.805 273.792 269.845V269.883C273.778 269.9 273.759 269.913 273.738 269.921C272.955 270.322 272.108 270.582 271.235 270.689C271.036 270.703 270.839 270.642 270.682 270.52ZM271.02 269.752C270.978 269.774 270.941 269.803 270.91 269.838C270.88 269.874 270.857 269.915 270.843 269.96C270.781 270.198 270.843 270.259 270.843 270.282C271.135 270.52 272.241 270.182 273.147 269.806C272.457 269.589 271.721 269.567 271.02 269.745V269.752ZM271.788 268.216C271.703 268.216 271.565 268.332 271.573 268.416C271.573 268.685 272.456 269.184 273.347 269.499C273.148 268.967 272.785 268.512 272.31 268.201C272.233 268.165 272.149 268.147 272.064 268.147C271.977 268.147 271.89 268.165 271.811 268.201L271.788 268.216Z" fill="#263238"/>
<path d="M248.064 269.222C248.064 268.731 242.004 269.115 242.004 269.115C242.004 269.115 238.279 272.901 234.662 273.723C231.045 274.545 233.065 276.749 237.104 276.749H247.088C249.984 276.78 248.194 274.33 248.064 269.222Z" fill="#263238"/>
<path d="M238.287 270.52C238.201 270.44 238.142 270.335 238.116 270.22C238.09 270.105 238.099 269.985 238.141 269.875C238.165 269.789 238.206 269.709 238.261 269.639C238.317 269.569 238.386 269.511 238.464 269.468C238.894 269.293 239.365 269.24 239.823 269.315C239.332 269.054 238.902 268.739 238.886 268.416C238.886 268.211 239.017 268.042 239.278 267.909C239.399 267.854 239.53 267.826 239.662 267.826C239.794 267.826 239.925 267.854 240.046 267.909C240.868 268.255 241.375 269.668 241.398 269.722C241.407 269.741 241.412 269.762 241.412 269.783C241.412 269.804 241.407 269.825 241.398 269.845C241.398 269.845 241.398 269.845 241.398 269.883L241.344 269.921C240.558 270.321 239.708 270.581 238.833 270.689C238.637 270.699 238.443 270.639 238.287 270.52ZM238.625 269.752C238.584 269.774 238.548 269.803 238.519 269.839C238.49 269.874 238.469 269.916 238.456 269.96C238.395 270.198 238.456 270.259 238.495 270.282C238.779 270.52 239.885 270.182 240.799 269.806C240.095 269.58 239.341 269.558 238.625 269.745V269.752ZM239.393 268.216C239.309 268.216 239.17 268.332 239.178 268.416C239.178 268.685 240.061 269.184 240.96 269.499C240.758 268.966 240.393 268.512 239.915 268.201C239.839 268.164 239.755 268.146 239.67 268.147C239.582 268.147 239.496 268.165 239.416 268.201L239.393 268.216Z" fill="#263238"/>
<path d="M249.876 192.407L253.148 169.367V153.777C261.773 147.295 278.4 147.295 278.4 147.295C278.4 147.295 291.172 165.013 284.966 194.143L268.931 196.447L267.909 191.009L265.897 196.447L249.876 192.407Z" fill="#263238"/>
<path opacity="0.2" d="M249.876 192.407L253.148 169.367V153.777C261.773 147.295 278.4 147.295 278.4 147.295C278.4 147.295 291.172 165.013 284.966 194.143L268.931 196.447L267.909 191.009L265.897 196.447L249.876 192.407Z" fill="white"/>
<path opacity="0.2" d="M267.909 191.094L270.981 181.502C270.981 181.502 274.222 180.518 278.385 174.083C278.4 174.083 277.678 185.034 267.909 191.094Z" fill="black"/>
<path opacity="0.2" d="M261.074 158.208L268.27 157.525C269.418 160.215 269.816 163.166 269.422 166.065L264.814 168.837L261.473 166.464C261.473 166.464 261.366 160.374 261.074 158.208Z" fill="black"/>
<path opacity="0.2" d="M278.4 156.449C279.366 158.823 280.079 161.292 280.527 163.814L283.077 164.897L284.452 163.185C284.452 163.185 283.522 158.17 281.948 155.712L278.4 156.449Z" fill="black"/>
<path d="M249.577 191.094L266.596 196.086L265.528 198.374L249.362 193.398L249.577 191.094Z" fill="#263238"/>
<path d="M268.27 195.756L268.554 197.86L285.243 195.756L285.496 193.106L268.27 195.756Z" fill="#263238"/>
<path d="M271.772 150.528C274.502 150.067 277.261 149.798 280.028 149.722L278.999 148.024C276.307 147.953 273.615 148.113 270.95 148.501L271.772 150.528Z" fill="#263238"/>
<path d="M256.466 152.617C254.262 153.569 252.995 154.284 252.995 154.284V156.38C254.234 155.755 255.475 155.185 256.719 154.668L256.466 152.617Z" fill="#263238"/>
<path d="M257.526 154.368C261.795 152.694 266.223 151.462 270.743 150.689L269.975 148.646C265.594 149.377 261.311 150.609 257.211 152.318L257.526 154.368Z" fill="#263238"/>
<path d="M211.384 160.366L207.022 158.615L206.254 162.732C206.254 162.732 210.186 165.112 211.83 162.278L211.384 160.366Z" fill="#E4897B"/>
<path d="M204.856 158.869L203.458 162.048L206.285 162.732L207.022 158.615L204.856 158.869Z" fill="#E4897B"/>
<path d="M278.331 116.122L277.816 111.452L273.838 112.742C273.838 112.742 273.592 117.35 276.872 117.443L278.331 116.122Z" fill="#E4897B"/>
<path d="M276.564 109.663L273.101 109.939L273.838 112.742L277.816 111.452L276.564 109.663Z" fill="#E4897B"/>
<path opacity="0.2" d="M245.706 146.143C244.493 144.83 243.225 143.447 242.004 142.08C241.536 139.223 241.236 136.704 241.236 136.704C242.699 137.789 243.872 139.218 244.652 140.864C245.431 142.511 245.793 144.323 245.706 146.143Z" fill="black"/>
<path d="M241.682 135.383C239.923 142.475 237.267 149.314 233.779 155.735C230.323 162.302 217.183 163.093 210.578 163.262L210.271 159.913C214.249 158.976 226.614 156.511 228.303 152.924C231.061 146.71 233.331 140.291 235.092 133.724L241.682 135.368V135.383Z" fill="#DC897C"/>
<path d="M237.919 129.592C234.163 132.05 232.151 138.44 231.514 141.565L239.317 147.31L243.256 143.47C244.854 134.653 239.347 128.663 237.919 129.592Z" fill="#0E395E"/>
<path opacity="0.6" d="M237.919 129.592C234.163 132.05 232.151 138.44 231.514 141.565L239.317 147.31L243.256 143.47C244.854 134.653 239.347 128.663 237.919 129.592Z" fill="white"/>
<path d="M276.011 117.619L270.436 118.218C270.357 118.22 270.279 118.206 270.206 118.177C270.133 118.147 270.067 118.103 270.012 118.047C269.958 117.99 269.915 117.923 269.887 117.85C269.86 117.776 269.848 117.698 269.852 117.619L269.514 105.815C269.503 105.648 269.553 105.483 269.655 105.35C269.757 105.218 269.903 105.126 270.067 105.093L275.635 104.502C275.714 104.498 275.793 104.512 275.866 104.541C275.94 104.57 276.006 104.614 276.061 104.671C276.116 104.727 276.159 104.795 276.186 104.869C276.213 104.943 276.224 105.022 276.219 105.101L276.557 116.905C276.567 117.07 276.518 117.233 276.418 117.364C276.318 117.496 276.173 117.586 276.011 117.619Z" fill="#263238"/>
<path opacity="0.6" d="M276.011 117.619L270.436 118.218C270.357 118.22 270.279 118.206 270.206 118.177C270.133 118.147 270.067 118.103 270.012 118.047C269.958 117.99 269.915 117.923 269.887 117.85C269.86 117.776 269.848 117.698 269.852 117.619L269.514 105.815C269.503 105.648 269.553 105.483 269.655 105.35C269.757 105.218 269.903 105.126 270.067 105.093L275.635 104.502C275.714 104.498 275.793 104.512 275.866 104.541C275.94 104.57 276.006 104.614 276.061 104.671C276.116 104.727 276.159 104.795 276.186 104.869C276.213 104.943 276.224 105.022 276.219 105.101L276.557 116.905C276.567 117.07 276.518 117.233 276.418 117.364C276.318 117.496 276.173 117.586 276.011 117.619Z" fill="white"/>
<path d="M275.52 117.673L269.952 118.264C269.873 118.269 269.794 118.257 269.72 118.228C269.647 118.2 269.58 118.157 269.524 118.101C269.468 118.045 269.425 117.978 269.396 117.904C269.368 117.831 269.356 117.752 269.361 117.673L269.03 105.861C269.016 105.696 269.064 105.531 269.165 105.399C269.266 105.267 269.412 105.177 269.576 105.147L275.144 104.556C275.222 104.552 275.3 104.565 275.373 104.594C275.445 104.623 275.511 104.666 275.566 104.722C275.621 104.778 275.664 104.844 275.692 104.917C275.72 104.991 275.732 105.069 275.727 105.147L276.065 116.959C276.079 117.124 276.031 117.289 275.931 117.421C275.83 117.553 275.683 117.643 275.52 117.673Z" fill="#263238"/>
<path opacity="0.7" d="M275.52 117.673L269.952 118.264C269.873 118.269 269.794 118.257 269.72 118.228C269.647 118.2 269.58 118.157 269.524 118.101C269.468 118.045 269.425 117.978 269.396 117.904C269.368 117.831 269.356 117.752 269.361 117.673L269.03 105.861C269.016 105.696 269.064 105.531 269.165 105.399C269.266 105.267 269.412 105.177 269.576 105.147L275.144 104.556C275.222 104.552 275.3 104.565 275.373 104.594C275.445 104.623 275.511 104.666 275.566 104.722C275.621 104.778 275.664 104.844 275.692 104.917C275.72 104.991 275.732 105.069 275.727 105.147L276.065 116.959C276.079 117.124 276.031 117.289 275.931 117.421C275.83 117.553 275.683 117.643 275.52 117.673Z" fill="white"/>
<path d="M275.151 104.786L273.692 104.94L273.508 105.393L271.25 105.631L271.043 105.224L269.583 105.377C269.478 105.399 269.384 105.459 269.319 105.545C269.254 105.631 269.222 105.738 269.23 105.846L269.56 117.65C269.557 117.701 269.565 117.753 269.583 117.801C269.601 117.849 269.629 117.893 269.665 117.929C269.702 117.965 269.745 117.994 269.794 118.012C269.842 118.03 269.893 118.037 269.944 118.034L275.512 117.443C275.617 117.422 275.711 117.364 275.776 117.279C275.842 117.194 275.873 117.089 275.866 116.982L275.535 105.17C275.538 105.119 275.529 105.068 275.511 105.02C275.492 104.973 275.464 104.93 275.428 104.894C275.392 104.858 275.349 104.829 275.301 104.811C275.253 104.792 275.202 104.784 275.151 104.786Z" fill="#0E395E"/>
<path opacity="0.8" d="M274.406 109.056L270.313 109.494C270.263 109.496 270.213 109.488 270.166 109.47C270.119 109.451 270.077 109.424 270.042 109.388C270.006 109.353 269.979 109.311 269.961 109.264C269.942 109.217 269.934 109.167 269.936 109.117V107.981C269.927 107.875 269.957 107.769 270.021 107.684C270.084 107.599 270.178 107.54 270.282 107.52L274.383 107.082C274.433 107.081 274.483 107.09 274.529 107.109C274.575 107.129 274.617 107.157 274.652 107.193C274.687 107.229 274.713 107.272 274.73 107.319C274.748 107.366 274.755 107.416 274.752 107.466L274.79 108.603C274.797 108.713 274.76 108.822 274.689 108.906C274.617 108.991 274.516 109.044 274.406 109.056Z" fill="white"/>
<path d="M258.895 68V67.08H260.423V68H258.895ZM260.423 68V67.08C260.481 67.08 260.521 67.1227 260.543 67.208C260.569 67.288 260.583 67.3973 260.583 67.536C260.583 67.6747 260.569 67.7867 260.543 67.872C260.521 67.9573 260.481 68 260.423 68ZM256.431 70.28C255.961 70.28 255.537 70.1947 255.159 70.024C254.78 69.8533 254.457 69.6133 254.191 69.304C253.929 69 253.727 68.6453 253.583 68.24C253.444 67.8347 253.375 67.3973 253.375 66.928C253.375 66.704 253.391 66.48 253.423 66.256C253.46 66.0267 253.508 65.8053 253.567 65.592L254.335 65.744C254.281 65.952 254.241 66.1547 254.215 66.352C254.193 66.544 254.183 66.728 254.183 66.904C254.183 67.416 254.279 67.8533 254.471 68.216C254.663 68.584 254.927 68.8667 255.263 69.064C255.604 69.2613 255.993 69.36 256.431 69.36C256.863 69.36 257.247 69.2613 257.583 69.064C257.919 68.872 258.183 68.592 258.375 68.224C258.567 67.8613 258.663 67.4293 258.663 66.928V64.312H259.471V66.928C259.471 67.3973 259.401 67.8347 259.263 68.24C259.124 68.6453 258.921 69 258.655 69.304C258.393 69.6133 258.073 69.8533 257.695 70.024C257.321 70.1947 256.9 70.28 256.431 70.28ZM257.911 68C257.495 68 257.132 67.9093 256.823 67.728C256.519 67.5467 256.281 67.304 256.111 67C255.94 66.6907 255.855 66.352 255.855 65.984C255.855 65.6853 255.908 65.4107 256.015 65.16C256.121 64.904 256.271 64.6827 256.463 64.496C256.655 64.304 256.876 64.1547 257.127 64.048C257.377 63.9413 257.647 63.888 257.935 63.888C258.217 63.888 258.492 63.9333 258.759 64.024C259.025 64.1093 259.263 64.2053 259.471 64.312L259.111 65.136C258.673 64.9173 258.281 64.808 257.935 64.808C257.695 64.808 257.479 64.8613 257.287 64.968C257.095 65.0693 256.943 65.208 256.831 65.384C256.719 65.56 256.663 65.76 256.663 65.984C256.663 66.1973 256.713 66.3867 256.815 66.552C256.921 66.7173 257.068 66.848 257.255 66.944C257.441 67.0347 257.66 67.08 257.911 67.08H259.063V68H257.911ZM258.503 62.912C258.364 62.912 258.247 62.8667 258.151 62.776C258.06 62.68 258.015 62.5627 258.015 62.424C258.015 62.28 258.06 62.1627 258.151 62.072C258.247 61.9813 258.364 61.936 258.503 61.936C258.641 61.936 258.756 61.9813 258.847 62.072C258.943 62.1627 258.991 62.28 258.991 62.424C258.991 62.5627 258.943 62.68 258.847 62.776C258.756 62.8667 258.641 62.912 258.503 62.912ZM257.367 62.912C257.228 62.912 257.111 62.8667 257.015 62.776C256.924 62.68 256.879 62.5627 256.879 62.424C256.879 62.28 256.924 62.1627 257.015 62.072C257.111 61.9813 257.228 61.936 257.367 61.936C257.505 61.936 257.62 61.9813 257.711 62.072C257.807 62.1627 257.855 62.28 257.855 62.424C257.855 62.5627 257.807 62.68 257.711 62.776C257.62 62.8667 257.505 62.912 257.367 62.912ZM260.422 68V67.08C260.705 67.08 260.974 67.072 261.23 67.056C261.491 67.04 261.734 67.016 261.958 66.984C261.985 66.9787 262.009 66.9947 262.03 67.032C262.051 67.064 262.073 67.096 262.094 67.128C262.121 67.1547 262.145 67.168 262.166 67.168C262.577 67.088 262.923 66.9813 263.206 66.848C263.489 66.7147 263.705 66.56 263.854 66.384C264.003 66.208 264.078 66.0133 264.078 65.8C264.078 65.608 264.033 65.4373 263.942 65.288C263.851 65.1387 263.726 65.0213 263.566 64.936C263.406 64.8507 263.219 64.808 263.006 64.808C262.798 64.808 262.611 64.8507 262.446 64.936C262.286 65.0213 262.161 65.1387 262.07 65.288C261.979 65.432 261.934 65.6 261.934 65.792C261.934 66.0053 262.011 66.2053 262.166 66.392C262.326 66.5733 262.555 66.7307 262.854 66.864C263.153 66.9973 263.518 67.1013 263.95 67.176C263.977 67.1813 264.001 67.168 264.022 67.136C264.043 67.104 264.065 67.072 264.086 67.04C264.113 67.0027 264.137 66.9867 264.158 66.992C264.371 67.0187 264.595 67.04 264.83 67.056C265.07 67.072 265.321 67.08 265.582 67.08V68C264.931 68 264.334 67.9547 263.79 67.864C263.246 67.7733 262.774 67.6373 262.374 67.456C261.979 67.2693 261.673 67.032 261.454 66.744C261.235 66.4507 261.126 66.104 261.126 65.704C261.126 65.3467 261.209 65.032 261.374 64.76C261.545 64.488 261.771 64.2747 262.054 64.12C262.342 63.9653 262.659 63.888 263.006 63.888C263.353 63.888 263.667 63.9653 263.95 64.12C264.233 64.2693 264.459 64.4827 264.63 64.76C264.801 65.032 264.886 65.3493 264.886 65.712C264.886 66.0747 264.798 66.3867 264.622 66.648C264.451 66.9093 264.217 67.128 263.918 67.304C263.625 67.4747 263.286 67.6133 262.902 67.72C262.518 67.8213 262.113 67.8933 261.686 67.936C261.265 67.9787 260.843 68 260.422 68ZM265.582 68V67.08C265.641 67.08 265.681 67.1227 265.702 67.208C265.729 67.288 265.742 67.3973 265.742 67.536C265.742 67.6747 265.729 67.7867 265.702 67.872C265.681 67.9573 265.641 68 265.582 68ZM260.422 68C260.363 68 260.323 67.9573 260.302 67.872C260.275 67.7867 260.262 67.672 260.262 67.528C260.262 67.3893 260.275 67.28 260.302 67.2C260.323 67.12 260.363 67.08 260.422 67.08V68ZM263.574 62.912C263.435 62.912 263.318 62.8667 263.222 62.776C263.131 62.68 263.086 62.5627 263.086 62.424C263.086 62.28 263.131 62.1627 263.222 62.072C263.318 61.9813 263.435 61.936 263.574 61.936C263.713 61.936 263.827 61.9813 263.918 62.072C264.014 62.1627 264.062 62.28 264.062 62.424C264.062 62.5627 264.014 62.68 263.918 62.776C263.827 62.8667 263.713 62.912 263.574 62.912ZM262.438 62.912C262.299 62.912 262.182 62.8667 262.086 62.776C261.995 62.68 261.95 62.5627 261.95 62.424C261.95 62.28 261.995 62.1627 262.086 62.072C262.182 61.9813 262.299 61.936 262.438 61.936C262.577 61.936 262.691 61.9813 262.782 62.072C262.878 62.1627 262.926 62.28 262.926 62.424C262.926 62.5627 262.878 62.68 262.782 62.776C262.691 62.8667 262.577 62.912 262.438 62.912ZM269.738 68V67.08H270.866V68H269.738ZM265.578 68C265.519 68 265.479 67.9573 265.458 67.872C265.431 67.7867 265.418 67.672 265.418 67.528C265.418 67.3893 265.431 67.28 265.458 67.2C265.479 67.12 265.519 67.08 265.578 67.08V68ZM269.106 68V65.904C269.106 65.6587 269.042 65.4453 268.914 65.264C268.791 65.0773 268.613 64.9333 268.378 64.832C268.143 64.7253 267.863 64.672 267.538 64.672C267.282 64.672 267.031 64.7013 266.786 64.76C266.546 64.8187 266.335 64.8907 266.154 64.976L265.826 64.248C266.087 64.0827 266.365 63.96 266.658 63.88C266.951 63.7947 267.25 63.752 267.554 63.752C267.901 63.752 268.218 63.8053 268.506 63.912C268.794 64.0133 269.042 64.16 269.25 64.352C269.463 64.544 269.626 64.7733 269.738 65.04C269.855 65.3013 269.914 65.5893 269.914 65.904V68H269.106ZM265.578 68V67.08H270.266L270.122 68H265.578ZM270.866 68V67.08C270.925 67.08 270.965 67.1227 270.986 67.208C271.013 67.288 271.026 67.3973 271.026 67.536C271.026 67.6747 271.013 67.7867 270.986 67.872C270.965 67.9573 270.925 68 270.866 68ZM270.867 68V67.08H271.275C271.505 67.08 271.675 67.064 271.787 67.032C271.899 66.9947 271.974 66.928 272.011 66.832C272.049 66.736 272.067 66.5973 272.067 66.416V64.144H272.875V66.416C272.875 66.7733 272.819 67.0693 272.707 67.304C272.595 67.5387 272.422 67.7147 272.187 67.832C271.953 67.944 271.649 68 271.275 68H270.867ZM273.667 68C273.294 68 272.99 67.944 272.755 67.832C272.521 67.7147 272.347 67.5387 272.235 67.304C272.123 67.0693 272.067 66.7733 272.067 66.416H272.875C272.875 66.5973 272.894 66.736 272.931 66.832C272.969 66.928 273.043 66.9947 273.155 67.032C273.273 67.064 273.443 67.08 273.667 67.08H273.995V68H273.667ZM273.995 68V67.08C274.054 67.08 274.094 67.1227 274.115 67.208C274.142 67.288 274.155 67.3973 274.155 67.536C274.155 67.6747 274.142 67.7867 274.115 67.872C274.094 67.9573 274.054 68 273.995 68ZM270.867 68C270.809 68 270.769 67.9573 270.747 67.872C270.721 67.7867 270.707 67.672 270.707 67.528C270.707 67.3893 270.721 67.28 270.747 67.2C270.769 67.12 270.809 67.08 270.867 67.08V68ZM273.043 63.168C272.905 63.168 272.787 63.1227 272.691 63.032C272.601 62.936 272.555 62.8187 272.555 62.68C272.555 62.536 272.601 62.4187 272.691 62.328C272.787 62.2373 272.905 62.192 273.043 62.192C273.182 62.192 273.297 62.2373 273.387 62.328C273.483 62.4187 273.531 62.536 273.531 62.68C273.531 62.8187 273.483 62.936 273.387 63.032C273.297 63.1227 273.182 63.168 273.043 63.168ZM271.907 63.168C271.769 63.168 271.651 63.1227 271.555 63.032C271.465 62.936 271.419 62.8187 271.419 62.68C271.419 62.536 271.465 62.4187 271.555 62.328C271.651 62.2373 271.769 62.192 271.907 62.192C272.046 62.192 272.161 62.2373 272.251 62.328C272.347 62.4187 272.395 62.536 272.395 62.68C272.395 62.8187 272.347 62.936 272.251 63.032C272.161 63.1227 272.046 63.168 271.907 63.168ZM273.992 68V67.08H275.032V61.44H275.84V68H273.992ZM273.992 68C273.934 68 273.894 67.9573 273.872 67.872C273.846 67.7867 273.832 67.672 273.832 67.528C273.832 67.3893 273.846 67.28 273.872 67.2C273.894 67.12 273.934 67.08 273.992 67.08V68ZM276.96 68V61.44H277.768V68H276.96ZM282.203 68V67.08H283.379V68H282.203ZM280.562 69.24C280.819 69.2453 281.024 69.2187 281.179 69.16C281.333 69.1067 281.445 69.0133 281.515 68.88C281.584 68.7467 281.618 68.576 281.618 68.368V64.144H282.427V68.368C282.427 68.736 282.357 69.0507 282.219 69.312C282.08 69.5733 281.883 69.7733 281.627 69.912C281.376 70.0507 281.072 70.1227 280.715 70.128L280.562 69.24ZM283.379 68V67.08C283.437 67.08 283.477 67.1227 283.499 67.208C283.525 67.288 283.539 67.3973 283.539 67.536C283.539 67.6747 283.525 67.7867 283.499 67.872C283.477 67.9573 283.437 68 283.379 68ZM282.027 63.072C281.877 63.072 281.749 63.0213 281.643 62.92C281.541 62.8133 281.491 62.6853 281.491 62.536C281.491 62.3813 281.541 62.2533 281.643 62.152C281.749 62.0507 281.877 62 282.027 62C282.181 62 282.309 62.0507 282.411 62.152C282.512 62.2533 282.562 62.3813 282.562 62.536C282.562 62.6853 282.512 62.8133 282.411 62.92C282.309 63.0213 282.181 63.072 282.027 63.072ZM283.375 68V67.08C283.631 67.08 283.844 67.0293 284.015 66.928C284.186 66.8267 284.335 66.688 284.463 66.512C284.596 66.336 284.724 66.1387 284.847 65.92C284.97 65.7067 285.1 65.496 285.239 65.288C285.378 65.08 285.53 64.8907 285.695 64.72C285.86 64.5493 286.044 64.4133 286.247 64.312C286.45 64.2053 286.679 64.152 286.935 64.152C287.218 64.152 287.458 64.2133 287.655 64.336C287.858 64.4533 288.02 64.6133 288.143 64.816C288.266 65.0133 288.354 65.2347 288.407 65.48C288.466 65.7253 288.495 65.9733 288.495 66.224C288.495 66.496 288.458 66.8053 288.383 67.152C288.308 67.4933 288.186 67.8133 288.015 68.112L287.311 67.656C287.434 67.4427 287.527 67.2133 287.591 66.968C287.655 66.7227 287.687 66.4747 287.687 66.224C287.687 65.8293 287.623 65.5387 287.495 65.352C287.367 65.1653 287.18 65.072 286.935 65.072C286.78 65.072 286.634 65.112 286.495 65.192C286.362 65.2667 286.22 65.4 286.071 65.592C285.922 65.7787 285.746 66.0427 285.543 66.384C285.33 66.7467 285.119 67.048 284.911 67.288C284.708 67.528 284.484 67.7067 284.239 67.824C283.999 67.9413 283.711 68 283.375 68ZM287.975 67.192L288.015 68.112C287.535 68.1387 287.119 68.1333 286.767 68.096C286.415 68.064 286.106 68.0027 285.839 67.912C285.578 67.8213 285.343 67.7067 285.135 67.568C284.932 67.424 284.743 67.2613 284.567 67.08L285.151 66.44C285.348 66.6427 285.57 66.8053 285.815 66.928C286.066 67.0453 286.364 67.1253 286.711 67.168C287.063 67.2107 287.484 67.2187 287.975 67.192ZM283.375 68C283.316 68 283.276 67.9573 283.255 67.872C283.228 67.7867 283.215 67.672 283.215 67.528C283.215 67.3893 283.228 67.28 283.255 67.2C283.276 67.12 283.316 67.08 283.375 67.08V68ZM288.656 69.24C288.912 69.2453 289.118 69.2187 289.272 69.16C289.427 69.1067 289.539 69.0133 289.608 68.88C289.678 68.7467 289.712 68.576 289.712 68.368V64.144H290.52V68.368C290.52 68.736 290.451 69.0507 290.312 69.312C290.174 69.5733 289.976 69.7733 289.72 69.912C289.47 70.0507 289.166 70.1227 288.808 70.128L288.656 69.24Z" fill="#0E395E" fill-opacity="0.45"/>
<path d="M134.622 150V149.31H135.768V150H134.622ZM135.768 150V149.31C135.812 149.31 135.842 149.342 135.858 149.406C135.878 149.466 135.888 149.548 135.888 149.652C135.888 149.756 135.878 149.84 135.858 149.904C135.842 149.968 135.812 150 135.768 150ZM132.774 151.71C132.422 151.71 132.104 151.646 131.82 151.518C131.536 151.39 131.294 151.21 131.094 150.978C130.898 150.75 130.746 150.484 130.638 150.18C130.534 149.876 130.482 149.548 130.482 149.196C130.482 149.028 130.494 148.86 130.518 148.692C130.546 148.52 130.582 148.354 130.626 148.194L131.202 148.308C131.162 148.464 131.132 148.616 131.112 148.764C131.096 148.908 131.088 149.046 131.088 149.178C131.088 149.562 131.16 149.89 131.304 150.162C131.448 150.438 131.646 150.65 131.898 150.798C132.154 150.946 132.446 151.02 132.774 151.02C133.098 151.02 133.386 150.946 133.638 150.798C133.89 150.654 134.088 150.444 134.232 150.168C134.376 149.896 134.448 149.572 134.448 149.196V147.234H135.054V149.196C135.054 149.548 135.002 149.876 134.898 150.18C134.794 150.484 134.642 150.75 134.442 150.978C134.246 151.21 134.006 151.39 133.722 151.518C133.442 151.646 133.126 151.71 132.774 151.71ZM133.884 150C133.572 150 133.3 149.932 133.068 149.796C132.84 149.66 132.662 149.478 132.534 149.25C132.406 149.018 132.342 148.764 132.342 148.488C132.342 148.264 132.382 148.058 132.462 147.87C132.542 147.678 132.654 147.512 132.798 147.372C132.942 147.228 133.108 147.116 133.296 147.036C133.484 146.956 133.686 146.916 133.902 146.916C134.114 146.916 134.32 146.95 134.52 147.018C134.72 147.082 134.898 147.154 135.054 147.234L134.784 147.852C134.456 147.688 134.162 147.606 133.902 147.606C133.722 147.606 133.56 147.646 133.416 147.726C133.272 147.802 133.158 147.906 133.074 148.038C132.99 148.17 132.948 148.32 132.948 148.488C132.948 148.648 132.986 148.79 133.062 148.914C133.142 149.038 133.252 149.136 133.392 149.208C133.532 149.276 133.696 149.31 133.884 149.31H134.748V150H133.884ZM134.328 146.184C134.224 146.184 134.136 146.15 134.064 146.082C133.996 146.01 133.962 145.922 133.962 145.818C133.962 145.71 133.996 145.622 134.064 145.554C134.136 145.486 134.224 145.452 134.328 145.452C134.432 145.452 134.518 145.486 134.586 145.554C134.658 145.622 134.694 145.71 134.694 145.818C134.694 145.922 134.658 146.01 134.586 146.082C134.518 146.15 134.432 146.184 134.328 146.184ZM133.476 146.184C133.372 146.184 133.284 146.15 133.212 146.082C133.144 146.01 133.11 145.922 133.11 145.818C133.11 145.71 133.144 145.622 133.212 145.554C133.284 145.486 133.372 145.452 133.476 145.452C133.58 145.452 133.666 145.486 133.734 145.554C133.806 145.622 133.842 145.71 133.842 145.818C133.842 145.922 133.806 146.01 133.734 146.082C133.666 146.15 133.58 146.184 133.476 146.184ZM135.768 150V149.31C135.98 149.31 136.182 149.304 136.374 149.292C136.57 149.28 136.752 149.262 136.92 149.238C136.94 149.234 136.958 149.246 136.974 149.274C136.99 149.298 137.006 149.322 137.022 149.346C137.042 149.366 137.06 149.376 137.076 149.376C137.384 149.316 137.644 149.236 137.856 149.136C138.068 149.036 138.23 148.92 138.342 148.788C138.454 148.656 138.51 148.51 138.51 148.35C138.51 148.206 138.476 148.078 138.408 147.966C138.34 147.854 138.246 147.766 138.126 147.702C138.006 147.638 137.866 147.606 137.706 147.606C137.55 147.606 137.41 147.638 137.286 147.702C137.166 147.766 137.072 147.854 137.004 147.966C136.936 148.074 136.902 148.2 136.902 148.344C136.902 148.504 136.96 148.654 137.076 148.794C137.196 148.93 137.368 149.048 137.592 149.148C137.816 149.248 138.09 149.326 138.414 149.382C138.434 149.386 138.452 149.376 138.468 149.352C138.484 149.328 138.5 149.304 138.516 149.28C138.536 149.252 138.554 149.24 138.57 149.244C138.73 149.264 138.898 149.28 139.074 149.292C139.254 149.304 139.442 149.31 139.638 149.31V150C139.15 150 138.702 149.966 138.294 149.898C137.886 149.83 137.532 149.728 137.232 149.592C136.936 149.452 136.706 149.274 136.542 149.058C136.378 148.838 136.296 148.578 136.296 148.278C136.296 148.01 136.358 147.774 136.482 147.57C136.61 147.366 136.78 147.206 136.992 147.09C137.208 146.974 137.446 146.916 137.706 146.916C137.966 146.916 138.202 146.974 138.414 147.09C138.626 147.202 138.796 147.362 138.924 147.57C139.052 147.774 139.116 148.012 139.116 148.284C139.116 148.556 139.05 148.79 138.918 148.986C138.79 149.182 138.614 149.346 138.39 149.478C138.17 149.606 137.916 149.71 137.628 149.79C137.34 149.866 137.036 149.92 136.716 149.952C136.4 149.984 136.084 150 135.768 150ZM139.638 150V149.31C139.682 149.31 139.712 149.342 139.728 149.406C139.748 149.466 139.758 149.548 139.758 149.652C139.758 149.756 139.748 149.84 139.728 149.904C139.712 149.968 139.682 150 139.638 150ZM135.768 150C135.724 150 135.694 149.968 135.678 149.904C135.658 149.84 135.648 149.754 135.648 149.646C135.648 149.542 135.658 149.46 135.678 149.4C135.694 149.34 135.724 149.31 135.768 149.31V150ZM138.132 146.184C138.028 146.184 137.94 146.15 137.868 146.082C137.8 146.01 137.766 145.922 137.766 145.818C137.766 145.71 137.8 145.622 137.868 145.554C137.94 145.486 138.028 145.452 138.132 145.452C138.236 145.452 138.322 145.486 138.39 145.554C138.462 145.622 138.498 145.71 138.498 145.818C138.498 145.922 138.462 146.01 138.39 146.082C138.322 146.15 138.236 146.184 138.132 146.184ZM137.28 146.184C137.176 146.184 137.088 146.15 137.016 146.082C136.948 146.01 136.914 145.922 136.914 145.818C136.914 145.71 136.948 145.622 137.016 145.554C137.088 145.486 137.176 145.452 137.28 145.452C137.384 145.452 137.47 145.486 137.538 145.554C137.61 145.622 137.646 145.71 137.646 145.818C137.646 145.922 137.61 146.01 137.538 146.082C137.47 146.15 137.384 146.184 137.28 146.184ZM142.755 150V149.31H143.601V150H142.755ZM139.635 150C139.591 150 139.561 149.968 139.545 149.904C139.525 149.84 139.515 149.754 139.515 149.646C139.515 149.542 139.525 149.46 139.545 149.4C139.561 149.34 139.591 149.31 139.635 149.31V150ZM142.281 150V148.428C142.281 148.244 142.233 148.084 142.137 147.948C142.045 147.808 141.911 147.7 141.735 147.624C141.559 147.544 141.349 147.504 141.105 147.504C140.913 147.504 140.725 147.526 140.541 147.57C140.361 147.614 140.203 147.668 140.067 147.732L139.821 147.186C140.017 147.062 140.225 146.97 140.445 146.91C140.665 146.846 140.889 146.814 141.117 146.814C141.377 146.814 141.615 146.854 141.831 146.934C142.047 147.01 142.233 147.12 142.389 147.264C142.549 147.408 142.671 147.58 142.755 147.78C142.843 147.976 142.887 148.192 142.887 148.428V150H142.281ZM139.635 150V149.31H143.151L143.043 150H139.635ZM143.601 150V149.31C143.645 149.31 143.675 149.342 143.691 149.406C143.711 149.466 143.721 149.548 143.721 149.652C143.721 149.756 143.711 149.84 143.691 149.904C143.675 149.968 143.645 150 143.601 150ZM143.602 150V149.31H143.908C144.08 149.31 144.208 149.298 144.292 149.274C144.376 149.246 144.432 149.196 144.46 149.124C144.488 149.052 144.502 148.948 144.502 148.812V147.108H145.108V148.812C145.108 149.08 145.066 149.302 144.982 149.478C144.898 149.654 144.768 149.786 144.592 149.874C144.416 149.958 144.188 150 143.908 150H143.602ZM145.702 150C145.422 150 145.194 149.958 145.018 149.874C144.842 149.786 144.712 149.654 144.628 149.478C144.544 149.302 144.502 149.08 144.502 148.812H145.108C145.108 148.948 145.122 149.052 145.15 149.124C145.178 149.196 145.234 149.246 145.318 149.274C145.406 149.298 145.534 149.31 145.702 149.31H145.948V150H145.702ZM145.948 150V149.31C145.992 149.31 146.022 149.342 146.038 149.406C146.058 149.466 146.068 149.548 146.068 149.652C146.068 149.756 146.058 149.84 146.038 149.904C146.022 149.968 145.992 150 145.948 150ZM143.602 150C143.558 150 143.528 149.968 143.512 149.904C143.492 149.84 143.482 149.754 143.482 149.646C143.482 149.542 143.492 149.46 143.512 149.4C143.528 149.34 143.558 149.31 143.602 149.31V150ZM145.234 146.376C145.13 146.376 145.042 146.342 144.97 146.274C144.902 146.202 144.868 146.114 144.868 146.01C144.868 145.902 144.902 145.814 144.97 145.746C145.042 145.678 145.13 145.644 145.234 145.644C145.338 145.644 145.424 145.678 145.492 145.746C145.564 145.814 145.6 145.902 145.6 146.01C145.6 146.114 145.564 146.202 145.492 146.274C145.424 146.342 145.338 146.376 145.234 146.376ZM144.382 146.376C144.278 146.376 144.19 146.342 144.118 146.274C144.05 146.202 144.016 146.114 144.016 146.01C144.016 145.902 144.05 145.814 144.118 145.746C144.19 145.678 144.278 145.644 144.382 145.644C144.486 145.644 144.572 145.678 144.64 145.746C144.712 145.814 144.748 145.902 144.748 146.01C144.748 146.114 144.712 146.202 144.64 146.274C144.572 146.342 144.486 146.376 144.382 146.376ZM145.945 150V149.31H146.725V145.08H147.331V150H145.945ZM145.945 150C145.901 150 145.871 149.968 145.855 149.904C145.835 149.84 145.825 149.754 145.825 149.646C145.825 149.542 145.835 149.46 145.855 149.4C145.871 149.34 145.901 149.31 145.945 149.31V150ZM148.171 150V145.08H148.777V150H148.171ZM152.103 150V149.31H152.985V150H152.103ZM150.873 150.93C151.065 150.934 151.219 150.914 151.335 150.87C151.451 150.83 151.535 150.76 151.587 150.66C151.639 150.56 151.665 150.432 151.665 150.276V147.108H152.271V150.276C152.271 150.552 152.219 150.788 152.115 150.984C152.011 151.18 151.863 151.33 151.671 151.434C151.483 151.538 151.255 151.592 150.987 151.596L150.873 150.93ZM152.985 150V149.31C153.029 149.31 153.059 149.342 153.075 149.406C153.095 149.466 153.105 149.548 153.105 149.652C153.105 149.756 153.095 149.84 153.075 149.904C153.059 149.968 153.029 150 152.985 150ZM151.971 146.304C151.859 146.304 151.763 146.266 151.683 146.19C151.607 146.11 151.569 146.014 151.569 145.902C151.569 145.786 151.607 145.69 151.683 145.614C151.763 145.538 151.859 145.5 151.971 145.5C152.087 145.5 152.183 145.538 152.259 145.614C152.335 145.69 152.373 145.786 152.373 145.902C152.373 146.014 152.335 146.11 152.259 146.19C152.183 146.266 152.087 146.304 151.971 146.304ZM152.982 150V149.31C153.174 149.31 153.334 149.272 153.462 149.196C153.59 149.12 153.702 149.016 153.798 148.884C153.898 148.752 153.994 148.604 154.086 148.44C154.178 148.28 154.276 148.122 154.38 147.966C154.484 147.81 154.598 147.668 154.722 147.54C154.846 147.412 154.984 147.31 155.136 147.234C155.288 147.154 155.46 147.114 155.652 147.114C155.864 147.114 156.044 147.16 156.192 147.252C156.344 147.34 156.466 147.46 156.558 147.612C156.65 147.76 156.716 147.926 156.756 148.11C156.8 148.294 156.822 148.48 156.822 148.668C156.822 148.872 156.794 149.104 156.738 149.364C156.682 149.62 156.59 149.86 156.462 150.084L155.934 149.742C156.026 149.582 156.096 149.41 156.144 149.226C156.192 149.042 156.216 148.856 156.216 148.668C156.216 148.372 156.168 148.154 156.072 148.014C155.976 147.874 155.836 147.804 155.652 147.804C155.536 147.804 155.426 147.834 155.322 147.894C155.222 147.95 155.116 148.05 155.004 148.194C154.892 148.334 154.76 148.532 154.608 148.788C154.448 149.06 154.29 149.286 154.134 149.466C153.982 149.646 153.814 149.78 153.63 149.868C153.45 149.956 153.234 150 152.982 150ZM156.432 149.394L156.462 150.084C156.102 150.104 155.79 150.1 155.526 150.072C155.262 150.048 155.03 150.002 154.83 149.934C154.634 149.866 154.458 149.78 154.302 149.676C154.15 149.568 154.008 149.446 153.876 149.31L154.314 148.83C154.462 148.982 154.628 149.104 154.812 149.196C155 149.284 155.224 149.344 155.484 149.376C155.748 149.408 156.064 149.414 156.432 149.394ZM152.982 150C152.938 150 152.908 149.968 152.892 149.904C152.872 149.84 152.862 149.754 152.862 149.646C152.862 149.542 152.872 149.46 152.892 149.4C152.908 149.34 152.938 149.31 152.982 149.31V150ZM156.943 150.93C157.135 150.934 157.289 150.914 157.405 150.87C157.521 150.83 157.605 150.76 157.657 150.66C157.709 150.56 157.735 150.432 157.735 150.276V147.108H158.341V150.276C158.341 150.552 158.289 150.788 158.185 150.984C158.081 151.18 157.933 151.33 157.741 151.434C157.553 151.538 157.325 151.592 157.057 151.596L156.943 150.93ZM164.884 150C164.604 150 164.376 149.958 164.2 149.874C164.024 149.786 163.894 149.654 163.81 149.478C163.726 149.302 163.684 149.08 163.684 148.812H164.29C164.29 148.948 164.304 149.052 164.332 149.124C164.36 149.196 164.416 149.246 164.5 149.274C164.588 149.298 164.716 149.31 164.884 149.31H165.13V150H164.884ZM162.424 151.236C162.128 151.236 161.864 151.182 161.632 151.074C161.404 150.966 161.21 150.816 161.05 150.624C160.89 150.432 160.768 150.21 160.684 149.958C160.6 149.702 160.558 149.426 160.558 149.13C160.558 148.954 160.572 148.776 160.6 148.596C160.628 148.416 160.666 148.244 160.714 148.08L161.29 148.188C161.25 148.356 161.218 148.518 161.194 148.674C161.174 148.826 161.164 148.978 161.164 149.13C161.164 149.426 161.214 149.68 161.314 149.892C161.418 150.104 161.564 150.266 161.752 150.378C161.944 150.49 162.168 150.546 162.424 150.546C162.684 150.546 162.908 150.49 163.096 150.378C163.284 150.266 163.428 150.104 163.528 149.892C163.632 149.68 163.684 149.426 163.684 149.13V145.08H164.29V149.13C164.29 149.426 164.248 149.702 164.164 149.958C164.08 150.21 163.958 150.432 163.798 150.624C163.638 150.816 163.442 150.966 163.21 151.074C162.982 151.182 162.72 151.236 162.424 151.236ZM165.13 150V149.31C165.174 149.31 165.204 149.342 165.22 149.406C165.24 149.466 165.25 149.548 165.25 149.652C165.25 149.756 165.24 149.84 165.22 149.904C165.204 149.968 165.174 150 165.13 150ZM167.775 150V148.428C167.775 148.244 167.727 148.084 167.631 147.948C167.539 147.808 167.405 147.7 167.229 147.624C167.053 147.544 166.843 147.504 166.599 147.504C166.407 147.504 166.219 147.526 166.035 147.57C165.855 147.614 165.697 147.668 165.561 147.732L165.315 147.186C165.511 147.062 165.719 146.97 165.939 146.91C166.159 146.846 166.383 146.814 166.611 146.814C166.871 146.814 167.109 146.854 167.325 146.934C167.541 147.01 167.727 147.12 167.883 147.264C168.043 147.408 168.165 147.58 168.249 147.78C168.337 147.976 168.381 148.192 168.381 148.428V150H167.775ZM165.129 150V149.31H168.645L168.537 150H165.129ZM165.129 150C165.085 150 165.055 149.968 165.039 149.904C165.019 149.84 165.009 149.754 165.009 149.646C165.009 149.542 165.019 149.46 165.039 149.4C165.055 149.34 165.085 149.31 165.129 149.31V150ZM166.611 146.01C166.499 146.01 166.403 145.972 166.323 145.896C166.247 145.816 166.209 145.72 166.209 145.608C166.209 145.492 166.247 145.396 166.323 145.32C166.403 145.244 166.499 145.206 166.611 145.206C166.727 145.206 166.823 145.244 166.899 145.32C166.975 145.396 167.013 145.492 167.013 145.608C167.013 145.72 166.975 145.816 166.899 145.896C166.823 145.972 166.727 146.01 166.611 146.01ZM171.53 150C171.526 149.572 171.45 149.19 171.302 148.854C171.154 148.518 170.942 148.238 170.666 148.014C170.394 147.79 170.066 147.634 169.682 147.546L169.82 146.874C170.292 146.982 170.7 147.182 171.044 147.474C171.388 147.762 171.654 148.122 171.842 148.554C172.034 148.982 172.132 149.464 172.136 150H171.53ZM169.172 150V149.31H172.01V150H169.172ZM172.916 150V145.08H173.522V150H172.916Z" fill="white"/>
<path d="M139.135 189.948C138.839 189.948 138.575 189.894 138.343 189.786C138.115 189.678 137.921 189.528 137.761 189.336C137.601 189.144 137.479 188.922 137.395 188.67C137.311 188.414 137.269 188.138 137.269 187.842C137.269 187.666 137.283 187.488 137.311 187.308C137.339 187.128 137.377 186.956 137.425 186.792L138.001 186.9C137.961 187.068 137.929 187.23 137.905 187.386C137.885 187.538 137.875 187.69 137.875 187.842C137.875 188.138 137.925 188.392 138.025 188.604C138.129 188.816 138.275 188.978 138.463 189.09C138.655 189.202 138.879 189.258 139.135 189.258C139.395 189.258 139.619 189.202 139.807 189.09C139.995 188.978 140.139 188.816 140.239 188.604C140.343 188.392 140.395 188.138 140.395 187.842V183.792H141.001V187.842C141.001 188.138 140.959 188.414 140.875 188.67C140.791 188.922 140.669 189.144 140.509 189.336C140.349 189.528 140.153 189.678 139.921 189.786C139.693 189.894 139.431 189.948 139.135 189.948ZM142.445 188.712V188.022H143.159V188.712H142.445ZM141.839 188.712V183.792H142.445V188.712H141.839ZM143.159 188.712V188.022C143.203 188.022 143.233 188.054 143.249 188.118C143.269 188.178 143.279 188.26 143.279 188.364C143.279 188.468 143.269 188.552 143.249 188.616C143.233 188.68 143.203 188.712 143.159 188.712ZM146.812 188.712C146.68 188.712 146.55 188.688 146.422 188.64C146.298 188.592 146.184 188.516 146.08 188.412C145.976 188.304 145.894 188.168 145.834 188.004L146.236 187.728C146.272 187.832 146.336 187.912 146.428 187.968C146.524 188.024 146.624 188.052 146.728 188.052C146.856 188.052 146.972 188.01 147.076 187.926C147.18 187.838 147.232 187.704 147.232 187.524V185.82H147.838V187.524C147.838 187.792 147.788 188.014 147.688 188.19C147.588 188.366 147.46 188.498 147.304 188.586C147.148 188.67 146.984 188.712 146.812 188.712ZM143.158 188.712V188.022H143.458C143.63 188.022 143.758 188.01 143.842 187.986C143.926 187.958 143.982 187.908 144.01 187.836C144.038 187.764 144.052 187.66 144.052 187.524V186.414H144.658V187.524C144.658 187.792 144.616 188.014 144.532 188.19C144.448 188.366 144.318 188.498 144.142 188.586C143.966 188.67 143.738 188.712 143.458 188.712H143.158ZM145.222 188.712C145.09 188.712 144.96 188.688 144.832 188.64C144.708 188.592 144.594 188.516 144.49 188.412C144.386 188.304 144.304 188.168 144.244 188.004L144.646 187.728C144.682 187.832 144.746 187.912 144.838 187.968C144.934 188.024 145.034 188.052 145.138 188.052C145.266 188.052 145.382 188.01 145.486 187.926C145.59 187.838 145.642 187.704 145.642 187.524V186.114H146.248V187.524C146.248 187.792 146.198 188.014 146.098 188.19C145.998 188.366 145.87 188.498 145.714 188.586C145.558 188.67 145.394 188.712 145.222 188.712ZM143.158 188.712C143.114 188.712 143.084 188.68 143.068 188.616C143.048 188.552 143.038 188.466 143.038 188.358C143.038 188.254 143.048 188.172 143.068 188.112C143.084 188.052 143.114 188.022 143.158 188.022V188.712ZM147.957 189.642C148.149 189.646 148.303 189.626 148.419 189.582C148.535 189.542 148.619 189.472 148.671 189.372C148.723 189.272 148.749 189.144 148.749 188.988V185.82H149.355V188.988C149.355 189.264 149.303 189.5 149.199 189.696C149.095 189.892 148.947 190.042 148.755 190.146C148.567 190.25 148.339 190.304 148.071 190.308L147.957 189.642ZM150.195 188.712V183.792H150.801V188.712H150.195ZM154.372 185.448H154.894C155.674 186.1 156.064 186.746 156.064 187.386C156.064 187.646 156.004 187.876 155.884 188.076C155.764 188.276 155.596 188.432 155.38 188.544C155.168 188.656 154.918 188.712 154.63 188.712C154.346 188.712 154.096 188.656 153.88 188.544C153.664 188.432 153.496 188.276 153.376 188.076C153.256 187.876 153.196 187.648 153.196 187.392C153.196 186.752 153.588 186.104 154.372 185.448ZM154.576 186.138C154.308 186.382 154.112 186.608 153.988 186.816C153.864 187.02 153.802 187.212 153.802 187.392C153.802 187.52 153.834 187.632 153.898 187.728C153.966 187.82 154.062 187.892 154.186 187.944C154.31 187.996 154.458 188.022 154.63 188.022C154.806 188.022 154.954 187.996 155.074 187.944C155.198 187.892 155.292 187.818 155.356 187.722C155.424 187.626 155.458 187.514 155.458 187.386C155.458 187.21 155.396 187.018 155.272 186.81C155.148 186.602 154.954 186.378 154.69 186.138H154.576ZM155.056 184.716C154.952 184.716 154.864 184.682 154.792 184.614C154.724 184.542 154.69 184.454 154.69 184.35C154.69 184.242 154.724 184.154 154.792 184.086C154.864 184.018 154.952 183.984 155.056 183.984C155.16 183.984 155.246 184.018 155.314 184.086C155.386 184.154 155.422 184.242 155.422 184.35C155.422 184.454 155.386 184.542 155.314 184.614C155.246 184.682 155.16 184.716 155.056 184.716ZM154.204 184.716C154.1 184.716 154.012 184.682 153.94 184.614C153.872 184.542 153.838 184.454 153.838 184.35C153.838 184.242 153.872 184.154 153.94 184.086C154.012 184.018 154.1 183.984 154.204 183.984C154.308 183.984 154.394 184.018 154.462 184.086C154.534 184.154 154.57 184.242 154.57 184.35C154.57 184.454 154.534 184.542 154.462 184.614C154.394 184.682 154.308 184.716 154.204 184.716ZM158.963 188.712C158.959 188.284 158.883 187.902 158.735 187.566C158.587 187.23 158.375 186.95 158.099 186.726C157.827 186.502 157.499 186.346 157.115 186.258L157.253 185.586C157.725 185.694 158.133 185.894 158.477 186.186C158.821 186.474 159.087 186.834 159.275 187.266C159.467 187.694 159.565 188.176 159.569 188.712H158.963ZM156.605 188.712V188.022H159.443V188.712H156.605ZM160.955 188.712V188.022H161.669V188.712H160.955ZM160.349 188.712V183.792H160.955V188.712H160.349ZM161.669 188.712V188.022C161.713 188.022 161.743 188.054 161.759 188.118C161.779 188.178 161.789 188.26 161.789 188.364C161.789 188.468 161.779 188.552 161.759 188.616C161.743 188.68 161.713 188.712 161.669 188.712ZM164.056 188.586C163.728 188.586 163.426 188.538 163.15 188.442C162.878 188.346 162.66 188.198 162.496 187.998C162.336 187.798 162.256 187.54 162.256 187.224C162.256 186.96 162.304 186.728 162.4 186.528C162.496 186.328 162.628 186.162 162.796 186.03C162.964 185.894 163.156 185.794 163.372 185.73C163.588 185.662 163.816 185.628 164.056 185.628C164.232 185.628 164.416 185.646 164.608 185.682C164.804 185.718 164.982 185.77 165.142 185.838L164.878 186.42C164.762 186.388 164.626 186.364 164.47 186.348C164.318 186.328 164.182 186.318 164.062 186.318C163.682 186.318 163.386 186.4 163.174 186.564C162.966 186.728 162.862 186.946 162.862 187.218C162.862 187.39 162.906 187.536 162.994 187.656C163.082 187.776 163.214 187.868 163.39 187.932C163.57 187.992 163.792 188.022 164.056 188.022V188.586ZM161.668 188.712V188.022H165.256V188.712H161.668ZM161.668 188.712C161.624 188.712 161.594 188.68 161.578 188.616C161.558 188.552 161.548 188.466 161.548 188.358C161.548 188.254 161.558 188.172 161.578 188.112C161.594 188.052 161.624 188.022 161.668 188.022V188.712ZM165.916 188.712V183.792H166.522V188.712H165.916Z" fill="white"/>
<path d="M145.492 203V202.31H146.374V203H145.492ZM144.262 203.93C144.454 203.934 144.608 203.914 144.724 203.87C144.84 203.83 144.924 203.76 144.976 203.66C145.028 203.56 145.054 203.432 145.054 203.276V200.108H145.66V203.276C145.66 203.552 145.608 203.788 145.504 203.984C145.4 204.18 145.252 204.33 145.06 204.434C144.872 204.538 144.644 204.592 144.376 204.596L144.262 203.93ZM146.374 203V202.31C146.418 202.31 146.448 202.342 146.464 202.406C146.484 202.466 146.494 202.548 146.494 202.652C146.494 202.756 146.484 202.84 146.464 202.904C146.448 202.968 146.418 203 146.374 203ZM150.805 203C150.545 203 150.331 202.958 150.163 202.874C149.995 202.786 149.869 202.654 149.785 202.478C149.705 202.302 149.665 202.08 149.665 201.812V201.668H150.211V201.812C150.211 201.948 150.225 202.052 150.253 202.124C150.281 202.196 150.337 202.246 150.421 202.274C150.509 202.298 150.637 202.31 150.805 202.31H151.051V203H150.805ZM146.371 203C146.327 203 146.297 202.968 146.281 202.904C146.261 202.84 146.251 202.754 146.251 202.646C146.251 202.542 146.261 202.46 146.281 202.4C146.297 202.34 146.327 202.31 146.371 202.31V203ZM146.371 203V202.31C146.563 202.31 146.723 202.272 146.851 202.196C146.979 202.12 147.091 202.016 147.187 201.884C147.287 201.752 147.383 201.604 147.475 201.44C147.567 201.28 147.665 201.122 147.769 200.966C147.873 200.81 147.987 200.668 148.111 200.54C148.235 200.412 148.373 200.31 148.525 200.234C148.677 200.154 148.849 200.114 149.041 200.114C149.253 200.114 149.433 200.16 149.581 200.252C149.733 200.34 149.855 200.46 149.947 200.612C150.039 200.76 150.105 200.926 150.145 201.11C150.189 201.294 150.211 201.48 150.211 201.668C150.211 201.872 150.183 202.104 150.127 202.364C150.071 202.62 149.979 202.86 149.851 203.084L149.323 202.742C149.415 202.582 149.485 202.41 149.533 202.226C149.581 202.042 149.605 201.856 149.605 201.668C149.605 201.372 149.557 201.154 149.461 201.014C149.365 200.874 149.225 200.804 149.041 200.804C148.925 200.804 148.815 200.834 148.711 200.894C148.611 200.95 148.505 201.05 148.393 201.194C148.281 201.334 148.149 201.532 147.997 201.788C147.837 202.06 147.679 202.286 147.523 202.466C147.371 202.646 147.203 202.78 147.019 202.868C146.839 202.956 146.623 203 146.371 203ZM149.821 202.394L149.851 203.084C149.491 203.104 149.179 203.1 148.915 203.072C148.651 203.048 148.419 203.002 148.219 202.934C148.023 202.866 147.847 202.78 147.691 202.676C147.539 202.568 147.397 202.446 147.265 202.31L147.703 201.83C147.851 201.982 148.017 202.104 148.201 202.196C148.389 202.284 148.613 202.344 148.873 202.376C149.137 202.408 149.453 202.414 149.821 202.394ZM151.051 203V202.31C151.095 202.31 151.125 202.342 151.141 202.406C151.161 202.466 151.171 202.548 151.171 202.652C151.171 202.756 151.161 202.84 151.141 202.904C151.125 202.968 151.095 203 151.051 203ZM151.053 203V202.31H151.359C151.531 202.31 151.659 202.298 151.743 202.274C151.827 202.246 151.883 202.196 151.911 202.124C151.939 202.052 151.953 201.948 151.953 201.812V200.108H152.559V201.812C152.559 202.08 152.517 202.302 152.433 202.478C152.349 202.654 152.219 202.786 152.043 202.874C151.867 202.958 151.639 203 151.359 203H151.053ZM153.153 203C152.873 203 152.645 202.958 152.469 202.874C152.293 202.786 152.163 202.654 152.079 202.478C151.995 202.302 151.953 202.08 151.953 201.812H152.559C152.559 201.948 152.573 202.052 152.601 202.124C152.629 202.196 152.685 202.246 152.769 202.274C152.857 202.298 152.985 202.31 153.153 202.31H153.399V203H153.153ZM153.399 203V202.31C153.443 202.31 153.473 202.342 153.489 202.406C153.509 202.466 153.519 202.548 153.519 202.652C153.519 202.756 153.509 202.84 153.489 202.904C153.473 202.968 153.443 203 153.399 203ZM151.053 203C151.009 203 150.979 202.968 150.963 202.904C150.943 202.84 150.933 202.754 150.933 202.646C150.933 202.542 150.943 202.46 150.963 202.4C150.979 202.34 151.009 202.31 151.053 202.31V203ZM152.685 199.376C152.581 199.376 152.493 199.342 152.421 199.274C152.353 199.202 152.319 199.114 152.319 199.01C152.319 198.902 152.353 198.814 152.421 198.746C152.493 198.678 152.581 198.644 152.685 198.644C152.789 198.644 152.875 198.678 152.943 198.746C153.015 198.814 153.051 198.902 153.051 199.01C153.051 199.114 153.015 199.202 152.943 199.274C152.875 199.342 152.789 199.376 152.685 199.376ZM151.833 199.376C151.729 199.376 151.641 199.342 151.569 199.274C151.501 199.202 151.467 199.114 151.467 199.01C151.467 198.902 151.501 198.814 151.569 198.746C151.641 198.678 151.729 198.644 151.833 198.644C151.937 198.644 152.023 198.678 152.091 198.746C152.163 198.814 152.199 198.902 152.199 199.01C152.199 199.114 152.163 199.202 152.091 199.274C152.023 199.342 151.937 199.376 151.833 199.376ZM157.05 203C156.918 203 156.788 202.976 156.66 202.928C156.536 202.88 156.422 202.804 156.318 202.7C156.214 202.592 156.132 202.456 156.072 202.292L156.474 202.016C156.51 202.12 156.574 202.2 156.666 202.256C156.762 202.312 156.862 202.34 156.966 202.34C157.094 202.34 157.21 202.298 157.314 202.214C157.418 202.126 157.47 201.992 157.47 201.812V200.108H158.076V201.812C158.076 202.08 158.026 202.302 157.926 202.478C157.826 202.654 157.698 202.786 157.542 202.874C157.386 202.958 157.222 203 157.05 203ZM153.396 203V202.31H153.696C153.868 202.31 153.996 202.298 154.08 202.274C154.164 202.246 154.22 202.196 154.248 202.124C154.276 202.052 154.29 201.948 154.29 201.812V200.702H154.896V201.812C154.896 202.08 154.854 202.302 154.77 202.478C154.686 202.654 154.556 202.786 154.38 202.874C154.204 202.958 153.976 203 153.696 203H153.396ZM155.46 203C155.328 203 155.198 202.976 155.07 202.928C154.946 202.88 154.832 202.804 154.728 202.7C154.624 202.592 154.542 202.456 154.482 202.292L154.884 202.016C154.92 202.12 154.984 202.2 155.076 202.256C155.172 202.312 155.272 202.34 155.376 202.34C155.504 202.34 155.62 202.298 155.724 202.214C155.828 202.126 155.88 201.992 155.88 201.812V200.402H156.486V201.812C156.486 202.08 156.436 202.302 156.336 202.478C156.236 202.654 156.108 202.786 155.952 202.874C155.796 202.958 155.632 203 155.46 203ZM153.396 203C153.352 203 153.322 202.968 153.306 202.904C153.286 202.84 153.276 202.754 153.276 202.646C153.276 202.542 153.286 202.46 153.306 202.4C153.322 202.34 153.352 202.31 153.396 202.31V203ZM158.916 203V198.08H159.522V203H158.916Z" fill="#0E395E" fill-opacity="0.45"/>
</svg>
