<svg width="41" height="49" viewBox="0 0 41 49" fill="none" xmlns="http://www.w3.org/2000/svg">
<g opacity="0.2">
<path d="M37.3214 41.4797C37.373 41.4075 37.4246 41.3249 37.4865 41.2527C37.7754 40.9534 38.054 40.6336 38.281 40.2724C38.704 39.6121 38.9207 38.8795 38.9414 38.0746C38.962 37.2182 38.8072 36.3927 38.508 35.6085C38.4874 35.5673 38.4667 35.5157 38.4564 35.4744C38.4461 35.4538 38.4358 35.4435 38.4151 35.4125C38.312 35.4435 38.2707 35.5466 38.2191 35.6292C37.7548 36.2896 37.3008 36.9602 36.8364 37.6206C36.7745 37.7032 36.7126 37.796 36.6507 37.8889C36.5578 37.8889 36.465 37.8992 36.3824 37.8889C35.8149 37.8064 35.2474 37.8579 34.6799 37.9405C34.164 38.023 33.6584 38.0746 33.1425 38.1469C32.6472 38.2191 32.1519 38.281 31.6566 38.3532C31.1613 38.4254 30.6661 38.4977 30.1708 38.5596C29.6549 38.6318 29.1286 38.704 28.6127 38.7763C28.1071 38.8485 27.6015 38.9104 27.1062 38.9826C26.6006 39.0549 26.1054 39.1271 25.5998 39.1993C25.1251 39.2612 24.6505 39.3335 24.1758 39.3954C23.825 39.447 23.4742 39.4986 23.1234 39.5501C22.7106 39.6121 22.3082 39.6017 21.9161 39.447C21.297 39.22 20.8946 38.7556 20.6573 38.0953C20.4922 37.6309 20.42 37.1357 20.3374 36.6507C20.2755 36.2999 20.2239 35.9491 20.1723 35.5982C20.162 35.557 20.1517 35.526 20.1414 35.4847C19.904 35.5054 18.5214 36.0626 17.6856 36.5166C16.9014 36.9396 16.1275 37.3936 15.3434 37.8373C15.2711 37.7548 15.3021 37.6619 15.3021 37.5793C15.3433 36.8261 15.3846 36.0729 15.4362 35.3196C15.4569 35.0307 15.3949 34.7728 15.2814 34.5148C14.0123 31.7392 12.7534 28.9739 11.4946 26.1982C11.3502 25.8887 11.216 25.5791 11.0716 25.2593C10.9374 24.96 10.7207 24.764 10.4422 24.6402C9.80241 24.3616 9.17299 24.0727 8.53325 23.7837C8.39911 23.7218 8.2753 23.6496 8.08957 23.6496C8.22371 23.8972 8.39911 24.0623 8.54357 24.2481C8.70866 24.4544 8.87376 24.6505 9.03886 24.8465C9.19363 25.0426 9.35872 25.2283 9.51349 25.4244C9.67858 25.6204 9.84369 25.8268 10.0088 26.0228C10.1636 26.2189 10.3183 26.4046 10.4834 26.611C10.4421 26.6729 10.4112 26.7141 10.3802 26.7554C9.52382 27.5912 8.65708 28.4373 7.80066 29.2731C7.76971 29.2937 7.73874 29.3144 7.69747 29.3556C7.27442 28.912 6.88232 28.4373 6.46959 27.973C6.05685 27.5087 5.65444 27.0443 5.23139 26.5594C4.31306 27.3642 3.41536 28.1794 2.48671 28.9842C2.43512 28.9429 2.38353 28.912 2.35258 28.8707C1.58902 27.9111 0.815143 26.9618 0.0515869 26.0022C0.0309503 25.9816 0.0206367 25.9506 0 25.9093C0.030955 25.868 0.0515879 25.8165 0.0928612 25.7752C0.980237 24.9291 1.87794 24.083 2.76531 23.2369C2.79627 23.2059 2.83754 23.1853 2.89945 23.144C3.69396 24.1036 4.47816 25.0632 5.28299 26.0331C6.16004 25.1767 7.01645 24.3409 7.88319 23.4845C7.82128 23.3607 7.70778 23.3297 7.62524 23.2678C7.11964 22.9067 6.59341 22.5662 6.09813 22.1844C5.31393 21.5756 4.64324 20.843 4.10669 19.966C3.53918 19.0476 3.17805 18.0364 3.06454 16.9221C2.97168 15.9521 3.07486 15.0028 3.35346 14.0639C3.74555 12.7225 4.35433 11.5153 5.11789 10.3906C6.08781 8.98726 7.2641 7.83161 8.59516 6.86169C9.10076 6.49023 9.62699 6.16004 10.1429 5.80922C10.2151 5.75762 10.2977 5.70604 10.3802 5.64413C10.2977 5.53062 10.2048 5.5719 10.1223 5.5719C9.41032 5.5719 8.68804 5.5719 7.97607 5.5719C7.3157 5.58222 6.68628 5.41712 6.08781 5.08694C5.95368 5.01471 5.81953 4.92185 5.70603 4.80834C5.50998 4.62261 5.44807 4.38529 5.55126 4.1067C5.60285 3.9932 5.65444 3.86937 5.71635 3.76619C6.24259 2.89945 6.77914 2.03271 7.3157 1.17629C7.37761 1.07311 7.43951 0.980242 7.50142 0.887377C7.6562 0.650055 7.87287 0.515918 8.14115 0.484963C8.81184 0.402416 9.49286 0.319869 10.1636 0.227004C11.1644 0.103185 12.1653 0.0515938 13.1765 0.0103205C13.5686 2.20446e-06 13.9607 0.0103183 14.3425 0C14.456 0 14.5592 6.30396e-07 14.6727 0.113502C14.1051 1.10406 13.4138 1.99144 12.6193 2.83754C12.7638 2.89945 12.8876 2.90977 13.0011 2.92009C14.0226 2.99232 15.0441 3.05423 16.0759 3.03359C16.9427 3.01295 17.8197 2.982 18.6865 2.95104C19.3365 2.93041 19.9866 2.89945 20.647 2.87881C20.7089 2.87881 20.7708 2.88913 20.8533 2.89945C20.8224 2.98199 20.8017 3.04391 20.7708 3.0955C20.2549 3.85905 19.739 4.61229 19.2334 5.37585C19.0889 5.59253 18.8929 5.66477 18.6762 5.69572C18.0261 5.75763 17.3761 5.81954 16.726 5.89176C16.0244 5.96399 15.3227 6.03622 14.6211 6.12909C14.1671 6.191 13.7543 6.39737 13.3416 6.61405C13.29 6.64501 13.2487 6.70691 13.2075 6.74819C13.1765 6.94423 13.259 7.09901 13.321 7.24347C13.6821 8.18244 14.0432 9.11109 14.4044 10.0397C15.7251 13.4551 17.0356 16.8808 18.3769 20.2961C18.8206 21.4415 19.3262 22.5455 19.8009 23.6702C19.904 23.9076 19.9969 24.1346 20.1001 24.3719C20.1207 24.4235 20.1517 24.4648 20.193 24.506C20.2136 24.3616 20.1517 24.2481 20.1104 24.1242C19.8421 23.4123 19.5636 22.69 19.2953 21.978C19.1611 21.6375 19.0373 21.297 18.9135 20.9565C18.8619 20.8327 18.8309 20.6986 18.7897 20.5747C18.9548 20.3168 20.3787 18.8722 20.5851 18.7587C20.7398 19.058 20.9049 19.3572 21.0597 19.6564C21.2248 19.9556 21.3796 20.2549 21.555 20.5747C21.6169 20.5232 21.6788 20.4922 21.7304 20.4406C22.1122 20.0898 22.4939 19.7286 22.8757 19.3778C22.9479 19.3159 23.0202 19.254 23.1027 19.1818C23.3504 19.481 23.5464 19.8009 23.8147 20.1414C23.8044 20.0382 23.8044 19.9866 23.7941 19.9453C23.7322 19.5532 23.6702 19.1611 23.5877 18.7794C23.5051 18.3563 23.5774 18.0055 23.8456 17.6753C24.6505 16.7157 25.5275 15.8386 26.4975 15.0751C26.7348 14.8893 26.9721 14.8481 27.261 14.9409C28.7675 15.4569 30.2327 16.1069 31.5844 17.0046C32.9258 17.9023 34.1124 19.0064 35.0617 20.389C35.3609 20.8224 35.6292 21.2867 35.8459 21.782C36.0006 22.1328 36.0935 22.5043 36.1038 22.8964C36.1245 23.4432 35.98 23.9385 35.6808 24.3719C35.5157 24.6092 35.33 24.8362 35.1236 25.0219C34.2053 25.8784 33.1425 26.4459 31.9662 26.7554C31.6876 26.8277 31.3883 26.807 31.0994 26.7657C28.9429 26.4459 26.9411 25.641 25.0426 24.4854C24.4132 24.1036 23.8044 23.6909 23.1956 23.2885C23.1027 23.2266 23.0305 23.1337 22.886 23.175C22.948 23.5361 23.2162 23.8457 23.1337 24.2584C23.113 24.2997 23.0821 24.3513 23.0511 24.3925C22.4424 25.218 21.751 25.9403 20.9152 26.4871C20.7295 26.611 20.5851 26.7554 20.4922 26.9824C19.966 28.3032 19.0786 29.2731 17.9848 30.0366C17.8817 30.1089 17.7888 30.2017 17.6237 30.2327C17.6547 30.1398 17.6753 30.0779 17.7062 30.0263C17.9952 29.5001 18.1602 28.9223 18.2015 28.3135C18.2325 27.7563 18.1396 27.2301 17.9436 26.7141C17.2522 24.9704 16.5712 23.2369 15.8799 21.4931C14.1361 17.0872 12.3923 12.6709 10.6485 8.26498C10.5969 8.14116 10.5453 8.01734 10.4834 7.8832C10.4112 7.89352 10.3493 7.90384 10.2977 7.92448C9.94687 8.05861 9.60636 8.23403 9.29681 8.44039C7.82129 9.44127 6.58309 10.6898 5.66476 12.3098C5.22107 13.1043 4.84961 13.9297 4.66388 14.8378C4.31306 16.4887 4.60197 18.0158 5.4584 19.4088C6.17036 20.5541 7.07838 21.4621 8.12053 22.2257C8.65708 22.6178 9.22458 22.948 9.82304 23.2266C9.90559 23.2678 9.98814 23.2988 10.081 23.3297C10.1016 23.3401 10.1326 23.3401 10.1842 23.3401C10.1532 23.2575 10.1429 23.1853 10.112 23.1131C9.78177 22.3805 9.45158 21.6582 9.11108 20.9256C9.03885 20.7708 8.96663 20.6057 8.8944 20.4406C8.79122 20.2239 8.82217 20.0279 8.95631 19.8318C9.42063 19.1611 9.88495 18.4801 10.3493 17.8094C10.4628 17.6443 10.5763 17.4792 10.7001 17.3142C10.7311 17.2729 10.762 17.2522 10.8136 17.2006C10.8652 17.3038 10.9168 17.3864 10.9477 17.4689C11.5668 18.8722 12.1859 20.2755 12.805 21.6788C13.2487 22.6797 13.6924 23.6806 14.1361 24.6814C14.2599 24.96 14.4457 25.1354 14.7242 25.2077C15.2195 25.3418 15.7045 25.476 16.1998 25.6204C16.2926 25.6514 16.3855 25.6823 16.4784 25.7133C16.4784 25.7339 16.4784 25.7545 16.4784 25.7752C16.4165 25.7855 16.3545 25.8061 16.2823 25.8061C15.8386 25.8061 15.3949 25.8061 14.9513 25.8061C14.8584 25.8061 14.7758 25.8165 14.6623 25.8165C14.6933 25.9093 14.7139 25.9712 14.7346 26.0331C15.7767 28.396 16.8189 30.7589 17.861 33.1115C17.9333 33.2766 17.9952 33.4417 18.2325 33.483C19.5119 32.9774 20.8327 32.4511 22.1638 31.9662C22.236 32.09 22.1844 32.1932 22.1741 32.2964C22.009 33.1218 21.8439 33.9473 21.6994 34.7728C21.6272 35.1958 21.6066 35.6395 21.5653 36.0729C21.555 36.1554 21.5653 36.2276 21.5653 36.3102C21.5963 36.692 21.7407 36.888 22.0915 36.9499C23.2472 37.146 24.4028 37.115 25.5482 36.8055C26.1054 36.6507 26.6729 36.4959 27.2301 36.3308C27.292 36.3102 27.3436 36.2792 27.4364 36.238C27.3642 36.1967 27.3229 36.1554 27.292 36.1451C26.7142 36.0935 26.1363 36.0626 25.5585 36.011C24.9394 35.9594 24.31 35.8975 23.6909 35.8459C23.3401 35.8149 22.9892 35.7943 22.6281 35.7736C22.5352 35.7633 22.432 35.753 22.3082 35.7427C22.3495 35.6498 22.3701 35.5879 22.4011 35.5363C22.8448 34.9069 23.2885 34.2775 23.7218 33.6377C23.825 33.483 23.9591 33.4107 24.1346 33.4107C24.4957 33.4107 24.8568 33.4107 25.218 33.4107C25.2593 33.2972 25.187 33.225 25.1561 33.1528C24.5576 32.0074 23.9591 30.8621 23.3607 29.7168C22.917 28.8604 22.4733 28.0143 22.0193 27.1578C21.9368 26.9927 21.8748 26.838 21.9264 26.6522C22.1122 26.384 24.0004 24.5163 24.2377 24.3719C24.2893 24.4648 24.3409 24.5576 24.3822 24.6505C25.672 27.2713 26.9618 29.9025 28.2413 32.5234C28.3754 32.7916 28.5095 33.0702 28.6333 33.3385C28.7469 33.5862 28.9223 33.7306 29.1905 33.7409C29.6652 33.7719 30.1502 33.8132 30.6248 33.8544C31.2645 33.906 31.9043 33.9576 32.5543 34.0092C32.8432 34.0298 33.1321 34.0608 33.4211 34.0814C34.3187 34.1433 35.2164 34.2053 36.1038 34.2775C36.6507 34.3188 37.2079 34.3807 37.7548 34.4323C37.8064 34.4323 37.8579 34.4219 37.9508 34.4219C37.8889 34.3497 37.8579 34.3084 37.8167 34.2775C37.4039 33.9473 36.9603 33.6893 36.4959 33.452C34.8244 32.5956 33.1012 31.9043 31.3574 31.2645C30.0263 30.7693 28.6953 30.2946 27.3642 29.82C27.2713 29.789 27.1888 29.7477 27.065 29.6961C27.6118 28.6953 28.1381 27.7357 28.6849 26.7554C29.0564 26.8689 29.3969 26.9927 29.7477 27.0959C30.9137 27.4468 32.0281 27.942 33.1528 28.427C34.36 28.9532 35.5776 29.4898 36.7642 30.0573C37.9405 30.6248 38.9723 31.4296 39.8494 32.4615C40.2518 32.9258 40.5923 33.4417 40.7987 34.0505C41.0257 34.7212 41.0566 35.4125 40.9122 36.1038C40.7368 36.919 40.5201 37.7135 40.2105 38.477C40.0351 38.9104 39.8081 39.3231 39.5501 39.7049C39.0136 40.4994 38.3016 41.0463 37.4762 41.4384C37.3936 41.4797 37.3523 41.4694 37.3214 41.4797ZM32.5646 24.764C32.7504 24.764 32.9464 24.7743 33.1321 24.764C34.2568 24.7227 34.9585 23.3401 34.3291 22.3289C33.9782 21.7717 33.5758 21.2867 33.1012 20.8637C31.5431 19.5016 29.8096 18.4801 27.973 17.665C27.4364 17.4277 26.8792 17.3038 26.3014 17.3348C25.6514 17.3657 25.2593 17.8094 25.2386 18.5111C25.2283 19.2127 25.3624 19.8731 25.5894 20.5128C26.0228 21.6994 26.7141 22.6797 27.5396 23.5671C27.7976 23.8457 28.1174 24.052 28.4786 24.1449C29.8303 24.5267 31.182 24.7537 32.5646 24.764ZM8.6674 2.56926C9.627 2.92008 10.5866 3.04391 11.5668 2.67245C10.6072 2.2494 9.64764 2.23907 8.6674 2.56926Z" fill="#479696"/>
<path d="M11.8137 31.0891C11.7518 31.2851 11.8137 31.4193 11.8653 31.5534C12.051 32.0074 12.2367 32.4614 12.4328 32.9051C12.5772 33.2559 12.7114 33.6171 12.7733 33.9988C12.9487 34.9481 12.8455 35.8768 12.505 36.7745C12.0613 37.9198 11.3597 38.8175 10.3794 39.4366C9.93575 39.7152 9.45077 39.8596 8.94517 39.9422C8.23321 40.0557 7.53157 39.9525 6.84024 39.8081C5.73618 39.5811 4.65275 39.2509 3.62092 38.735C3.15659 38.4976 2.69228 38.2293 2.24859 37.9508C1.71204 37.6102 1.25802 37.1459 0.865929 36.6197C0.597652 36.2585 0.463515 35.8458 0.504789 35.3712C0.535744 35.0823 0.618288 34.814 0.752426 34.556C1.06198 33.9679 1.47472 33.4932 1.95968 33.0805C2.59941 32.5336 3.32169 32.1312 4.06461 31.7804C5.11708 31.2851 6.21082 30.9446 7.3252 30.6557C7.54189 30.5938 7.76889 30.5422 7.98557 30.4803C8.24353 30.4081 8.44989 30.2739 8.62531 30.0572C8.99677 29.5929 9.36823 29.1389 9.73969 28.6746C9.8016 28.592 9.87383 28.5095 9.93574 28.4373C10.1111 28.4373 10.2143 28.5508 10.2969 28.6849C10.5652 29.077 10.8334 29.4588 11.1017 29.8509C11.1636 29.9334 11.2255 30.0263 11.2874 30.1088C11.4732 30.3461 11.6898 30.4596 11.9788 30.4287C12.1748 30.4081 12.3709 30.4287 12.6185 30.4287C12.5566 30.5009 12.5256 30.5422 12.4844 30.5731C12.3296 30.6763 12.1748 30.7795 12.02 30.893C11.9581 30.9549 11.8756 31.0375 11.8137 31.0891ZM7.62443 31.7598C6.96405 31.7804 6.30369 31.8733 5.65364 32.0074C4.73531 32.2035 3.84793 32.5233 3.02246 32.998C2.41368 33.3488 1.86681 33.7822 1.44376 34.3909C1.34058 34.5354 1.24771 34.7005 1.17548 34.8759C0.989752 35.3196 1.0723 35.7323 1.36121 36.0935C1.42312 36.176 1.50567 36.2482 1.5779 36.3205C1.90808 36.5887 2.24859 36.8261 2.64068 36.9705C4.59085 37.7341 6.60292 38.1262 8.66659 38.2397C8.73882 38.2397 8.81104 38.2397 8.88326 38.2294C9.25472 38.1778 9.61587 38.1262 9.98733 38.0643C10.3072 38.0023 10.6271 37.9404 10.9366 37.8373C11.6899 37.5896 11.9065 37.0427 11.5867 36.2482C11.5041 36.0522 11.4009 35.8561 11.2978 35.6704C10.5858 34.3497 9.66746 33.2146 8.64595 32.1828C8.18162 31.6875 8.27448 31.7288 7.62443 31.7598Z" fill="#479696"/>
<path d="M18.1083 36.8054C18.9647 37.7238 19.8314 38.6524 20.7085 39.5914C20.564 39.8287 20.368 39.9731 20.2029 40.1589C20.0275 40.3446 19.8521 40.5303 19.6663 40.7161C19.4909 40.8915 19.3258 41.0669 19.1504 41.2526C18.975 41.4384 18.7893 41.6241 18.6139 41.8098C18.4384 41.9852 18.2733 42.1606 18.1083 42.336C18.1186 42.4805 18.2011 42.5527 18.2733 42.625C18.8924 43.4091 19.5219 44.2037 20.1513 44.9879C20.2132 45.0704 20.2751 45.153 20.337 45.2252C20.2029 45.4315 17.8297 47.877 17.5304 48.1349C17.4892 48.0937 17.4376 48.0627 17.3963 48.0111C16.6327 47.0618 15.8795 46.1126 15.1159 45.1633C15.0747 45.1117 15.0437 45.0498 15.0024 44.9775C15.1056 44.8744 15.1882 44.7815 15.281 44.6886C15.9311 44.0695 16.5915 43.4607 17.2415 42.852C17.3757 42.7281 17.5304 42.6043 17.582 42.3876C17.5717 42.1916 17.4479 42.0575 17.3344 41.913C16.8907 41.3558 16.4367 40.7883 15.993 40.2311C15.7969 39.9938 15.6112 39.7565 15.4255 39.5088C15.3842 39.4469 15.3429 39.385 15.3017 39.3231C15.4771 39.0858 17.8916 36.9292 18.1083 36.8054Z" fill="#479696"/>
<path d="M17.9122 15.0958C18.8409 14.1981 19.7592 13.3107 20.6776 12.4233C20.8633 12.5781 23.0611 15.2299 23.2468 15.5292C23.0404 15.7768 22.7928 15.9832 22.5555 16.2205C22.3182 16.4578 22.0808 16.6848 21.8435 16.9118C21.6165 17.1388 21.3792 17.3555 21.1522 17.5825C20.9149 17.8095 20.6776 18.0365 20.4505 18.2635C20.2648 18.1087 18.1496 15.4776 17.9122 15.0958Z" fill="#479696"/>
</g>
</svg>
