<svg width="21" height="21" viewBox="0 0 21 21" fill="none" xmlns="http://www.w3.org/2000/svg">
<path d="M18.2262 7.00874L12.495 2.42374C11.375 1.53124 9.62497 1.52249 8.51372 2.41499L2.78247 7.00874C1.95997 7.66499 1.46122 8.97749 1.63622 10.01L2.73872 16.6075C2.99247 18.0862 4.36622 19.25 5.86247 19.25H15.1375C16.6162 19.25 18.0162 18.06 18.27 16.5987L19.3725 10.0012C19.53 8.97749 19.0312 7.66499 18.2262 7.00874ZM11.1562 15.75C11.1562 16.1087 10.8587 16.4062 10.5 16.4062C10.1412 16.4062 9.84372 16.1087 9.84372 15.75V13.125C9.84372 12.7662 10.1412 12.4687 10.5 12.4687C10.8587 12.4687 11.1562 12.7662 11.1562 13.125V15.75Z" fill="url(#paint0_linear_423_185)"/>
<defs>
<linearGradient id="paint0_linear_423_185" x1="1.60132" y1="2.65514" x2="17.887" y2="19.5269" gradientUnits="userSpaceOnUse">
<stop stop-color="#3E7FB7"/>
<stop offset="1" stop-color="#0E395E"/>
</linearGradient>
</defs>
</svg>
