<svg width="18" height="18" viewBox="0 0 18 18" fill="none" xmlns="http://www.w3.org/2000/svg">
<path d="M0.774644 8.1364L0.774353 8.13468C0.713634 7.77644 0.766416 7.32693 0.934737 6.88553C1.10303 6.44421 1.36318 6.073 1.64891 5.84503L1.65022 5.84398L7.38146 1.25023L7.38204 1.24977C8.21468 0.581036 9.57502 0.582444 10.4257 1.25989C10.4259 1.26003 10.4261 1.26017 10.4262 1.26031L16.1534 5.84201C16.4319 6.06995 16.6891 6.44194 16.8584 6.88491C17.0274 7.32728 17.0843 7.77671 17.0305 8.13295L15.9297 14.7204C15.9296 14.7212 15.9295 14.7219 15.9293 14.7226C15.7361 15.8282 14.6448 16.75 13.5361 16.75H4.26115C3.13318 16.75 2.06994 15.8527 1.87685 14.7322C1.87677 14.7317 1.87668 14.7312 1.87659 14.7307L0.774644 8.1364Z" stroke="url(#paint0_linear_428_806)" stroke-width="1.5"/>
<defs>
<linearGradient id="paint0_linear_428_806" x1="8.90007" y1="0" x2="8.90007" y2="17.5" gradientUnits="userSpaceOnUse">
<stop stop-color="#3E7FB7"/>
<stop offset="1" stop-color="#0E395E"/>
</linearGradient>
</defs>
</svg>
