<svg width="20" height="20" viewBox="0 0 20 20" fill="none" xmlns="http://www.w3.org/2000/svg">
<path d="M16.9384 3.24976H3.0627C2.51573 3.25004 1.99124 3.46745 1.60447 3.85422C1.2177 4.24099 1.00029 4.76548 1 5.31246L1 14.6876C1.00029 15.2346 1.2177 15.7591 1.60447 16.1458C1.99124 16.5326 2.51573 16.75 3.0627 16.7503H16.9384C17.4852 16.7497 18.0094 16.5322 18.3959 16.1454C18.7825 15.7587 18.9997 15.2344 19 14.6876V5.31246C18.9997 4.76567 18.7825 4.24134 18.3959 3.85461C18.0094 3.46787 17.4852 3.25033 16.9384 3.24976ZM6.62162 6.24976C6.99252 6.24911 7.35527 6.35851 7.66397 6.5641C7.97268 6.7697 8.21345 7.06224 8.35583 7.40472C8.49821 7.7472 8.5358 8.12422 8.46383 8.48807C8.39187 8.85192 8.21359 9.18625 7.95155 9.44874C7.68951 9.71123 7.3555 9.89009 6.99177 9.96269C6.62805 10.0353 6.25097 9.99835 5.90824 9.85656C5.56551 9.71477 5.27255 9.4745 5.06642 9.16616C4.8603 8.85781 4.75027 8.49525 4.75027 8.12435C4.75112 7.628 4.94846 7.15218 5.29912 6.8009C5.64979 6.44962 6.12527 6.25147 6.62162 6.24976ZM9.99676 13.1871C9.99647 13.3361 9.93715 13.4789 9.83179 13.5842C9.72643 13.6896 9.5836 13.7489 9.4346 13.7492H3.81081C3.6618 13.7489 3.51898 13.6896 3.41362 13.5842C3.30825 13.4789 3.24893 13.3361 3.24865 13.1871V12.8119C3.24922 12.2649 3.46691 11.7406 3.85388 11.354C4.24085 10.9674 4.76546 10.7503 5.31243 10.7503H7.9373C8.48427 10.7506 9.00876 10.968 9.39553 11.3548C9.7823 11.7415 9.99971 12.266 10 12.813L9.99676 13.1871ZM16.1849 13.7492H12.0627C11.9135 13.7492 11.7703 13.6899 11.6648 13.5844C11.5593 13.4789 11.5 13.3358 11.5 13.1865C11.5 13.0373 11.5593 12.8941 11.6648 12.7886C11.7703 12.6831 11.9135 12.6238 12.0627 12.6238H16.1881C16.3373 12.6238 16.4805 12.6831 16.586 12.7886C16.6915 12.8941 16.7508 13.0373 16.7508 13.1865C16.7508 13.3358 16.6915 13.4789 16.586 13.5844C16.4805 13.6899 16.3373 13.7492 16.1881 13.7492H16.1849ZM16.1849 10.7492H12.0627C11.9135 10.7492 11.7703 10.6899 11.6648 10.5844C11.5593 10.4789 11.5 10.3358 11.5 10.1865C11.5 10.0373 11.5593 9.89415 11.6648 9.78862C11.7703 9.68309 11.9135 9.62381 12.0627 9.62381H16.1881C16.3373 9.62381 16.4805 9.68309 16.586 9.78862C16.6915 9.89415 16.7508 10.0373 16.7508 10.1865C16.7508 10.3358 16.6915 10.4789 16.586 10.5844C16.4805 10.6899 16.3373 10.7492 16.1881 10.7492H16.1849ZM16.1849 7.74922H12.0627C11.9135 7.74922 11.7703 7.68993 11.6648 7.5844C11.5593 7.47888 11.5 7.33575 11.5 7.18651C11.5 7.03727 11.5593 6.89415 11.6648 6.78862C11.7703 6.68309 11.9135 6.62381 12.0627 6.62381H16.1881C16.3373 6.62381 16.4805 6.68309 16.586 6.78862C16.6915 6.89415 16.7508 7.03727 16.7508 7.18651C16.7508 7.33575 16.6915 7.47888 16.586 7.5844C16.4805 7.68993 16.3373 7.74922 16.1881 7.74922H16.1849Z" fill="#0E395E"/>
</svg>
