<svg width="17" height="13" viewBox="0 0 17 13" fill="none" xmlns="http://www.w3.org/2000/svg">
<g clip-path="url(#clip0_450_694)">
<path d="M14.743 0H1.908C1.40205 0.000264966 0.916895 0.201371 0.559133 0.559133C0.201371 0.916895 0.000264966 1.40205 0 1.908L0 10.58C0.000264966 11.086 0.201371 11.5711 0.559133 11.9289C0.916895 12.2866 1.40205 12.4877 1.908 12.488H14.743C15.2488 12.4875 15.7337 12.2862 16.0912 11.9285C16.4488 11.5708 16.6497 11.0858 16.65 10.58V1.908C16.6497 1.40222 16.4488 0.917219 16.0912 0.559486C15.7337 0.201753 15.2488 0.000529819 14.743 0ZM5.2 2.775C5.54308 2.77441 5.87863 2.8756 6.16418 3.06577C6.44972 3.25595 6.67244 3.52655 6.80414 3.84335C6.93585 4.16014 6.97061 4.50888 6.90405 4.84544C6.83748 5.182 6.67257 5.49125 6.43018 5.73406C6.1878 5.97686 5.87884 6.14231 5.54239 6.20946C5.20595 6.27661 4.85714 6.24245 4.54012 6.11129C4.2231 5.98014 3.95211 5.75789 3.76144 5.47267C3.57077 5.18745 3.469 4.85208 3.469 4.509C3.46979 4.04988 3.65232 3.60974 3.97669 3.28481C4.30106 2.95988 4.74088 2.77659 5.2 2.775ZM8.322 9.192C8.32174 9.32983 8.26687 9.46194 8.1694 9.5594C8.07194 9.65687 7.93983 9.71174 7.802 9.712H2.6C2.46217 9.71174 2.33006 9.65687 2.2326 9.5594C2.13513 9.46194 2.08026 9.32983 2.08 9.192V8.845C2.08053 8.33905 2.28189 7.854 2.63984 7.49643C2.99779 7.13885 3.48305 6.938 3.989 6.938H6.417C6.92295 6.93826 7.40811 7.13937 7.76587 7.49713C8.12363 7.8549 8.32473 8.34005 8.325 8.846L8.322 9.192ZM14.046 9.712H10.233C10.095 9.712 9.96256 9.65716 9.86495 9.55955C9.76734 9.46194 9.7125 9.32955 9.7125 9.1915C9.7125 9.05345 9.76734 8.92106 9.86495 8.82345C9.96256 8.72584 10.095 8.671 10.233 8.671H14.049C14.187 8.671 14.3194 8.72584 14.417 8.82345C14.5147 8.92106 14.5695 9.05345 14.5695 9.1915C14.5695 9.32955 14.5147 9.46194 14.417 9.55955C14.3194 9.65716 14.187 9.712 14.049 9.712H14.046ZM14.046 6.937H10.233C10.095 6.937 9.96256 6.88216 9.86495 6.78455C9.76734 6.68694 9.7125 6.55455 9.7125 6.4165C9.7125 6.27845 9.76734 6.14606 9.86495 6.04845C9.96256 5.95084 10.095 5.896 10.233 5.896H14.049C14.187 5.896 14.3194 5.95084 14.417 6.04845C14.5147 6.14606 14.5695 6.27845 14.5695 6.4165C14.5695 6.55455 14.5147 6.68694 14.417 6.78455C14.3194 6.88216 14.187 6.937 14.049 6.937H14.046ZM14.046 4.162H10.233C10.095 4.162 9.96256 4.10716 9.86495 4.00955C9.76734 3.91194 9.7125 3.77955 9.7125 3.6415C9.7125 3.50345 9.76734 3.37106 9.86495 3.27345C9.96256 3.17584 10.095 3.121 10.233 3.121H14.049C14.187 3.121 14.3194 3.17584 14.417 3.27345C14.5147 3.37106 14.5695 3.50345 14.5695 3.6415C14.5695 3.77955 14.5147 3.91194 14.417 4.00955C14.3194 4.10716 14.187 4.162 14.049 4.162H14.046Z" fill="#0E395E"/>
</g>
<defs>
<clipPath id="clip0_450_694">
<rect width="16.65" height="12.488" fill="white"/>
</clipPath>
</defs>
</svg>
