<svg width="18" height="18" viewBox="0 0 18 18" fill="none" xmlns="http://www.w3.org/2000/svg">
<g clip-path="url(#clip0_1_281)">
<path d="M7.68755 8.4375H0.5625C0.251999 8.4375 0 8.1855 0 7.875C0 7.5645 0.251999 7.3125 0.5625 7.3125H7.68755C7.99805 7.3125 8.25005 7.5645 8.25005 7.875C8.25005 8.1855 7.99805 8.4375 7.68755 8.4375Z" fill="white"/>
<path d="M4.87486 11.2499C4.7308 11.2499 4.58688 11.1951 4.47729 11.085C4.25757 10.8651 4.25757 10.5089 4.47729 10.2892L6.89236 7.87425L4.47729 5.46001C4.25757 5.24014 4.25757 4.88391 4.47729 4.66418C4.69702 4.44446 5.05325 4.44446 5.27312 4.66418L8.08562 7.47668C8.30534 7.69641 8.30534 8.05264 8.08562 8.27251L5.27312 11.085C5.16284 11.1951 5.01878 11.2499 4.87486 11.2499Z" fill="white"/>
<path d="M11.9999 18C11.1726 18 10.5 17.3272 10.5 16.5V2.99997C10.5 2.35878 10.908 1.78653 11.5154 1.57573L16.0215 0.0734873C17.0294 -0.235503 18 0.512254 18 1.50006V15.0001C18 15.6406 17.5919 16.212 16.9852 16.4235L12.4777 17.9265C12.3134 17.9775 12.1613 18 11.9999 18ZM16.4999 1.12502C16.4512 1.12502 16.41 1.13106 16.3657 1.14452L11.8785 2.64072C11.7314 2.6918 11.625 2.84026 11.625 2.99997V16.5C11.625 16.7558 11.9024 16.9283 12.1342 16.8555L16.6214 15.3593C16.7677 15.3082 16.875 15.1598 16.875 15.0001V1.50006C16.875 1.29379 16.707 1.12502 16.4999 1.12502Z" fill="white"/>
<path d="M6.5625 3.75005C6.252 3.75005 6 3.49805 6 3.18755V2.06255C6 0.924774 6.92464 0 8.06241 0H16.4999C16.8104 0 17.0624 0.251999 17.0624 0.5625C17.0624 0.873001 16.8104 1.125 16.4999 1.125H8.06241C7.54564 1.125 7.125 1.54578 7.125 2.06255V3.18755C7.125 3.49805 6.873 3.75005 6.5625 3.75005Z" fill="white"/>
<path d="M11.0625 15.75H8.06241C6.92464 15.75 6 14.8253 6 13.6875V12.5625C6 12.252 6.252 12 6.5625 12C6.873 12 7.125 12.252 7.125 12.5625V13.6875C7.125 14.2043 7.54564 14.625 8.06241 14.625H11.0625C11.373 14.625 11.625 14.877 11.625 15.1875C11.625 15.498 11.373 15.75 11.0625 15.75Z" fill="white"/>
</g>
<defs>
<clipPath id="clip0_1_281">
<rect width="18" height="18" fill="white"/>
</clipPath>
</defs>
</svg>
