<svg width="10" height="14" viewBox="0 0 10 14" fill="none" xmlns="http://www.w3.org/2000/svg">
<g clip-path="url(#clip0_450_696)">
<path d="M4.863 4.11306e-07C3.57325 4.11306e-07 2.33633 0.512351 1.42434 1.42434C0.51235 2.33633 0 3.57325 0 4.863C0 7.432 4.333 12.863 4.519 13.1C4.56041 13.1517 4.61292 13.1934 4.67263 13.2221C4.73235 13.2508 4.79775 13.2657 4.864 13.2657C4.93025 13.2657 4.99565 13.2508 5.05537 13.2221C5.11508 13.1934 5.16759 13.1517 5.209 13.1C5.395 12.866 9.728 7.432 9.728 4.863C9.728 4.22421 9.60215 3.59169 9.35763 3.00155C9.11312 2.41141 8.75474 1.87523 8.30295 1.42363C7.85117 0.972035 7.31484 0.613871 6.7246 0.3696C6.13437 0.125329 5.50179 -0.000262302 4.863 4.11306e-07ZM4.863 6.19C4.51312 6.19 4.17111 6.08625 3.8802 5.89187C3.58929 5.69749 3.36255 5.42121 3.22866 5.09797C3.09477 4.77472 3.05973 4.41904 3.12799 4.07589C3.19625 3.73273 3.36473 3.41753 3.61213 3.17013C3.85953 2.92273 4.17473 2.75425 4.51789 2.68599C4.86104 2.61773 5.21672 2.65277 5.53997 2.78666C5.86321 2.92055 6.13949 3.14729 6.33387 3.4382C6.52825 3.72911 6.632 4.07113 6.632 4.421C6.632 4.65331 6.58624 4.88334 6.49734 5.09797C6.40844 5.31259 6.27814 5.50761 6.11387 5.67187C5.9496 5.83614 5.75459 5.96644 5.53997 6.05534C5.32534 6.14424 5.09531 6.19 4.863 6.19Z" fill="#0E395E"/>
</g>
<defs>
<clipPath id="clip0_450_696">
<rect width="9.727" height="13.266" fill="white"/>
</clipPath>
</defs>
</svg>
