<svg width="20" height="20" viewBox="0 0 20 20" fill="none" xmlns="http://www.w3.org/2000/svg">
<path d="M9.99842 1C8.24838 1 6.57003 1.6952 5.33256 2.93266C4.0951 4.17012 3.3999 5.84848 3.3999 7.59852C3.3999 11.0843 9.27927 18.4536 9.53165 18.7752C9.58784 18.8453 9.65909 18.902 9.74012 18.9409C9.82115 18.9798 9.90989 19 9.99978 19C10.0897 19 10.1784 18.9798 10.2594 18.9409C10.3405 18.902 10.4117 18.8453 10.4679 18.7752C10.7203 18.4576 16.5997 11.0843 16.5997 7.59852C16.5997 6.73176 16.4289 5.87349 16.0971 5.07275C15.7653 4.272 15.279 3.54447 14.666 2.9317C14.053 2.31894 13.3253 1.83295 12.5244 1.5015C11.7235 1.17006 10.8652 0.999644 9.99842 1ZM9.99842 9.3991C9.52368 9.3991 9.0596 9.25832 8.66487 8.99457C8.27014 8.73082 7.96248 8.35594 7.78081 7.91734C7.59913 7.47874 7.5516 6.99611 7.64422 6.5305C7.73683 6.06488 7.96544 5.63718 8.30114 5.30149C8.63683 4.9658 9.06452 4.73719 9.53014 4.64457C9.99576 4.55196 10.4784 4.59949 10.917 4.78117C11.3556 4.96284 11.7305 5.2705 11.9942 5.66523C12.258 6.05996 12.3987 6.52404 12.3987 6.99878C12.3987 7.31399 12.3367 7.62612 12.216 7.91734C12.0954 8.20856 11.9186 8.47317 11.6957 8.69606C11.4728 8.91895 11.2082 9.09576 10.917 9.21639C10.6258 9.33702 10.3136 9.3991 9.99842 9.3991Z" fill="#0E395E"/>
</svg>
