<svg width="14" height="10" viewBox="0 0 14 10" fill="none" xmlns="http://www.w3.org/2000/svg">
<path d="M7.012 5.67038C7.16242 5.66173 7.30927 5.62484 7.44344 5.562C7.5776 5.49916 7.6962 5.41172 7.79186 5.30511L13.3084 0.308188C12.9311 0.0630611 12.4684 -0.046335 12.0086 0.000873328H1.80049C1.40258 -0.0382249 1.00341 0.0635671 0.684906 0.285359L6.23215 5.30424C6.32779 5.41092 6.44637 5.49847 6.58053 5.56146C6.71468 5.62444 6.86155 5.66152 7.012 5.67038ZM0.158287 9.06576L4.64078 5.00922L0.145817 0.954425C0.0288213 1.22123 -0.0210133 1.50874 1.39945e-05 1.79559V8.20528C-0.0248527 8.49964 0.029491 8.79509 0.158287 9.06576ZM13.8437 9.05961C13.9663 8.78801 14.0185 8.49407 13.9962 8.20089V1.7912C14.0154 1.5104 13.9679 1.22913 13.8571 0.966718L9.37459 5.0057L13.8437 9.05961ZM1.99042 9.99824H12.1986C12.5936 10.0364 12.9898 9.93701 13.3084 9.7199L8.7367 5.57731L8.31848 5.96628C8.15261 6.13458 7.95149 6.27066 7.72706 6.36644C7.50263 6.46221 7.25947 6.51574 7.012 6.52383C6.76426 6.5171 6.52062 6.46418 6.29599 6.36831C6.07135 6.27245 5.87044 6.13565 5.70553 5.96628L5.28059 5.57731L0.722316 9.71551C1.09703 9.94021 1.5448 10.04 1.99042 9.99824Z" fill="#0E395E"/>
</svg>
