<svg width="20" height="20" viewBox="0 0 20 20" fill="none" xmlns="http://www.w3.org/2000/svg">
<g clip-path="url(#clip0_888_52)">
<path d="M10.0156 11.2905C10.209 11.2794 10.3978 11.2319 10.5703 11.1511C10.7428 11.0703 10.8953 10.9579 11.0183 10.8209L18.111 4.39624C17.6259 4.08108 17.0311 3.94042 16.4399 4.00112H3.31513C2.80353 3.95085 2.29031 4.08173 1.8808 4.36689L9.01297 10.8197C9.13594 10.9569 9.2884 11.0695 9.46089 11.1504C9.63337 11.2314 9.8222 11.2791 10.0156 11.2905ZM1.20372 15.656L6.96693 10.4404L1.18769 5.22712C1.03727 5.57015 0.973192 5.9398 1.00023 6.30861V14.5496C0.968256 14.9281 1.03813 15.308 1.20372 15.656ZM18.7992 15.6481C18.9569 15.2989 19.024 14.921 18.9953 14.544V6.30297C19.02 5.94194 18.959 5.58031 18.8165 5.24292L13.0533 10.4359L18.7992 15.6481ZM3.55932 16.8549H16.6841C17.192 16.9039 17.7014 16.7762 18.111 16.497L12.2331 11.1708L11.6954 11.6709C11.4821 11.8873 11.2236 12.0623 10.935 12.1854C10.6465 12.3086 10.3338 12.3774 10.0156 12.3878C9.69712 12.3791 9.38387 12.3111 9.09505 12.1878C8.80623 12.0646 8.54791 11.8887 8.33589 11.6709L7.78954 11.1708L1.9289 16.4914C2.41067 16.7803 2.98638 16.9086 3.55932 16.8549Z" fill="#0E395E"/>
</g>
<defs>
<clipPath id="clip0_888_52">
<rect width="18" height="12.8571" fill="white" transform="translate(1 4)"/>
</clipPath>
</defs>
</svg>
