<svg width="258" height="258" viewBox="0 0 258 258" fill="none" xmlns="http://www.w3.org/2000/svg">
<g clip-path="url(#clip0_137_8)">
<path d="M131.308 168.419C154.436 168.419 173.184 149.671 173.184 126.543C173.184 103.416 154.436 84.6674 131.308 84.6674C108.181 84.6674 89.4324 103.416 89.4324 126.543C89.4324 149.671 108.181 168.419 131.308 168.419Z" fill="#FFB6B6"/>
<path d="M107.269 174.612L105.377 155.488L143.156 148.424L165.464 202.74L126.667 247.356L99.0244 193.04L107.269 174.612Z" fill="#FFB6B6"/>
<path d="M104.77 165.061L113.029 166.927C113.029 166.927 106.537 146.338 108.74 144.372C110.944 142.407 116.345 145.504 116.345 145.504L122.02 151.866L128.932 144.828C128.932 144.828 136.437 135.497 139.376 132.876C142.314 130.255 137.594 120.527 137.594 120.527C137.594 120.527 181.188 108.772 164.967 87.6273C164.967 87.6273 155.456 71.0491 152.359 76.4496C149.262 81.85 145.569 73.273 145.569 73.273L134.292 75.4175C134.292 75.4175 112.035 62.2942 90.9102 90.3687C69.7857 118.443 104.77 165.061 104.77 165.061Z" fill="#2F2E41"/>
<path d="M210.066 229.363C187.181 247.918 158.869 258 129 258C101.726 258 75.7463 249.591 54.0151 234.004C54.0539 233.597 54.0927 233.194 54.1267 232.792C54.7038 226.487 55.2179 220.357 55.5573 215.275C56.8716 195.542 102.909 182.39 102.909 182.39C102.909 182.39 103.118 182.598 103.535 182.962C106.076 185.193 116.391 193.282 134.48 195.542C150.61 197.559 155.92 187.991 157.526 183.408C158.01 182.011 158.156 181.075 158.156 181.075L205.508 203.437C208.597 207.85 209.804 217.355 210.042 228.039C210.052 228.48 210.062 228.917 210.066 229.363Z" fill="#D2D6D9"/>
</g>
<defs>
<clipPath id="clip0_137_8">
<rect width="258" height="258" fill="white"/>
</clipPath>
</defs>
</svg>
