<svg width="17" height="10" viewBox="0 0 17 10" fill="none" xmlns="http://www.w3.org/2000/svg">
<g id="Group 2609961">
<g id="Group">
<g id="Group_2">
<path id="Vector" d="M8.5 2.50024C7.12069 2.50024 6 3.62093 6 5.00024C6 6.37955 7.12069 7.50024 8.5 7.50024C9.87931 7.50024 11 6.37955 11 5.00024C11 3.62093 9.87931 2.50024 8.5 2.50024ZM8.31035 4.25886C8 4.25886 7.74138 4.51749 7.74138 4.82783H6.91379C6.93103 4.05197 7.55172 3.43128 8.31035 3.43128V4.25886Z" fill="white"/>
</g>
</g>
<g id="Group_3">
<g id="Group_4">
<path id="Vector_2" d="M16.0861 4.48276C15.2413 3.43103 12.224 0 8.49991 0C4.77577 0 1.75853 3.43103 0.913701 4.48276C0.672321 4.77586 0.672321 5.2069 0.913701 5.51724C1.75853 6.56897 4.77577 10 8.49991 10C12.224 10 15.2413 6.56897 16.0861 5.51724C16.3275 5.22414 16.3275 4.7931 16.0861 4.48276ZM8.49991 8.62069C6.49991 8.62069 4.87922 7 4.87922 5C4.87922 3 6.49991 1.37931 8.49991 1.37931C10.4999 1.37931 12.1206 3 12.1206 5C12.1206 7 10.4999 8.62069 8.49991 8.62069Z" fill="white"/>
</g>
</g>
</g>
</svg>
