<svg width="22" height="22" viewBox="0 0 22 22" fill="none" xmlns="http://www.w3.org/2000/svg">
<path d="M20.8146 10.352L14.3979 3.9353C14.225 3.76832 13.9935 3.67592 13.7531 3.67801C13.5128 3.6801 13.2829 3.77651 13.1129 3.94646C12.943 4.11642 12.8466 4.34633 12.8445 4.58668C12.8424 4.82703 12.9348 5.05858 13.1018 5.23146L17.9537 10.0834H1.83317C1.59006 10.0834 1.3569 10.18 1.18499 10.3519C1.01308 10.5238 0.916504 10.7569 0.916504 11C0.916504 11.2432 1.01308 11.4763 1.18499 11.6482C1.3569 11.8201 1.59006 11.9167 1.83317 11.9167H17.9537L13.1018 16.7686C13.0142 16.8532 12.9444 16.9543 12.8963 17.0662C12.8483 17.178 12.823 17.2983 12.8219 17.42C12.8209 17.5417 12.8441 17.6624 12.8902 17.7751C12.9363 17.8877 13.0043 17.9901 13.0904 18.0762C13.1765 18.1622 13.2788 18.2303 13.3915 18.2764C13.5041 18.3225 13.6248 18.3457 13.7465 18.3446C13.8683 18.3436 13.9885 18.3183 14.1004 18.2702C14.2122 18.2222 14.3134 18.1523 14.3979 18.0648L20.8146 11.6481C20.9864 11.4762 21.083 11.2431 21.083 11C21.083 10.757 20.9864 10.5239 20.8146 10.352Z" fill="#0E395E"/>
</svg>
