<svg width="125" height="122" viewBox="0 0 125 122" fill="none" xmlns="http://www.w3.org/2000/svg">
<g opacity="0.7" clip-path="url(#clip0_364_828)">
<path d="M79.355 27.4374H45.673C44.9054 27.4384 44.1696 27.7436 43.6268 28.2863C43.0841 28.829 42.7788 29.5647 42.7778 30.3322V105.181L42.3918 105.299L34.1291 107.829C33.7375 107.949 33.3145 107.908 32.953 107.716C32.5915 107.523 32.321 107.196 32.2009 106.804L7.62304 26.5323C7.50343 26.1408 7.5442 25.7178 7.73638 25.3562C7.92856 24.9947 8.25643 24.7243 8.64793 24.6044L21.3808 20.7061L58.2939 9.40877L71.0267 5.51047C71.2205 5.45084 71.4241 5.43001 71.6259 5.44915C71.8278 5.4683 72.0238 5.52706 72.2029 5.62206C72.382 5.71706 72.5406 5.84645 72.6697 6.00281C72.7987 6.15917 72.8956 6.33944 72.9549 6.53329L79.2373 27.0514L79.355 27.4374Z" fill="#F2F2F2"/>
<path d="M86.7048 27.0518L79.133 2.32273C79.0071 1.9107 78.8011 1.52752 78.527 1.1951C78.2528 0.86268 77.9159 0.587529 77.5354 0.385369C77.1548 0.183209 76.7382 0.0580011 76.3092 0.0169052C75.8803 -0.0241907 75.4474 0.0196305 75.0354 0.14586L57.1338 5.6247L20.2227 16.924L2.32107 22.4047C1.48946 22.6601 0.793135 23.2349 0.384947 24.003C-0.0232416 24.7711 -0.109947 25.6698 0.143867 26.5018L26.0226 111.016C26.2288 111.687 26.6448 112.275 27.2097 112.693C27.7745 113.111 28.4584 113.337 29.161 113.337C29.4862 113.337 29.8095 113.289 30.1202 113.193L42.3918 109.437L42.7778 109.317V108.914L42.3918 109.032L30.0064 112.824C29.2723 113.048 28.4795 112.971 27.8018 112.611C27.124 112.251 26.6168 111.637 26.3913 110.904L0.514525 26.388C0.40279 26.0245 0.363847 25.6427 0.399925 25.2642C0.436004 24.8857 0.546392 24.5181 0.724775 24.1823C0.903158 23.8466 1.14603 23.5493 1.43948 23.3075C1.73294 23.0657 2.0712 22.8842 2.43491 22.7733L20.3366 17.2926L57.2477 5.99524L75.1494 0.514465C75.4253 0.430285 75.7121 0.387363 76.0005 0.387094C76.6195 0.388484 77.2218 0.588022 77.7192 0.956482C78.2166 1.32494 78.5829 1.84296 78.7645 2.43466L86.3014 27.0518L86.4211 27.4378H86.8226L86.7048 27.0518Z" fill="#3F3D56"/>
<path d="M23.6783 24.6675C23.3063 24.6672 22.9442 24.5478 22.6451 24.3266C22.346 24.1055 22.1256 23.7944 22.0163 23.4388L19.5302 15.3196C19.4634 15.1015 19.4403 14.8724 19.462 14.6453C19.4838 14.4183 19.5501 14.1977 19.6571 13.9963C19.7641 13.7949 19.9098 13.6165 20.0858 13.4713C20.2618 13.3262 20.4646 13.2171 20.6827 13.1504L54.6407 2.75551C55.0812 2.6211 55.557 2.66694 55.9638 2.88297C56.3705 3.09899 56.675 3.46756 56.8102 3.90776L59.2963 12.0271C59.4306 12.4675 59.3847 12.9433 59.1687 13.35C58.9526 13.7567 58.5841 14.061 58.1439 14.1964L24.1858 24.5913C24.0214 24.6417 23.8504 24.6674 23.6783 24.6675Z" fill="#E4E4E4"/>
<path d="M36.701 8.67557C38.8329 8.67557 40.5612 6.94753 40.5612 4.81588C40.5612 2.68422 38.8329 0.956177 36.701 0.956177C34.5691 0.956177 32.8408 2.68422 32.8408 4.81588C32.8408 6.94753 34.5691 8.67557 36.701 8.67557Z" fill="#E4E4E4"/>
<path d="M36.7012 7.25999C38.0512 7.25999 39.1456 6.16574 39.1456 4.81591C39.1456 3.46608 38.0512 2.37183 36.7012 2.37183C35.3512 2.37183 34.2568 3.46608 34.2568 4.81591C34.2568 6.16574 35.3512 7.25999 36.7012 7.25999Z" fill="white"/>
<path d="M116.314 112.351H51.0771C50.6421 112.35 50.2251 112.177 49.9176 111.87C49.61 111.562 49.437 111.145 49.4365 110.71V32.5515C49.437 32.1166 49.61 31.6996 49.9176 31.3921C50.2251 31.0846 50.6421 30.9116 51.0771 30.9111H116.314C116.749 30.9116 117.166 31.0846 117.474 31.3921C117.781 31.6997 117.954 32.1166 117.955 32.5515V110.71C117.954 111.145 117.781 111.562 117.474 111.87C117.166 112.177 116.749 112.35 116.314 112.351Z" fill="#F2F2F2"/>
<path d="M86.3013 27.0514H45.6728C44.8029 27.0526 43.9691 27.3987 43.354 28.0137C42.7389 28.6287 42.3928 29.4624 42.3916 30.3321V109.031L42.7776 108.914V30.3321C42.7786 29.5647 43.0839 28.8289 43.6266 28.2863C44.1694 27.7436 44.9052 27.4383 45.6728 27.4374H86.421L86.3013 27.0514ZM121.719 27.0514H45.6728C44.8029 27.0526 43.9691 27.3987 43.354 28.0137C42.7389 28.6287 42.3928 29.4624 42.3916 30.3321V118.719C42.3928 119.589 42.7389 120.423 43.354 121.038C43.9691 121.653 44.8029 121.999 45.6728 122H121.719C122.588 121.999 123.422 121.653 124.037 121.038C124.652 120.423 124.998 119.589 125 118.719V30.3321C124.998 29.4624 124.652 28.6287 124.037 28.0137C123.422 27.3987 122.588 27.0526 121.719 27.0514ZM124.614 118.719C124.613 119.487 124.307 120.222 123.765 120.765C123.222 121.308 122.486 121.613 121.719 121.614H45.6728C44.9052 121.613 44.1694 121.308 43.6266 120.765C43.0839 120.222 42.7786 119.487 42.7776 118.719V30.3321C42.7786 29.5647 43.0839 28.8289 43.6266 28.2863C44.1694 27.7436 44.9052 27.4383 45.6728 27.4374H121.719C122.486 27.4383 123.222 27.7436 123.765 28.2863C124.307 28.8289 124.613 29.5647 124.614 30.3321V118.719Z" fill="#3F3D56"/>
<path d="M101.453 35.5428H65.9392C65.4787 35.5423 65.0372 35.3591 64.7115 35.0335C64.3858 34.7079 64.2027 34.2664 64.2021 33.806V25.3146C64.2027 24.8541 64.3859 24.4127 64.7115 24.087C65.0372 23.7614 65.4787 23.5783 65.9392 23.5778H101.453C101.914 23.5783 102.355 23.7614 102.681 24.087C103.006 24.4127 103.19 24.8541 103.19 25.3146V33.806C103.19 34.2664 103.006 34.7079 102.681 35.0335C102.355 35.3591 101.914 35.5423 101.453 35.5428Z" fill="#E4E4E4"/>
<path d="M83.6961 24.1567C85.8281 24.1567 87.5563 22.4286 87.5563 20.297C87.5563 18.1653 85.8281 16.4373 83.6961 16.4373C81.5642 16.4373 79.8359 18.1653 79.8359 20.297C79.8359 22.4286 81.5642 24.1567 83.6961 24.1567Z" fill="#E4E4E4"/>
<path d="M83.6959 22.6479C84.9945 22.6479 86.0472 21.5953 86.0472 20.297C86.0472 18.9986 84.9945 17.946 83.6959 17.946C82.3974 17.946 81.3447 18.9986 81.3447 20.297C81.3447 21.5953 82.3974 22.6479 83.6959 22.6479Z" fill="white"/>
</g>
<defs>
<clipPath id="clip0_364_828">
<rect width="125" height="122" fill="white"/>
</clipPath>
</defs>
</svg>
