<svg width="18" height="18" viewBox="0 0 18 18" fill="none" xmlns="http://www.w3.org/2000/svg">
<path d="M15.7179 12.4144L15.3799 11.8519C14.9417 11.1217 14.7099 10.2859 14.7099 9.43424V6.32924C14.7099 3.18037 12.1489 0.618744 8.99999 0.618744C5.85112 0.618744 3.29006 3.18037 3.29006 6.32868V9.43368C3.29006 10.2853 3.0583 11.1212 2.62012 11.8513L2.28205 12.4144C2.00924 12.8694 2.00193 13.4162 2.26349 13.8786C2.52506 14.3404 2.99755 14.616 3.52855 14.616H14.472C15.0024 14.616 15.4755 14.3404 15.7371 13.8786C15.9981 13.4167 15.9907 12.8694 15.7179 12.4144ZM14.8556 13.3796C14.8174 13.4471 14.7037 13.6035 14.472 13.6035H3.52799C3.29568 13.6035 3.18262 13.4471 3.14437 13.3796C3.10612 13.3127 3.03074 13.1344 3.14999 12.9358L3.48806 12.3733C4.02074 11.4857 4.30256 10.4698 4.30256 9.43424V6.32924C4.30199 3.73837 6.40968 1.63124 8.99999 1.63124C11.5903 1.63124 13.698 3.73893 13.698 6.32924V9.43424C13.698 10.4692 13.9792 11.4857 14.5125 12.3733L14.8506 12.9358C14.9692 13.1344 14.8939 13.3127 14.8556 13.3796Z" fill="url(#paint0_linear_428_790)" stroke="url(#paint1_linear_428_790)" stroke-width="0.5"/>
<path d="M10.7364 15.6139C10.3668 16.0864 9.71767 16.3688 8.99992 16.3688C8.28217 16.3688 7.63304 16.0864 7.26348 15.6139C7.09079 15.3939 6.77242 15.3551 6.55248 15.5273C6.33254 15.6994 6.29373 16.0178 6.46586 16.2383C7.02554 16.9538 7.97336 17.3813 8.99992 17.3813C10.0265 17.3813 10.9743 16.9538 11.534 16.2377C11.7061 16.0172 11.6673 15.6988 11.4474 15.5267C11.2274 15.3551 10.909 15.3945 10.7364 15.6139Z" fill="url(#paint2_linear_428_790)" stroke="url(#paint3_linear_428_790)" stroke-width="0.5"/>
<defs>
<linearGradient id="paint0_linear_428_790" x1="9.00003" y1="0.618744" x2="9.00003" y2="14.616" gradientUnits="userSpaceOnUse">
<stop stop-color="#3E7FB7"/>
<stop offset="1" stop-color="#0E395E"/>
</linearGradient>
<linearGradient id="paint1_linear_428_790" x1="9.00003" y1="0.618744" x2="9.00003" y2="14.616" gradientUnits="userSpaceOnUse">
<stop stop-color="#3E7FB7"/>
<stop offset="1" stop-color="#0E395E"/>
</linearGradient>
<linearGradient id="paint2_linear_428_790" x1="11.8596" y1="17.1611" x2="11.2871" y2="14.7625" gradientUnits="userSpaceOnUse">
<stop stop-color="#0E395E"/>
<stop offset="1" stop-color="#3E7FB7"/>
</linearGradient>
<linearGradient id="paint3_linear_428_790" x1="8.99992" y1="15.4198" x2="8.99992" y2="17.3813" gradientUnits="userSpaceOnUse">
<stop stop-color="#0E395E"/>
<stop offset="1" stop-color="#3E7FB7"/>
</linearGradient>
</defs>
</svg>
