<svg width="18" height="18" viewBox="0 0 18 18" fill="none" xmlns="http://www.w3.org/2000/svg">
<path d="M15.2836 12.6748L14.9456 12.1117C14.4601 11.3029 14.2036 10.377 14.2036 9.43369V6.32869C14.2042 3.45487 11.8737 1.125 8.99994 1.125C6.12612 1.125 3.79569 3.45487 3.79569 6.32925V9.43425C3.79569 10.3776 3.53919 11.3034 3.05375 12.1123L2.71569 12.6754C2.33656 13.3065 2.79162 14.1097 3.52794 14.1097H14.4714C15.2083 14.1092 15.6628 13.3059 15.2836 12.6748Z" fill="url(#paint0_linear_568_545)"/>
<path d="M10.7364 15.6139C10.3668 16.0864 9.71767 16.3688 8.99992 16.3688C8.28217 16.3688 7.63304 16.0864 7.26348 15.6139C7.09079 15.3939 6.77242 15.3551 6.55248 15.5273C6.33254 15.6994 6.29373 16.0178 6.46586 16.2383C7.02554 16.9538 7.97336 17.3813 8.99992 17.3813C10.0265 17.3813 10.9743 16.9538 11.534 16.2377C11.7061 16.0172 11.6673 15.6988 11.4474 15.5267C11.2274 15.3551 10.909 15.3945 10.7364 15.6139Z" fill="url(#paint1_linear_568_545)"/>
<defs>
<linearGradient id="paint0_linear_568_545" x1="8.99969" y1="1.125" x2="8.99969" y2="14.1097" gradientUnits="userSpaceOnUse">
<stop stop-color="#3E7FB7"/>
<stop offset="1" stop-color="#0E395E"/>
</linearGradient>
<linearGradient id="paint1_linear_568_545" x1="8.99992" y1="15.4198" x2="8.99992" y2="17.3813" gradientUnits="userSpaceOnUse">
<stop stop-color="#3E7FB7"/>
<stop offset="1" stop-color="#0E395E"/>
</linearGradient>
</defs>
</svg>
