<svg width="223" height="232" viewBox="0 0 223 232" fill="none" xmlns="http://www.w3.org/2000/svg">
<g clip-path="url(#clip0_394_53)">
<path fill-rule="evenodd" clip-rule="evenodd" d="M111.5 211.668C161.848 211.668 202.662 171.029 202.662 120.897C202.662 70.7654 161.848 30.1257 111.5 30.1257C61.1522 30.1257 20.3374 70.7654 20.3374 120.897C20.3374 171.029 61.1522 211.668 111.5 211.668Z" stroke="#3AD29F" stroke-width="0.305962" stroke-dasharray="1.84 1.84"/>
<path fill-rule="evenodd" clip-rule="evenodd" d="M111.5 230.923C172.527 230.923 222 181.663 222 120.897C222 60.1314 172.527 10.8712 111.5 10.8712C50.4725 10.8712 1 60.1314 1 120.897C1 181.663 50.4725 230.923 111.5 230.923Z" stroke="#3AD29F" stroke-width="0.305962" stroke-dasharray="1.84 1.84"/>
<path d="M185.455 155.949C185.458 143.14 175.67 132.432 162.862 131.232C150.053 130.033 138.432 138.736 136.037 151.322L59.4268 149.253L60.2678 162.358C60.2678 162.358 49.3436 187.456 106.758 194.143V219.511H173.131V177.334C180.758 172.887 185.448 164.75 185.455 155.949Z" fill="url(#paint0_linear_394_53)"/>
<path d="M62.8985 162.908C62.8985 162.908 52.4378 186.943 107.421 193.355V217.658H170.986V153.296L62.082 150.356L62.8985 162.908Z" fill="#FFCBB4"/>
<path d="M94.6674 62.6107C91.217 68.032 84.0173 69.661 78.5528 66.2569L44.4237 43.8636C38.979 40.428 37.343 33.2592 40.7618 27.8181C44.2117 22.4043 51.4022 20.7761 56.8641 24.172L90.9933 46.5653C96.4422 49.9968 98.084 57.1665 94.6674 62.6107Z" fill="url(#paint1_linear_394_53)"/>
<path d="M92.7766 61.3882C89.5694 66.4274 82.8772 67.9417 77.7977 64.7776L46.0628 43.9461C41.0019 40.7527 39.481 34.0892 42.6587 29.0315C45.8659 23.9923 52.5582 22.478 57.6376 25.6421L89.3665 46.4614C94.437 49.6533 95.9615 56.3265 92.7766 61.3882Z" fill="#FFCBB4"/>
<path d="M158.92 180.537C172.104 180.537 182.791 169.895 182.791 156.768C182.791 143.641 172.104 133 158.92 133C145.736 133 135.049 143.641 135.049 156.768C135.049 169.895 145.736 180.537 158.92 180.537Z" fill="#FFCBB4"/>
<path d="M154.622 0H63.1775C61.1009 0 59.4175 1.67622 59.4175 3.74393V174.119C59.4175 176.187 61.1009 177.863 63.1775 177.863H154.622C156.699 177.863 158.383 176.187 158.383 174.119V3.74393C158.383 1.67622 156.699 0 154.622 0Z" fill="url(#paint2_linear_394_53)"/>
<path d="M152.855 2.40527H64.9397C62.6274 2.40527 60.7529 4.27169 60.7529 6.57403V171.295C60.7529 173.597 62.6274 175.464 64.9397 175.464H152.855C155.167 175.464 157.041 173.597 157.041 171.295V6.57403C157.041 4.27169 155.167 2.40527 152.855 2.40527Z" fill="white"/>
<path d="M133.087 6.74524C132.512 10.5375 129.244 13.3447 125.392 13.356H92.1379C88.2872 13.3432 85.0212 10.5363 84.4458 6.74524H66.8272C65.8572 6.74524 64.9265 7.12757 64.2403 7.8103C63.554 8.49302 63.1685 9.41934 63.1685 10.3853V167.478C63.1685 168.444 63.5524 169.37 64.2381 170.053C64.9238 170.737 65.8541 171.121 66.8242 171.121H150.97C151.94 171.121 152.871 170.738 153.557 170.056C154.243 169.373 154.629 168.447 154.629 167.481V10.3883C154.629 9.42239 154.245 8.49576 153.559 7.81246C152.873 7.12916 151.943 6.74524 150.973 6.74524H133.087Z" fill="#E9ECFF"/>
<path d="M119.149 8.81433H98.9186C98.5795 8.81433 98.3047 9.088 98.3047 9.42559V9.53867C98.3047 9.87625 98.5795 10.1499 98.9186 10.1499H119.149C119.488 10.1499 119.763 9.87625 119.763 9.53867V9.42559C119.763 9.088 119.488 8.81433 119.149 8.81433Z" fill="#DBDBDB"/>
<path d="M124.321 10.3448C124.874 10.3448 125.321 9.89902 125.321 9.3491C125.321 8.79919 124.874 8.35339 124.321 8.35339C123.769 8.35339 123.321 8.79919 123.321 9.3491C123.321 9.89902 123.769 10.3448 124.321 10.3448Z" fill="#DBDBDB"/>
<path d="M174.35 160.962C167.422 162.557 162.667 158.058 161.065 151.163L145.147 92.3086C143.563 85.3869 147.889 78.4906 154.831 76.8714C161.783 75.2943 168.709 79.6019 170.335 86.5139L183.325 146.887C184.927 153.785 181.274 159.366 174.35 160.962Z" fill="url(#paint3_linear_394_53)"/>
<path d="M168.549 87.9546C167.198 82.1344 161.365 78.5063 155.519 79.8511C149.674 81.1959 146.03 87.0043 147.381 92.8245L162.018 155.904C163.369 161.724 169.202 165.352 175.048 164.007C180.893 162.662 184.537 156.854 183.186 151.034L168.549 87.9546Z" fill="#FFCBB4"/>
<path d="M182.69 209.706H91.834V230.794H182.69V209.706Z" fill="url(#paint4_linear_394_53)"/>
<path d="M180.234 212.151H94.2896V228.655H180.234V212.151Z" fill="#4D8AF0"/>
<path d="M81.4192 125.747C78.0108 131.104 70.8971 132.714 65.498 129.351L42.6092 114.604C37.2293 111.21 35.6123 104.127 38.9903 98.7511C42.3988 93.3943 49.5124 91.7843 54.9115 95.1478L77.8004 109.894C83.1803 113.288 84.7972 120.371 81.4192 125.747Z" fill="url(#paint5_linear_394_53)"/>
<path d="M75.6736 156.961C72.2348 162.367 65.0563 163.992 59.6081 160.598L45.4304 150.304C40.0011 146.88 38.369 139.733 41.7777 134.308C45.2165 128.902 52.3949 127.277 57.8432 130.671L72.0209 140.967C77.4484 144.391 79.0802 151.537 75.6736 156.961Z" fill="url(#paint6_linear_394_53)"/>
<g opacity="0.5">
<path d="M108.897 116.422C124.144 116.422 136.504 104.116 136.504 88.9344C136.504 73.7531 124.144 61.4463 108.897 61.4463C93.6504 61.4463 81.2905 73.7531 81.2905 88.9344C81.2905 104.116 93.6504 116.422 108.897 116.422Z" fill="url(#paint7_linear_394_53)"/>
</g>
<path d="M108.897 114.806C123.247 114.806 134.88 103.223 134.88 88.9344C134.88 74.6461 123.247 63.0631 108.897 63.0631C94.547 63.0631 82.9141 74.6461 82.9141 88.9344C82.9141 103.223 94.547 114.806 108.897 114.806Z" fill="#0E395E"/>
<path d="M97.62 85.4808L107.362 94.3746L121.166 74.1635L126.04 78.2069L107.362 102.461L93.5591 87.1006L97.62 85.4808Z" fill="white"/>
<path d="M74.5285 156.194C71.3213 161.233 64.6291 162.747 59.5496 159.583L46.3264 149.999C41.2655 146.805 39.7447 140.142 42.9224 135.084C46.1296 130.045 52.8218 128.531 57.9013 131.695L71.1214 141.298C76.1722 144.489 77.6931 151.139 74.5285 156.194Z" fill="#FFCBB4"/>
<path d="M80.1609 124.937C76.9536 129.976 70.2614 131.491 65.182 128.327L43.6467 114.451C38.5858 111.258 37.065 104.594 40.2427 99.5366C43.4499 94.4975 50.1422 92.9831 55.2216 96.1472L76.7568 110.023C81.8177 113.216 83.3386 119.88 80.1609 124.937Z" fill="#FFCBB4"/>
<path d="M87.3372 94.6802C83.9119 100.061 76.7662 101.677 71.3423 98.2989L42.3361 79.4936C36.9326 76.0831 35.309 68.968 38.7019 63.5674C42.1271 58.1871 49.2728 56.5704 54.6967 59.9488L83.703 78.754C89.1065 82.1646 90.7301 89.2796 87.3372 94.6802Z" fill="url(#paint8_linear_394_53)"/>
<path d="M85.7967 93.7022C82.5895 98.7414 75.8973 100.256 70.8178 97.0916L43.6502 79.4783C38.5893 76.2849 37.0684 69.6214 40.2461 64.5637C43.4533 59.5246 50.1456 58.0102 55.225 61.1743L82.3896 78.7876C87.4516 81.98 88.9738 88.6438 85.7967 93.7022Z" fill="#FFCBB4"/>
</g>
<defs>
<linearGradient id="paint0_linear_394_53" x1="122.446" y1="219.526" x2="122.446" y2="131.126" gradientUnits="userSpaceOnUse">
<stop stop-color="#808080" stop-opacity="0.25"/>
<stop offset="0.54" stop-color="#808080" stop-opacity="0.12"/>
<stop offset="1" stop-color="#808080" stop-opacity="0.1"/>
</linearGradient>
<linearGradient id="paint1_linear_394_53" x1="67.7115" y1="68.0387" x2="67.7115" y2="22.3963" gradientUnits="userSpaceOnUse">
<stop stop-color="#808080" stop-opacity="0.25"/>
<stop offset="0.54" stop-color="#808080" stop-opacity="0.12"/>
<stop offset="1" stop-color="#808080" stop-opacity="0.1"/>
</linearGradient>
<linearGradient id="paint2_linear_394_53" x1="108.9" y1="177.86" x2="108.9" y2="-0.00305322" gradientUnits="userSpaceOnUse">
<stop stop-color="#808080" stop-opacity="0.25"/>
<stop offset="0.54" stop-color="#808080" stop-opacity="0.12"/>
<stop offset="1" stop-color="#808080" stop-opacity="0.1"/>
</linearGradient>
<linearGradient id="paint3_linear_394_53" x1="164.257" y1="161.279" x2="164.257" y2="76.5413" gradientUnits="userSpaceOnUse">
<stop stop-color="#808080" stop-opacity="0.25"/>
<stop offset="0.54" stop-color="#808080" stop-opacity="0.12"/>
<stop offset="1" stop-color="#808080" stop-opacity="0.1"/>
</linearGradient>
<linearGradient id="paint4_linear_394_53" x1="137.268" y1="230.788" x2="137.268" y2="209.7" gradientUnits="userSpaceOnUse">
<stop stop-color="#808080" stop-opacity="0.25"/>
<stop offset="0.54" stop-color="#808080" stop-opacity="0.12"/>
<stop offset="1" stop-color="#808080" stop-opacity="0.1"/>
</linearGradient>
<linearGradient id="paint5_linear_394_53" x1="60.2002" y1="131.108" x2="60.2002" y2="93.3935" gradientUnits="userSpaceOnUse">
<stop stop-color="#808080" stop-opacity="0.25"/>
<stop offset="0.54" stop-color="#808080" stop-opacity="0.12"/>
<stop offset="1" stop-color="#808080" stop-opacity="0.1"/>
</linearGradient>
<linearGradient id="paint6_linear_394_53" x1="58.7272" y1="162.37" x2="58.7272" y2="128.895" gradientUnits="userSpaceOnUse">
<stop stop-color="#808080" stop-opacity="0.25"/>
<stop offset="0.54" stop-color="#808080" stop-opacity="0.12"/>
<stop offset="1" stop-color="#808080" stop-opacity="0.1"/>
</linearGradient>
<linearGradient id="paint7_linear_394_53" x1="108.897" y1="116.422" x2="108.897" y2="61.4432" gradientUnits="userSpaceOnUse">
<stop stop-color="#808080" stop-opacity="0.25"/>
<stop offset="0.54" stop-color="#808080" stop-opacity="0.12"/>
<stop offset="1" stop-color="#808080" stop-opacity="0.1"/>
</linearGradient>
<linearGradient id="paint8_linear_394_53" x1="63.018" y1="100.075" x2="63.018" y2="58.1945" gradientUnits="userSpaceOnUse">
<stop stop-color="#808080" stop-opacity="0.25"/>
<stop offset="0.54" stop-color="#808080" stop-opacity="0.12"/>
<stop offset="1" stop-color="#808080" stop-opacity="0.1"/>
</linearGradient>
<clipPath id="clip0_394_53">
<rect width="223" height="232" fill="white"/>
</clipPath>
</defs>
</svg>
