<svg width="20" height="20" viewBox="0 0 20 20" fill="none" xmlns="http://www.w3.org/2000/svg">
<g clip-path="url(#clip0_888_53)">
<path d="M14.8122 7.75H14.25V5.5C14.25 4.30653 13.7759 3.16193 12.932 2.31802C12.0881 1.47411 10.9435 1 9.75 1C8.55653 1 7.41193 1.47411 6.56802 2.31802C5.72411 3.16193 5.25 4.30653 5.25 5.5V7.75H4.68778C4.24033 7.75059 3.81138 7.9286 3.49499 8.24499C3.1786 8.56138 3.00059 8.99033 3 9.43778V17.3122C3.00059 17.7597 3.1786 18.1886 3.49499 18.505C3.81138 18.8214 4.24033 18.9994 4.68778 19H14.8122C15.2597 18.9994 15.6886 18.8214 16.005 18.505C16.3214 18.1886 16.4994 17.7597 16.5 17.3122V9.43778C16.4994 8.99033 16.3214 8.56138 16.005 8.24499C15.6886 7.9286 15.2597 7.75059 14.8122 7.75ZM6.75 5.5C6.75 4.70435 7.06607 3.94129 7.62868 3.37868C8.19129 2.81607 8.95435 2.5 9.75 2.5C10.5456 2.5 11.3087 2.81607 11.8713 3.37868C12.4339 3.94129 12.75 4.70435 12.75 5.5V7.75H6.75V5.5Z" fill="#0E395E"/>
</g>
<defs>
<clipPath id="clip0_888_53">
<rect width="13.5" height="18" fill="white" transform="translate(3 1)"/>
</clipPath>
</defs>
</svg>
