<svg width="9" height="12" viewBox="0 0 9 12" fill="none" xmlns="http://www.w3.org/2000/svg">
<path d="M7.87481 4.5H7.5V3C7.5 2.20435 7.18393 1.44129 6.62132 0.87868C6.05871 0.316071 5.29565 0 4.5 0C3.70435 0 2.94129 0.316071 2.37868 0.87868C1.81607 1.44129 1.5 2.20435 1.5 3V4.5H1.12519C0.826888 4.50039 0.54092 4.61906 0.329992 4.82999C0.119064 5.04092 0.000391981 5.32689 0 5.62519L0 10.8748C0.000391981 11.1731 0.119064 11.4591 0.329992 11.67C0.54092 11.8809 0.826888 11.9996 1.12519 12H7.87481C8.17311 11.9996 8.45908 11.8809 8.67001 11.67C8.88094 11.4591 8.99961 11.1731 9 10.8748V5.62519C8.99961 5.32689 8.88094 5.04092 8.67001 4.82999C8.45908 4.61906 8.17311 4.50039 7.87481 4.5ZM2.5 3C2.5 2.46957 2.71071 1.96086 3.08579 1.58579C3.46086 1.21071 3.96957 1 4.5 1C5.03043 1 5.53914 1.21071 5.91421 1.58579C6.28929 1.96086 6.5 2.46957 6.5 3V4.5H2.5V3Z" fill="#0E395E"/>
</svg>
