<svg width="20" height="20" viewBox="0 0 20 20" fill="none" xmlns="http://www.w3.org/2000/svg">
<g clip-path="url(#clip0_915_59)">
<path d="M1.4906 14.2112L4.00288 11.699C4.20212 11.4933 4.45089 11.3423 4.72529 11.2605C4.9997 11.1788 5.29052 11.1689 5.56984 11.2319C5.84916 11.2949 6.1076 11.4286 6.32033 11.6203C6.53306 11.8119 6.69295 12.0551 6.78463 12.3263C6.92787 12.714 7.20669 13.0366 7.56948 13.2345C7.93228 13.4324 8.35449 13.4922 8.75797 13.4028C9.83083 13.0164 10.8051 12.3979 11.6113 11.5915C12.4176 10.785 13.0358 9.81053 13.4218 8.73755C13.5308 8.3333 13.4798 7.90259 13.2793 7.53503C13.0788 7.16748 12.7442 6.89139 12.3453 6.76422C12.0741 6.67253 11.8309 6.51265 11.6393 6.29991C11.4476 6.08718 11.3139 5.82875 11.2509 5.54943C11.1879 5.27011 11.1978 4.97928 11.2796 4.70488C11.3614 4.43048 11.5123 4.18171 11.718 3.98247L14.2302 1.47159C14.5608 1.1685 14.993 1.00037 15.4415 1.00037C15.89 1.00037 16.3221 1.1685 16.6527 1.47159L18.3566 3.17545C20.0618 4.96913 18.1769 9.72422 13.9608 13.9418C9.74463 18.1593 4.98955 20.1326 3.19446 18.3376L1.4906 16.6323C1.18791 16.3018 1.02002 15.8699 1.02002 15.4218C1.02002 14.9736 1.18791 14.5417 1.4906 14.2112Z" fill="#0E395E"/>
</g>
<defs>
<clipPath id="clip0_915_59">
<rect width="17.9621" height="18" fill="white" transform="translate(1.01904 1)"/>
</clipPath>
</defs>
</svg>
