<svg width="13" height="13" viewBox="0 0 13 13" fill="none" xmlns="http://www.w3.org/2000/svg">
<path d="M0.33602 9.41299L2.12602 7.62299C2.26798 7.47647 2.44523 7.3689 2.64074 7.31062C2.83625 7.25234 3.04347 7.24531 3.24248 7.29019C3.4415 7.33508 3.62563 7.43037 3.7772 7.56693C3.92877 7.70349 4.04269 7.87672 4.10802 8.06999C4.21008 8.34619 4.40873 8.57607 4.66723 8.71708C4.92572 8.85809 5.22654 8.90069 5.51402 8.83699C6.27843 8.56169 6.97263 8.12101 7.54705 7.54641C8.12148 6.97182 8.56195 6.27748 8.83702 5.51299C8.91469 5.22496 8.87831 4.91808 8.73544 4.65619C8.59258 4.39431 8.35424 4.1976 8.07002 4.10699C7.87675 4.04166 7.70352 3.92774 7.56696 3.77617C7.4304 3.6246 7.33511 3.44047 7.29022 3.24145C7.24534 3.04244 7.25237 2.83522 7.31065 2.63971C7.36893 2.4442 7.4765 2.26695 7.62302 2.12499L9.41302 0.33599C9.64855 0.120043 9.95648 0.000244141 10.276 0.000244141C10.5956 0.000244141 10.9035 0.120043 11.139 0.33599L12.353 1.54999C13.568 2.82799 12.225 6.21599 9.22102 9.22099C6.21702 12.226 2.82902 13.632 1.55002 12.353L0.33602 11.138C0.120356 10.9025 0.000732422 10.5948 0.000732422 10.2755C0.000732422 9.95618 0.120356 9.64846 0.33602 9.41299Z" fill="#0E395E"/>
</svg>
