<svg width="14" height="19" viewBox="0 0 14 19" fill="none" xmlns="http://www.w3.org/2000/svg">
<path d="M6.67928 9.05841C6.59595 9.05008 6.49595 9.05008 6.40428 9.05841C4.42095 8.99175 2.84595 7.36675 2.84595 5.36675C2.84595 3.32508 4.49595 1.66675 6.54595 1.66675C8.58761 1.66675 10.2459 3.32508 10.2459 5.36675C10.2376 7.36675 8.66261 8.99175 6.67928 9.05841Z" stroke="white" stroke-width="1.5" stroke-linecap="round" stroke-linejoin="round"/>
<path d="M2.5125 12.1334C0.495833 13.4834 0.495833 15.6834 2.5125 17.025C4.80417 18.5584 8.5625 18.5584 10.8542 17.025C12.8708 15.675 12.8708 13.475 10.8542 12.1334C8.57083 10.6084 4.8125 10.6084 2.5125 12.1334Z" stroke="white" stroke-width="1.5" stroke-linecap="round" stroke-linejoin="round"/>
</svg>
