<svg width="48" height="37" viewBox="0 0 48 37" fill="none" xmlns="http://www.w3.org/2000/svg">
<g clip-path="url(#clip0_1_4232)">
<path d="M14.9091 24.2727C14.3636 24.2727 14 23.9091 14 23.3636V19.7273C14 18.1818 15.1818 17 16.7273 17H20.3636C20.9091 17 21.2727 17.3636 21.2727 17.9091C21.2727 18.4546 20.9091 18.8182 20.3636 18.8182H16.7273C16.1818 18.8182 15.8182 19.1818 15.8182 19.7273V23.3637C15.8182 23.9091 15.4546 24.2727 14.9091 24.2727Z" fill="black"/>
<path d="M33.091 24.2727C32.5455 24.2727 32.1819 23.9091 32.1819 23.3636V19.7273C32.1819 19.1818 31.8182 18.8182 31.2728 18.8182H27.6364C27.0909 18.8182 26.7273 18.4545 26.7273 17.9091C26.7273 17.3636 27.0909 17 27.6364 17H31.2728C32.8182 17 34 18.1818 34 19.7273V23.3636C34.0001 23.9091 33.6364 24.2727 33.091 24.2727Z" fill="black"/>
<path d="M20.3636 37H16.7273C15.1818 37 14 35.8182 14 34.2728V30.6364C14 30.0909 14.3636 29.7273 14.9091 29.7273C15.4546 29.7273 15.8182 30.0909 15.8182 30.6364V34.2728C15.8182 34.8182 16.1818 35.1819 16.7273 35.1819H20.3637C20.9091 35.1819 21.2728 35.5455 21.2728 36.091C21.2727 36.6364 20.9091 37 20.3636 37Z" fill="black"/>
<path d="M31.2728 37.0001H27.6364C27.0909 37.0001 26.7273 36.6364 26.7273 36.091C26.7273 35.5455 27.0909 35.1819 27.6364 35.1819H31.2728C31.8182 35.1819 32.1819 34.8182 32.1819 34.2728V30.6364C32.1819 30.0909 32.5455 29.7273 33.091 29.7273C33.6364 29.7273 34.0001 30.0909 34.0001 30.6364V34.2728C34 35.8182 32.8182 37.0001 31.2728 37.0001Z" fill="black"/>
<path d="M22.1819 26.0909H18.5456C18.0001 26.0909 17.6365 25.7273 17.6365 25.1818V21.5455C17.6365 21 18.0001 20.6364 18.5456 20.6364H22.1819C22.7274 20.6364 23.091 21 23.091 21.5455V25.1818C23.091 25.7273 22.7274 26.0909 22.1819 26.0909ZM19.4547 24.2727H21.2729V22.4545H19.4547V24.2727Z" fill="black"/>
<path d="M22.1819 33.3636H18.5456C18.0001 33.3636 17.6365 33 17.6365 32.4545V28.8182C17.6365 28.2727 18.0001 27.9091 18.5456 27.9091H22.1819C22.7274 27.9091 23.091 28.2727 23.091 28.8182V32.4545C23.091 33 22.7274 33.3636 22.1819 33.3636ZM19.4547 31.5454H21.2729V29.7272H19.4547V31.5454Z" fill="black"/>
<path d="M29.4546 26.0909H25.8183C25.2728 26.0909 24.9092 25.7273 24.9092 25.1818V21.5455C24.9092 21 25.2728 20.6364 25.8183 20.6364H29.4546C30.0001 20.6364 30.3637 21 30.3637 21.5455V25.1818C30.3637 25.7273 30.0001 26.0909 29.4546 26.0909ZM26.7274 24.2727H28.5456V22.4545H26.7274V24.2727Z" fill="black"/>
<path d="M25.8183 30.6364C25.2728 30.6364 24.9092 30.2727 24.9092 29.7273V28.8182C24.9092 28.2727 25.2728 27.9091 25.8183 27.9091C26.3637 27.9091 26.7274 28.2727 26.7274 28.8182V29.7273C26.7274 30.2727 26.3637 30.6364 25.8183 30.6364Z" fill="black"/>
<path d="M29.4544 29.7273H28.5453C27.9999 29.7273 27.6362 29.3636 27.6362 28.8182C27.6362 28.2727 27.9999 27.9091 28.5453 27.9091H29.4544C29.9999 27.9091 30.3635 28.2727 30.3635 28.8182C30.3635 29.3636 29.9999 29.7273 29.4544 29.7273Z" fill="black"/>
<path d="M29.4545 33.3636H26.7272C26.1818 33.3636 25.8181 33 25.8181 32.4545C25.8181 31.9091 26.1818 31.5454 26.7272 31.5454H29.4545C29.9999 31.5454 30.3636 31.9091 30.3636 32.4545C30.3636 33 29.9999 33.3636 29.4545 33.3636Z" fill="black"/>
</g>
<path d="M12.3455 8V7.31H13.0595V8H12.3455ZM11.7395 8V3.08H12.3455V8H11.7395ZM13.0595 8V7.31C13.1035 7.31 13.1335 7.342 13.1495 7.406C13.1695 7.466 13.1795 7.548 13.1795 7.652C13.1795 7.756 13.1695 7.84 13.1495 7.904C13.1335 7.968 13.1035 8 13.0595 8ZM13.0583 8V7.31H13.3643C13.5363 7.31 13.6643 7.298 13.7483 7.274C13.8323 7.246 13.8883 7.196 13.9163 7.124C13.9443 7.052 13.9583 6.948 13.9583 6.812V5.108H14.5643V6.812C14.5643 7.08 14.5223 7.302 14.4383 7.478C14.3543 7.654 14.2243 7.786 14.0483 7.874C13.8723 7.958 13.6443 8 13.3643 8H13.0583ZM15.1583 8C14.8783 8 14.6503 7.958 14.4743 7.874C14.2983 7.786 14.1683 7.654 14.0843 7.478C14.0003 7.302 13.9583 7.08 13.9583 6.812H14.5643C14.5643 6.948 14.5783 7.052 14.6063 7.124C14.6343 7.196 14.6903 7.246 14.7743 7.274C14.8623 7.298 14.9903 7.31 15.1583 7.31H15.4043V8H15.1583ZM15.4043 8V7.31C15.4483 7.31 15.4783 7.342 15.4943 7.406C15.5143 7.466 15.5243 7.548 15.5243 7.652C15.5243 7.756 15.5143 7.84 15.4943 7.904C15.4783 7.968 15.4483 8 15.4043 8ZM13.0583 8C13.0143 8 12.9843 7.968 12.9683 7.904C12.9483 7.84 12.9383 7.754 12.9383 7.646C12.9383 7.542 12.9483 7.46 12.9683 7.4C12.9843 7.34 13.0143 7.31 13.0583 7.31V8ZM14.2643 4.304C14.1523 4.304 14.0563 4.266 13.9763 4.19C13.9003 4.11 13.8623 4.014 13.8623 3.902C13.8623 3.786 13.9003 3.69 13.9763 3.614C14.0563 3.538 14.1523 3.5 14.2643 3.5C14.3803 3.5 14.4763 3.538 14.5523 3.614C14.6283 3.69 14.6663 3.786 14.6663 3.902C14.6663 4.014 14.6283 4.11 14.5523 4.19C14.4763 4.266 14.3803 4.304 14.2643 4.304ZM18.0661 8.012C17.7861 8.012 17.5041 7.97 17.2201 7.886C16.9401 7.798 16.6841 7.674 16.4521 7.514C16.2241 7.35 16.0401 7.154 15.9001 6.926C15.7601 6.698 15.6901 6.444 15.6901 6.164C15.6901 5.924 15.7421 5.704 15.8461 5.504C15.9501 5.3 16.0921 5.136 16.2721 5.012C16.4561 4.888 16.6641 4.826 16.8961 4.826C17.0721 4.826 17.2341 4.862 17.3821 4.934C17.5341 5.006 17.6641 5.104 17.7721 5.228C17.8841 5.348 17.9701 5.488 18.0301 5.648C18.0941 5.804 18.1261 5.968 18.1261 6.14C18.1261 6.384 18.0641 6.618 17.9401 6.842C17.8161 7.062 17.6361 7.26 17.4001 7.436C17.1641 7.608 16.8781 7.746 16.5421 7.85C16.2061 7.95 15.8261 8 15.4021 8V7.31C15.7061 7.31 15.9861 7.278 16.2421 7.214C16.4981 7.15 16.7221 7.064 16.9141 6.956C17.1061 6.848 17.2541 6.724 17.3581 6.584C17.4661 6.444 17.5201 6.296 17.5201 6.14C17.5201 6.024 17.4921 5.92 17.4361 5.828C17.3801 5.732 17.3041 5.656 17.2081 5.6C17.1161 5.544 17.0121 5.516 16.8961 5.516C16.7841 5.516 16.6821 5.544 16.5901 5.6C16.5021 5.656 16.4301 5.73 16.3741 5.822C16.3221 5.914 16.2961 6.016 16.2961 6.128C16.2961 6.304 16.3541 6.468 16.4701 6.62C16.5861 6.768 16.7381 6.898 16.9261 7.01C17.1141 7.118 17.3161 7.202 17.5321 7.262C17.7481 7.322 17.9561 7.352 18.1561 7.352C18.3081 7.352 18.4461 7.332 18.5701 7.292C18.6981 7.248 18.8001 7.178 18.8761 7.082C18.9521 6.986 18.9901 6.856 18.9901 6.692C18.9901 6.472 18.9021 6.286 18.7261 6.134C18.5541 5.982 18.2821 5.852 17.9101 5.744C17.5381 5.632 17.0561 5.526 16.4641 5.426C16.4441 5.422 16.4221 5.42 16.3981 5.42C16.3781 5.416 16.3561 5.412 16.3321 5.408C16.3121 5.404 16.2901 5.4 16.2661 5.396C16.1461 5.376 16.0201 5.358 15.8881 5.342C15.7601 5.322 15.6261 5.3 15.4861 5.276L15.5641 4.598C16.1601 4.682 16.7041 4.772 17.1961 4.868C17.6921 4.964 18.1181 5.086 18.4741 5.234C18.8341 5.378 19.1101 5.566 19.3021 5.798C19.4981 6.03 19.5961 6.324 19.5961 6.68C19.5961 6.92 19.5541 7.126 19.4701 7.298C19.3901 7.466 19.2781 7.602 19.1341 7.706C18.9901 7.81 18.8261 7.888 18.6421 7.94C18.4621 7.988 18.2701 8.012 18.0661 8.012ZM15.4021 8C15.3581 8 15.3281 7.968 15.3121 7.904C15.2921 7.84 15.2821 7.754 15.2821 7.646C15.2821 7.542 15.2921 7.46 15.3121 7.4C15.3281 7.34 15.3581 7.31 15.4021 7.31V8ZM26.1874 8C25.8354 8 25.5634 7.932 25.3714 7.796C25.1834 7.656 25.0654 7.446 25.0174 7.166L25.5994 6.926C25.6114 7.082 25.6554 7.186 25.7314 7.238C25.8074 7.286 25.9594 7.31 26.1874 7.31H26.4334V8H26.1874ZM23.6794 9.596C23.3674 9.596 23.0914 9.542 22.8514 9.434C22.6154 9.326 22.4154 9.176 22.2514 8.984C22.0874 8.792 21.9634 8.568 21.8794 8.312C21.7954 8.06 21.7534 7.786 21.7534 7.49C21.7534 7.314 21.7674 7.136 21.7954 6.956C21.8234 6.776 21.8614 6.604 21.9094 6.44L22.4854 6.548C22.4454 6.716 22.4134 6.878 22.3894 7.034C22.3694 7.186 22.3594 7.338 22.3594 7.49C22.3594 7.786 22.4114 8.04 22.5154 8.252C22.6194 8.464 22.7694 8.626 22.9654 8.738C23.1654 8.85 23.4034 8.906 23.6794 8.906C23.9594 8.906 24.1974 8.85 24.3934 8.738C24.5894 8.626 24.7394 8.464 24.8434 8.252C24.9474 8.04 24.9994 7.786 24.9994 7.49V5.108H25.6054V7.49C25.6054 7.786 25.5634 8.06 25.4794 8.312C25.3954 8.568 25.2714 8.792 25.1074 8.984C24.9434 9.176 24.7414 9.326 24.5014 9.434C24.2654 9.542 23.9914 9.596 23.6794 9.596ZM26.4334 8V7.31C26.4774 7.31 26.5074 7.342 26.5234 7.406C26.5434 7.466 26.5534 7.548 26.5534 7.652C26.5534 7.756 26.5434 7.84 26.5234 7.904C26.5074 7.968 26.4774 8 26.4334 8ZM23.6794 5.186C23.5674 5.186 23.4714 5.148 23.3914 5.072C23.3154 4.992 23.2774 4.896 23.2774 4.784C23.2774 4.668 23.3154 4.572 23.3914 4.496C23.4714 4.42 23.5674 4.382 23.6794 4.382C23.7954 4.382 23.8914 4.42 23.9674 4.496C24.0434 4.572 24.0814 4.668 24.0814 4.784C24.0814 4.896 24.0434 4.992 23.9674 5.072C23.8914 5.148 23.7954 5.186 23.6794 5.186ZM26.4353 8V7.31C26.6273 7.31 26.7873 7.272 26.9153 7.196C27.0433 7.12 27.1553 7.016 27.2513 6.884C27.3513 6.752 27.4473 6.604 27.5393 6.44C27.6313 6.28 27.7293 6.122 27.8333 5.966C27.9373 5.81 28.0513 5.668 28.1753 5.54C28.2993 5.412 28.4373 5.31 28.5893 5.234C28.7413 5.154 28.9133 5.114 29.1053 5.114C29.3173 5.114 29.4973 5.16 29.6453 5.252C29.7973 5.34 29.9193 5.46 30.0113 5.612C30.1033 5.76 30.1693 5.926 30.2093 6.11C30.2533 6.294 30.2753 6.48 30.2753 6.668C30.2753 6.872 30.2473 7.104 30.1913 7.364C30.1353 7.62 30.0433 7.86 29.9153 8.084L29.3873 7.742C29.4793 7.582 29.5493 7.41 29.5973 7.226C29.6453 7.042 29.6693 6.856 29.6693 6.668C29.6693 6.372 29.6213 6.154 29.5253 6.014C29.4293 5.874 29.2893 5.804 29.1053 5.804C28.9893 5.804 28.8793 5.834 28.7753 5.894C28.6753 5.95 28.5693 6.05 28.4573 6.194C28.3453 6.334 28.2133 6.532 28.0613 6.788C27.9013 7.06 27.7433 7.286 27.5873 7.466C27.4353 7.646 27.2673 7.78 27.0833 7.868C26.9033 7.956 26.6873 8 26.4353 8ZM29.8853 7.394L29.9153 8.084C29.5553 8.104 29.2433 8.1 28.9793 8.072C28.7153 8.048 28.4833 8.002 28.2833 7.934C28.0873 7.866 27.9113 7.78 27.7553 7.676C27.6033 7.568 27.4613 7.446 27.3293 7.31L27.7673 6.83C27.9153 6.982 28.0813 7.104 28.2653 7.196C28.4533 7.284 28.6773 7.344 28.9373 7.376C29.2013 7.408 29.5173 7.414 29.8853 7.394ZM26.4353 8C26.3913 8 26.3613 7.968 26.3453 7.904C26.3253 7.84 26.3153 7.754 26.3153 7.646C26.3153 7.542 26.3253 7.46 26.3453 7.4C26.3613 7.34 26.3913 7.31 26.4353 7.31V8ZM36.1177 8V7.31H36.6997V8H36.1177ZM35.3797 8V6.428C35.3797 6.244 35.3317 6.084 35.2357 5.948C35.1437 5.808 35.0097 5.7 34.8337 5.624C34.6577 5.544 34.4477 5.504 34.2037 5.504C34.0117 5.504 33.8237 5.526 33.6397 5.57C33.4597 5.614 33.3017 5.668 33.1657 5.732L32.9197 5.186C33.1157 5.062 33.3237 4.97 33.5437 4.91C33.7637 4.846 33.9877 4.814 34.2157 4.814C34.4757 4.814 34.7137 4.854 34.9297 4.934C35.1457 5.01 35.3317 5.12 35.4877 5.264C35.6477 5.408 35.7697 5.58 35.8537 5.78C35.9417 5.976 35.9857 6.192 35.9857 6.428V8H35.3797ZM34.1257 10.208C33.9177 10.208 33.7157 10.178 33.5197 10.118C33.3277 10.058 33.1537 9.968 32.9977 9.848C32.8417 9.732 32.7177 9.588 32.6257 9.416C32.5377 9.248 32.4937 9.054 32.4937 8.834C32.4937 8.642 32.5317 8.454 32.6077 8.27C32.6837 8.09 32.7977 7.928 32.9497 7.784C33.1017 7.64 33.2917 7.526 33.5197 7.442C33.7477 7.354 34.0137 7.31 34.3177 7.31V8C34.0697 8 33.8537 8.036 33.6697 8.108C33.4897 8.184 33.3497 8.282 33.2497 8.402C33.1497 8.526 33.0997 8.662 33.0997 8.81C33.0997 8.95 33.1417 9.072 33.2257 9.176C33.3137 9.284 33.4357 9.368 33.5917 9.428C33.7477 9.488 33.9277 9.518 34.1317 9.518C34.2437 9.518 34.3557 9.508 34.4677 9.488C34.5797 9.472 34.6857 9.448 34.7857 9.416L34.9957 10.016C34.8597 10.08 34.7177 10.128 34.5697 10.16C34.4257 10.192 34.2777 10.208 34.1257 10.208ZM34.3177 8V7.31H36.2497L36.1417 8H34.3177ZM36.6997 8V7.31C36.7437 7.31 36.7737 7.342 36.7897 7.406C36.8097 7.466 36.8197 7.548 36.8197 7.652C36.8197 7.756 36.8097 7.84 36.7897 7.904C36.7737 7.968 36.7437 8 36.6997 8ZM41.9749 8C41.6949 8 41.4669 7.958 41.2909 7.874C41.1149 7.786 40.9849 7.654 40.9009 7.478C40.8169 7.302 40.7749 7.08 40.7749 6.812H41.3809C41.3809 6.948 41.3949 7.052 41.4229 7.124C41.4509 7.196 41.5069 7.246 41.5909 7.274C41.6789 7.298 41.8069 7.31 41.9749 7.31H42.2209V8H41.9749ZM36.7009 8C36.6569 8 36.6269 7.968 36.6109 7.904C36.5909 7.84 36.5809 7.754 36.5809 7.646C36.5809 7.542 36.5909 7.46 36.6109 7.4C36.6269 7.34 36.6569 7.31 36.7009 7.31V8ZM40.3549 8C40.2229 8 40.0929 7.976 39.9649 7.928C39.8409 7.88 39.7269 7.804 39.6229 7.7C39.5189 7.592 39.4369 7.456 39.3769 7.292L39.7789 7.016C39.8149 7.12 39.8789 7.2 39.9709 7.256C40.0669 7.312 40.1669 7.34 40.2709 7.34C40.3989 7.34 40.5149 7.298 40.6189 7.214C40.7229 7.126 40.7749 6.992 40.7749 6.812V5.108H41.3809V6.812C41.3809 7.08 41.3309 7.302 41.2309 7.478C41.1309 7.654 41.0029 7.786 40.8469 7.874C40.6909 7.958 40.5269 8 40.3549 8ZM36.7009 8V7.31H37.0009C37.1729 7.31 37.3009 7.298 37.3849 7.274C37.4689 7.246 37.5249 7.196 37.5529 7.124C37.5809 7.052 37.5949 6.948 37.5949 6.812V5.702H38.2009V6.812C38.2009 7.08 38.1589 7.302 38.0749 7.478C37.9909 7.654 37.8609 7.786 37.6849 7.874C37.5089 7.958 37.2809 8 37.0009 8H36.7009ZM38.7649 8C38.6329 8 38.5029 7.976 38.3749 7.928C38.2509 7.88 38.1369 7.804 38.0329 7.7C37.9289 7.592 37.8469 7.456 37.7869 7.292L38.1889 7.016C38.2249 7.12 38.2889 7.2 38.3809 7.256C38.4769 7.312 38.5769 7.34 38.6809 7.34C38.8089 7.34 38.9249 7.298 39.0289 7.214C39.1329 7.126 39.1849 6.992 39.1849 6.812V5.402H39.7909V6.812C39.7909 7.08 39.7409 7.302 39.6409 7.478C39.5409 7.654 39.4129 7.786 39.2569 7.874C39.1009 7.958 38.9369 8 38.7649 8ZM42.2209 8V7.31C42.2649 7.31 42.2949 7.342 42.3109 7.406C42.3309 7.466 42.3409 7.548 42.3409 7.652C42.3409 7.756 42.3309 7.84 42.3109 7.904C42.2949 7.968 42.2649 8 42.2209 8ZM42.2205 8V7.31C42.4125 7.31 42.5725 7.272 42.7005 7.196C42.8285 7.12 42.9405 7.016 43.0365 6.884C43.1365 6.752 43.2325 6.604 43.3245 6.44C43.4165 6.28 43.5145 6.122 43.6185 5.966C43.7225 5.81 43.8365 5.668 43.9605 5.54C44.0845 5.412 44.2225 5.31 44.3745 5.234C44.5265 5.154 44.6985 5.114 44.8905 5.114C45.1025 5.114 45.2825 5.16 45.4305 5.252C45.5825 5.34 45.7045 5.46 45.7965 5.612C45.8885 5.76 45.9545 5.926 45.9945 6.11C46.0385 6.294 46.0605 6.48 46.0605 6.668C46.0605 6.872 46.0325 7.104 45.9765 7.364C45.9205 7.62 45.8285 7.86 45.7005 8.084L45.1725 7.742C45.2645 7.582 45.3345 7.41 45.3825 7.226C45.4305 7.042 45.4545 6.856 45.4545 6.668C45.4545 6.372 45.4065 6.154 45.3105 6.014C45.2145 5.874 45.0745 5.804 44.8905 5.804C44.7745 5.804 44.6645 5.834 44.5605 5.894C44.4605 5.95 44.3545 6.05 44.2425 6.194C44.1305 6.334 43.9985 6.532 43.8465 6.788C43.6865 7.06 43.5285 7.286 43.3725 7.466C43.2205 7.646 43.0525 7.78 42.8685 7.868C42.6885 7.956 42.4725 8 42.2205 8ZM45.6705 7.394L45.7005 8.084C45.3405 8.104 45.0285 8.1 44.7645 8.072C44.5005 8.048 44.2685 8.002 44.0685 7.934C43.8725 7.866 43.6965 7.78 43.5405 7.676C43.3885 7.568 43.2465 7.446 43.1145 7.31L43.5525 6.83C43.7005 6.982 43.8665 7.104 44.0505 7.196C44.2385 7.284 44.4625 7.344 44.7225 7.376C44.9865 7.408 45.3025 7.414 45.6705 7.394ZM42.2205 8C42.1765 8 42.1465 7.968 42.1305 7.904C42.1105 7.84 42.1005 7.754 42.1005 7.646C42.1005 7.542 42.1105 7.46 42.1305 7.4C42.1465 7.34 42.1765 7.31 42.2205 7.31V8ZM46.9016 8V3.08H47.5076V8H46.9016Z" fill="black"/>
<g clip-path="url(#clip1_1_4232)">
<path d="M9.12907 5.29752C9.09303 5.32747 9.03949 5.32662 9.00437 5.29378C8.76018 5.0654 8.48221 4.88234 8.17819 4.74964C8.13042 4.72878 8.10859 4.67318 8.12944 4.6254C8.15032 4.57761 8.2059 4.5558 8.25368 4.57665C8.57743 4.71795 8.87339 4.91283 9.1333 5.15589C9.17135 5.19149 9.17337 5.25121 9.13777 5.28929C9.135 5.29226 9.1321 5.295 9.12907 5.29752Z" fill="black" stroke="black" stroke-width="0.25"/>
<path d="M4.66585 9.33609C4.66485 9.33693 4.66384 9.33773 4.6628 9.33852C4.62139 9.37018 4.56216 9.36228 4.53051 9.32087C4.08869 8.74296 3.86335 8.02194 3.89603 7.29063C3.92907 6.55108 4.22574 5.84582 4.73137 5.30479C5.44046 4.546 6.47744 4.19175 7.50526 4.35722C7.55672 4.3655 7.59171 4.41393 7.58344 4.46539C7.57514 4.51689 7.5267 4.55185 7.47526 4.54357C6.50962 4.38812 5.53543 4.72098 4.86928 5.43366C4.39432 5.9419 4.11564 6.60437 4.08461 7.29906C4.05391 7.98617 4.26551 8.66346 4.68048 9.20623C4.71133 9.2466 4.70457 9.30391 4.66585 9.33609Z" fill="black" stroke="black" stroke-width="0.25"/>
<path d="M4.65509 9.34746C4.65029 9.35145 4.64507 9.35499 4.63947 9.358C4.61584 9.37071 4.58793 9.37276 4.56269 9.36363L3.02931 8.80951C2.9803 8.7918 2.95491 8.7377 2.97262 8.68868C2.99037 8.63966 3.04445 8.61429 3.09346 8.63201L4.52778 9.15034L4.88627 7.66804C4.89855 7.61738 4.94954 7.58625 5.0002 7.5985C5.05086 7.61076 5.08199 7.66176 5.06975 7.71241L4.6865 9.29708C4.68169 9.31696 4.67059 9.33458 4.65509 9.34746Z" fill="black" stroke="black" stroke-width="0.25"/>
</g>
<defs>
<clipPath id="clip0_1_4232">
<rect width="20" height="20" fill="white" transform="translate(14 17)"/>
</clipPath>
<clipPath id="clip1_1_4232">
<rect width="8.05335" height="8.05335" fill="white" transform="translate(0 5.97461) rotate(-39.7281)"/>
</clipPath>
</defs>
</svg>
