<svg width="48" height="37" viewBox="0 0 48 37" fill="none" xmlns="http://www.w3.org/2000/svg">
<mask id="mask0_138_37" style="mask-type:luminance" maskUnits="userSpaceOnUse" x="14" y="17" width="20" height="20">
<path d="M34 17H14V37H34V17Z" fill="white"/>
</mask>
<g mask="url(#mask0_138_37)">
<path d="M14.9091 24.2727C14.3636 24.2727 14 23.9091 14 23.3636V19.7273C14 18.1818 15.1818 17 16.7273 17H20.3636C20.9091 17 21.2727 17.3636 21.2727 17.9091C21.2727 18.4546 20.9091 18.8182 20.3636 18.8182H16.7273C16.1818 18.8182 15.8182 19.1818 15.8182 19.7273V23.3637C15.8182 23.9091 15.4546 24.2727 14.9091 24.2727Z" fill="white"/>
<path d="M33.091 24.2727C32.5455 24.2727 32.1819 23.9091 32.1819 23.3636V19.7273C32.1819 19.1818 31.8182 18.8182 31.2728 18.8182H27.6364C27.0909 18.8182 26.7273 18.4545 26.7273 17.9091C26.7273 17.3636 27.0909 17 27.6364 17H31.2728C32.8182 17 34 18.1818 34 19.7273V23.3636C34.0001 23.9091 33.6364 24.2727 33.091 24.2727Z" fill="white"/>
<path d="M20.3636 37H16.7273C15.1818 37 14 35.8182 14 34.2728V30.6364C14 30.0909 14.3636 29.7273 14.9091 29.7273C15.4546 29.7273 15.8182 30.0909 15.8182 30.6364V34.2728C15.8182 34.8182 16.1818 35.1819 16.7273 35.1819H20.3637C20.9091 35.1819 21.2728 35.5455 21.2728 36.091C21.2727 36.6364 20.9091 37 20.3636 37Z" fill="white"/>
<path d="M31.2728 37.0001H27.6364C27.0909 37.0001 26.7273 36.6364 26.7273 36.091C26.7273 35.5455 27.0909 35.1819 27.6364 35.1819H31.2728C31.8182 35.1819 32.1819 34.8182 32.1819 34.2728V30.6364C32.1819 30.0909 32.5455 29.7273 33.091 29.7273C33.6364 29.7273 34.0001 30.0909 34.0001 30.6364V34.2728C34 35.8182 32.8182 37.0001 31.2728 37.0001Z" fill="white"/>
<path d="M22.1819 26.0909H18.5456C18.0001 26.0909 17.6365 25.7273 17.6365 25.1818V21.5455C17.6365 21 18.0001 20.6364 18.5456 20.6364H22.1819C22.7274 20.6364 23.091 21 23.091 21.5455V25.1818C23.091 25.7273 22.7274 26.0909 22.1819 26.0909ZM19.4547 24.2727H21.2729V22.4545H19.4547V24.2727Z" fill="white"/>
<path d="M22.1819 33.3636H18.5456C18.0001 33.3636 17.6365 33 17.6365 32.4545V28.8182C17.6365 28.2727 18.0001 27.9091 18.5456 27.9091H22.1819C22.7274 27.9091 23.091 28.2727 23.091 28.8182V32.4545C23.091 33 22.7274 33.3636 22.1819 33.3636ZM19.4547 31.5454H21.2729V29.7272H19.4547V31.5454Z" fill="white"/>
<path d="M29.4546 26.0909H25.8183C25.2728 26.0909 24.9092 25.7273 24.9092 25.1818V21.5455C24.9092 21 25.2728 20.6364 25.8183 20.6364H29.4546C30.0001 20.6364 30.3637 21 30.3637 21.5455V25.1818C30.3637 25.7273 30.0001 26.0909 29.4546 26.0909ZM26.7274 24.2727H28.5456V22.4545H26.7274V24.2727Z" fill="white"/>
<path d="M25.8183 30.6364C25.2728 30.6364 24.9092 30.2727 24.9092 29.7273V28.8182C24.9092 28.2727 25.2728 27.9091 25.8183 27.9091C26.3637 27.9091 26.7274 28.2727 26.7274 28.8182V29.7273C26.7274 30.2727 26.3637 30.6364 25.8183 30.6364Z" fill="white"/>
<path d="M29.4544 29.7273H28.5453C27.9999 29.7273 27.6362 29.3636 27.6362 28.8182C27.6362 28.2727 27.9999 27.9091 28.5453 27.9091H29.4544C29.9999 27.9091 30.3635 28.2727 30.3635 28.8182C30.3635 29.3636 29.9999 29.7273 29.4544 29.7273Z" fill="white"/>
<path d="M29.4545 33.3636H26.7272C26.1818 33.3636 25.8181 33 25.8181 32.4545C25.8181 31.9091 26.1818 31.5454 26.7272 31.5454H29.4545C29.9999 31.5454 30.3636 31.9091 30.3636 32.4545C30.3636 33 29.9999 33.3636 29.4545 33.3636Z" fill="white"/>
</g>
<path d="M12.3455 7.99996V7.30996H13.0595V7.99996H12.3455ZM11.7395 7.99996V3.07996H12.3455V7.99996H11.7395ZM13.0595 7.99996V7.30996C13.1035 7.30996 13.1335 7.34196 13.1495 7.40596C13.1695 7.46596 13.1795 7.54796 13.1795 7.65196C13.1795 7.75596 13.1695 7.83996 13.1495 7.90396C13.1335 7.96796 13.1035 7.99996 13.0595 7.99996ZM13.0583 7.99996V7.30996H13.3643C13.5363 7.30996 13.6643 7.29796 13.7483 7.27396C13.8323 7.24596 13.8883 7.19596 13.9163 7.12396C13.9443 7.05196 13.9583 6.94796 13.9583 6.81196V5.10796H14.5643V6.81196C14.5643 7.07996 14.5223 7.30196 14.4383 7.47796C14.3543 7.65396 14.2243 7.78596 14.0483 7.87396C13.8723 7.95796 13.6443 7.99996 13.3643 7.99996H13.0583ZM15.1583 7.99996C14.8783 7.99996 14.6503 7.95796 14.4743 7.87396C14.2983 7.78596 14.1683 7.65396 14.0843 7.47796C14.0003 7.30196 13.9583 7.07996 13.9583 6.81196H14.5643C14.5643 6.94796 14.5783 7.05196 14.6063 7.12396C14.6343 7.19596 14.6903 7.24596 14.7743 7.27396C14.8623 7.29796 14.9903 7.30996 15.1583 7.30996H15.4043V7.99996H15.1583ZM15.4043 7.99996V7.30996C15.4483 7.30996 15.4783 7.34196 15.4943 7.40596C15.5143 7.46596 15.5243 7.54796 15.5243 7.65196C15.5243 7.75596 15.5143 7.83996 15.4943 7.90396C15.4783 7.96796 15.4483 7.99996 15.4043 7.99996ZM13.0583 7.99996C13.0143 7.99996 12.9843 7.96796 12.9683 7.90396C12.9483 7.83996 12.9383 7.75396 12.9383 7.64596C12.9383 7.54196 12.9483 7.45996 12.9683 7.39996C12.9843 7.33996 13.0143 7.30996 13.0583 7.30996V7.99996ZM14.2643 4.30396C14.1523 4.30396 14.0563 4.26596 13.9763 4.18996C13.9003 4.10996 13.8623 4.01396 13.8623 3.90196C13.8623 3.78596 13.9003 3.68996 13.9763 3.61396C14.0563 3.53796 14.1523 3.49996 14.2643 3.49996C14.3803 3.49996 14.4763 3.53796 14.5523 3.61396C14.6283 3.68996 14.6663 3.78596 14.6663 3.90196C14.6663 4.01396 14.6283 4.10996 14.5523 4.18996C14.4763 4.26596 14.3803 4.30396 14.2643 4.30396ZM18.0661 8.01196C17.7861 8.01196 17.5041 7.96996 17.2201 7.88596C16.9401 7.79796 16.6841 7.67396 16.4521 7.51396C16.2241 7.34996 16.0401 7.15396 15.9001 6.92596C15.7601 6.69796 15.6901 6.44396 15.6901 6.16396C15.6901 5.92396 15.7421 5.70396 15.8461 5.50396C15.9501 5.29996 16.0921 5.13596 16.2721 5.01196C16.4561 4.88796 16.6641 4.82596 16.8961 4.82596C17.0721 4.82596 17.2341 4.86196 17.3821 4.93396C17.5341 5.00596 17.6641 5.10396 17.7721 5.22796C17.8841 5.34796 17.9701 5.48796 18.0301 5.64796C18.0941 5.80396 18.1261 5.96796 18.1261 6.13996C18.1261 6.38396 18.0641 6.61796 17.9401 6.84196C17.8161 7.06196 17.6361 7.25996 17.4001 7.43596C17.1641 7.60796 16.8781 7.74596 16.5421 7.84996C16.2061 7.94996 15.8261 7.99996 15.4021 7.99996V7.30996C15.7061 7.30996 15.9861 7.27796 16.2421 7.21396C16.4981 7.14996 16.7221 7.06396 16.9141 6.95596C17.1061 6.84796 17.2541 6.72396 17.3581 6.58396C17.4661 6.44396 17.5201 6.29596 17.5201 6.13996C17.5201 6.02396 17.4921 5.91996 17.4361 5.82796C17.3801 5.73196 17.3041 5.65596 17.2081 5.59996C17.1161 5.54396 17.0121 5.51596 16.8961 5.51596C16.7841 5.51596 16.6821 5.54396 16.5901 5.59996C16.5021 5.65596 16.4301 5.72996 16.3741 5.82196C16.3221 5.91396 16.2961 6.01596 16.2961 6.12796C16.2961 6.30396 16.3541 6.46796 16.4701 6.61996C16.5861 6.76796 16.7381 6.89796 16.9261 7.00996C17.1141 7.11796 17.3161 7.20196 17.5321 7.26196C17.7481 7.32196 17.9561 7.35196 18.1561 7.35196C18.3081 7.35196 18.4461 7.33196 18.5701 7.29196C18.6981 7.24796 18.8001 7.17796 18.8761 7.08196C18.9521 6.98596 18.9901 6.85596 18.9901 6.69196C18.9901 6.47196 18.9021 6.28596 18.7261 6.13396C18.5541 5.98196 18.2821 5.85196 17.9101 5.74396C17.5381 5.63196 17.0561 5.52596 16.4641 5.42596C16.4441 5.42196 16.4221 5.41996 16.3981 5.41996C16.3781 5.41596 16.3561 5.41196 16.3321 5.40796C16.3121 5.40396 16.2901 5.39996 16.2661 5.39596C16.1461 5.37596 16.0201 5.35796 15.8881 5.34196C15.7601 5.32196 15.6261 5.29996 15.4861 5.27596L15.5641 4.59796C16.1601 4.68196 16.7041 4.77196 17.1961 4.86796C17.6921 4.96396 18.1181 5.08596 18.4741 5.23396C18.8341 5.37796 19.1101 5.56596 19.3021 5.79796C19.4981 6.02996 19.5961 6.32396 19.5961 6.67996C19.5961 6.91996 19.5541 7.12596 19.4701 7.29796C19.3901 7.46596 19.2781 7.60196 19.1341 7.70596C18.9901 7.80996 18.8261 7.88796 18.6421 7.93996C18.4621 7.98796 18.2701 8.01196 18.0661 8.01196ZM15.4021 7.99996C15.3581 7.99996 15.3281 7.96796 15.3121 7.90396C15.2921 7.83996 15.2821 7.75396 15.2821 7.64596C15.2821 7.54196 15.2921 7.45996 15.3121 7.39996C15.3281 7.33996 15.3581 7.30996 15.4021 7.30996V7.99996ZM26.1874 7.99996C25.8354 7.99996 25.5634 7.93196 25.3714 7.79596C25.1834 7.65596 25.0654 7.44596 25.0174 7.16596L25.5994 6.92596C25.6114 7.08196 25.6554 7.18596 25.7314 7.23796C25.8074 7.28596 25.9594 7.30996 26.1874 7.30996H26.4334V7.99996H26.1874ZM23.6794 9.59596C23.3674 9.59596 23.0914 9.54196 22.8514 9.43396C22.6154 9.32596 22.4154 9.17596 22.2514 8.98396C22.0874 8.79196 21.9634 8.56796 21.8794 8.31196C21.7954 8.05996 21.7534 7.78596 21.7534 7.48996C21.7534 7.31396 21.7674 7.13596 21.7954 6.95596C21.8234 6.77596 21.8614 6.60396 21.9094 6.43996L22.4854 6.54796C22.4454 6.71596 22.4134 6.87796 22.3894 7.03396C22.3694 7.18596 22.3594 7.33796 22.3594 7.48996C22.3594 7.78596 22.4114 8.03996 22.5154 8.25196C22.6194 8.46396 22.7694 8.62596 22.9654 8.73796C23.1654 8.84996 23.4034 8.90596 23.6794 8.90596C23.9594 8.90596 24.1974 8.84996 24.3934 8.73796C24.5894 8.62596 24.7394 8.46396 24.8434 8.25196C24.9474 8.03996 24.9994 7.78596 24.9994 7.48996V5.10796H25.6054V7.48996C25.6054 7.78596 25.5634 8.05996 25.4794 8.31196C25.3954 8.56796 25.2714 8.79196 25.1074 8.98396C24.9434 9.17596 24.7414 9.32596 24.5014 9.43396C24.2654 9.54196 23.9914 9.59596 23.6794 9.59596ZM26.4334 7.99996V7.30996C26.4774 7.30996 26.5074 7.34196 26.5234 7.40596C26.5434 7.46596 26.5534 7.54796 26.5534 7.65196C26.5534 7.75596 26.5434 7.83996 26.5234 7.90396C26.5074 7.96796 26.4774 7.99996 26.4334 7.99996ZM23.6794 5.18596C23.5674 5.18596 23.4714 5.14796 23.3914 5.07196C23.3154 4.99196 23.2774 4.89596 23.2774 4.78396C23.2774 4.66796 23.3154 4.57196 23.3914 4.49596C23.4714 4.41996 23.5674 4.38196 23.6794 4.38196C23.7954 4.38196 23.8914 4.41996 23.9674 4.49596C24.0434 4.57196 24.0814 4.66796 24.0814 4.78396C24.0814 4.89596 24.0434 4.99196 23.9674 5.07196C23.8914 5.14796 23.7954 5.18596 23.6794 5.18596ZM26.4353 7.99996V7.30996C26.6273 7.30996 26.7873 7.27196 26.9153 7.19596C27.0433 7.11996 27.1553 7.01596 27.2513 6.88396C27.3513 6.75196 27.4473 6.60396 27.5393 6.43996C27.6313 6.27996 27.7293 6.12196 27.8333 5.96596C27.9373 5.80996 28.0513 5.66796 28.1753 5.53996C28.2993 5.41196 28.4373 5.30996 28.5893 5.23396C28.7413 5.15396 28.9133 5.11396 29.1053 5.11396C29.3173 5.11396 29.4973 5.15996 29.6453 5.25196C29.7973 5.33996 29.9193 5.45996 30.0113 5.61196C30.1033 5.75996 30.1693 5.92596 30.2093 6.10996C30.2533 6.29396 30.2753 6.47996 30.2753 6.66796C30.2753 6.87196 30.2473 7.10396 30.1913 7.36396C30.1353 7.61996 30.0433 7.85996 29.9153 8.08396L29.3873 7.74196C29.4793 7.58196 29.5493 7.40996 29.5973 7.22596C29.6453 7.04196 29.6693 6.85596 29.6693 6.66796C29.6693 6.37196 29.6213 6.15396 29.5253 6.01396C29.4293 5.87396 29.2893 5.80396 29.1053 5.80396C28.9893 5.80396 28.8793 5.83396 28.7753 5.89396C28.6753 5.94996 28.5693 6.04996 28.4573 6.19396C28.3453 6.33396 28.2133 6.53196 28.0613 6.78796C27.9013 7.05996 27.7433 7.28596 27.5873 7.46596C27.4353 7.64596 27.2673 7.77996 27.0833 7.86796C26.9033 7.95596 26.6873 7.99996 26.4353 7.99996ZM29.8853 7.39396L29.9153 8.08396C29.5553 8.10396 29.2433 8.09996 28.9793 8.07196C28.7153 8.04796 28.4833 8.00196 28.2833 7.93396C28.0873 7.86596 27.9113 7.77996 27.7553 7.67596C27.6033 7.56796 27.4613 7.44596 27.3293 7.30996L27.7673 6.82996C27.9153 6.98196 28.0813 7.10396 28.2653 7.19596C28.4533 7.28396 28.6773 7.34396 28.9373 7.37596C29.2013 7.40796 29.5173 7.41396 29.8853 7.39396ZM26.4353 7.99996C26.3913 7.99996 26.3613 7.96796 26.3453 7.90396C26.3253 7.83996 26.3153 7.75396 26.3153 7.64596C26.3153 7.54196 26.3253 7.45996 26.3453 7.39996C26.3613 7.33996 26.3913 7.30996 26.4353 7.30996V7.99996ZM36.1177 7.99996V7.30996H36.6997V7.99996H36.1177ZM35.3797 7.99996V6.42796C35.3797 6.24396 35.3317 6.08396 35.2357 5.94796C35.1437 5.80796 35.0097 5.69996 34.8337 5.62396C34.6577 5.54396 34.4477 5.50396 34.2037 5.50396C34.0117 5.50396 33.8237 5.52596 33.6397 5.56996C33.4597 5.61396 33.3017 5.66796 33.1657 5.73196L32.9197 5.18596C33.1157 5.06196 33.3237 4.96996 33.5437 4.90996C33.7637 4.84596 33.9877 4.81396 34.2157 4.81396C34.4757 4.81396 34.7137 4.85396 34.9297 4.93396C35.1457 5.00996 35.3317 5.11996 35.4877 5.26396C35.6477 5.40796 35.7697 5.57996 35.8537 5.77996C35.9417 5.97596 35.9857 6.19196 35.9857 6.42796V7.99996H35.3797ZM34.1257 10.208C33.9177 10.208 33.7157 10.178 33.5197 10.118C33.3277 10.058 33.1537 9.96796 32.9977 9.84796C32.8417 9.73196 32.7177 9.58796 32.6257 9.41596C32.5377 9.24796 32.4937 9.05396 32.4937 8.83396C32.4937 8.64196 32.5317 8.45396 32.6077 8.26996C32.6837 8.08996 32.7977 7.92796 32.9497 7.78396C33.1017 7.63996 33.2917 7.52596 33.5197 7.44196C33.7477 7.35396 34.0137 7.30996 34.3177 7.30996V7.99996C34.0697 7.99996 33.8537 8.03596 33.6697 8.10796C33.4897 8.18396 33.3497 8.28196 33.2497 8.40196C33.1497 8.52596 33.0997 8.66196 33.0997 8.80996C33.0997 8.94996 33.1417 9.07196 33.2257 9.17596C33.3137 9.28396 33.4357 9.36796 33.5917 9.42796C33.7477 9.48796 33.9277 9.51796 34.1317 9.51796C34.2437 9.51796 34.3557 9.50796 34.4677 9.48796C34.5797 9.47196 34.6857 9.44796 34.7857 9.41596L34.9957 10.016C34.8597 10.08 34.7177 10.128 34.5697 10.16C34.4257 10.192 34.2777 10.208 34.1257 10.208ZM34.3177 7.99996V7.30996H36.2497L36.1417 7.99996H34.3177ZM36.6997 7.99996V7.30996C36.7437 7.30996 36.7737 7.34196 36.7897 7.40596C36.8097 7.46596 36.8197 7.54796 36.8197 7.65196C36.8197 7.75596 36.8097 7.83996 36.7897 7.90396C36.7737 7.96796 36.7437 7.99996 36.6997 7.99996ZM41.9749 7.99996C41.6949 7.99996 41.4669 7.95796 41.2909 7.87396C41.1149 7.78596 40.9849 7.65396 40.9009 7.47796C40.8169 7.30196 40.7749 7.07996 40.7749 6.81196H41.3809C41.3809 6.94796 41.3949 7.05196 41.4229 7.12396C41.4509 7.19596 41.5069 7.24596 41.5909 7.27396C41.6789 7.29796 41.8069 7.30996 41.9749 7.30996H42.2209V7.99996H41.9749ZM36.7009 7.99996C36.6569 7.99996 36.6269 7.96796 36.6109 7.90396C36.5909 7.83996 36.5809 7.75396 36.5809 7.64596C36.5809 7.54196 36.5909 7.45996 36.6109 7.39996C36.6269 7.33996 36.6569 7.30996 36.7009 7.30996V7.99996ZM40.3549 7.99996C40.2229 7.99996 40.0929 7.97596 39.9649 7.92796C39.8409 7.87996 39.7269 7.80396 39.6229 7.69996C39.5189 7.59196 39.4369 7.45596 39.3769 7.29196L39.7789 7.01596C39.8149 7.11996 39.8789 7.19996 39.9709 7.25596C40.0669 7.31196 40.1669 7.33996 40.2709 7.33996C40.3989 7.33996 40.5149 7.29796 40.6189 7.21396C40.7229 7.12596 40.7749 6.99196 40.7749 6.81196V5.10796H41.3809V6.81196C41.3809 7.07996 41.3309 7.30196 41.2309 7.47796C41.1309 7.65396 41.0029 7.78596 40.8469 7.87396C40.6909 7.95796 40.5269 7.99996 40.3549 7.99996ZM36.7009 7.99996V7.30996H37.0009C37.1729 7.30996 37.3009 7.29796 37.3849 7.27396C37.4689 7.24596 37.5249 7.19596 37.5529 7.12396C37.5809 7.05196 37.5949 6.94796 37.5949 6.81196V5.70196H38.2009V6.81196C38.2009 7.07996 38.1589 7.30196 38.0749 7.47796C37.9909 7.65396 37.8609 7.78596 37.6849 7.87396C37.5089 7.95796 37.2809 7.99996 37.0009 7.99996H36.7009ZM38.7649 7.99996C38.6329 7.99996 38.5029 7.97596 38.3749 7.92796C38.2509 7.87996 38.1369 7.80396 38.0329 7.69996C37.9289 7.59196 37.8469 7.45596 37.7869 7.29196L38.1889 7.01596C38.2249 7.11996 38.2889 7.19996 38.3809 7.25596C38.4769 7.31196 38.5769 7.33996 38.6809 7.33996C38.8089 7.33996 38.9249 7.29796 39.0289 7.21396C39.1329 7.12596 39.1849 6.99196 39.1849 6.81196V5.40196H39.7909V6.81196C39.7909 7.07996 39.7409 7.30196 39.6409 7.47796C39.5409 7.65396 39.4129 7.78596 39.2569 7.87396C39.1009 7.95796 38.9369 7.99996 38.7649 7.99996ZM42.2209 7.99996V7.30996C42.2649 7.30996 42.2949 7.34196 42.3109 7.40596C42.3309 7.46596 42.3409 7.54796 42.3409 7.65196C42.3409 7.75596 42.3309 7.83996 42.3109 7.90396C42.2949 7.96796 42.2649 7.99996 42.2209 7.99996ZM42.2209 7.99996V7.30996C42.4129 7.30996 42.5725 7.27196 42.7005 7.19596C42.8285 7.11996 42.9405 7.01596 43.0365 6.88396C43.1365 6.75196 43.2325 6.60396 43.3245 6.43996C43.4165 6.27996 43.5145 6.12196 43.6185 5.96596C43.7225 5.80996 43.8365 5.66796 43.9605 5.53996C44.0845 5.41196 44.2225 5.30996 44.3745 5.23396C44.5265 5.15396 44.6985 5.11396 44.8905 5.11396C45.1025 5.11396 45.2825 5.15996 45.4305 5.25196C45.5825 5.33996 45.7045 5.45996 45.7965 5.61196C45.8885 5.75996 45.9545 5.92596 45.9945 6.10996C46.0385 6.29396 46.0605 6.47996 46.0605 6.66796C46.0605 6.87196 46.0325 7.10396 45.9765 7.36396C45.9205 7.61996 45.8285 7.85996 45.7005 8.08396L45.1725 7.74196C45.2645 7.58196 45.3345 7.40996 45.3825 7.22596C45.4305 7.04196 45.4545 6.85596 45.4545 6.66796C45.4545 6.37196 45.4065 6.15396 45.3105 6.01396C45.2145 5.87396 45.0745 5.80396 44.8905 5.80396C44.7745 5.80396 44.6645 5.83396 44.5605 5.89396C44.4605 5.94996 44.3545 6.04996 44.2425 6.19396C44.1305 6.33396 43.9985 6.53196 43.8465 6.78796C43.6865 7.05996 43.5285 7.28596 43.3725 7.46596C43.2205 7.64596 43.0525 7.77996 42.8685 7.86796C42.6885 7.95596 42.4729 7.99996 42.2209 7.99996ZM45.6705 7.39396L45.7005 8.08396C45.3405 8.10396 45.0285 8.09996 44.7645 8.07196C44.5005 8.04796 44.2685 8.00196 44.0685 7.93396C43.8725 7.86596 43.6965 7.77996 43.5405 7.67596C43.3885 7.56796 43.2465 7.44596 43.1145 7.30996L43.5525 6.82996C43.7005 6.98196 43.8665 7.10396 44.0505 7.19596C44.2385 7.28396 44.4625 7.34396 44.7225 7.37596C44.9865 7.40796 45.3025 7.41396 45.6705 7.39396ZM42.2209 7.99996C42.1769 7.99996 42.1465 7.96796 42.1305 7.90396C42.1105 7.83996 42.1005 7.75396 42.1005 7.64596C42.1005 7.54196 42.1105 7.45996 42.1305 7.39996C42.1465 7.33996 42.1769 7.30996 42.2209 7.30996V7.99996ZM46.9016 7.99996V3.07996H47.5076V7.99996H46.9016Z" fill="white"/>
<mask id="mask1_138_37" style="mask-type:luminance" maskUnits="userSpaceOnUse" x="0" y="0" width="12" height="13">
<path d="M6.19372 0.82735L0 5.97461L5.14726 12.1683L11.341 7.02107L6.19372 0.82735Z" fill="white"/>
</mask>
<g mask="url(#mask1_138_37)">
<path d="M9.12905 5.2975C9.09301 5.32745 9.03947 5.3266 9.00435 5.29376C8.76016 5.06538 8.48219 4.88232 8.17817 4.74962C8.1304 4.72876 8.10857 4.67316 8.12942 4.62538C8.1503 4.57759 8.20588 4.55578 8.25366 4.57663C8.57741 4.71793 8.87337 4.91281 9.13328 5.15587C9.17133 5.19147 9.17335 5.25119 9.13775 5.28927C9.13498 5.29224 9.13208 5.29498 9.12905 5.2975Z" fill="white" stroke="white" stroke-width="0.25"/>
<path d="M4.66588 9.33612L4.66283 9.33855C4.62142 9.37021 4.56219 9.36231 4.53054 9.3209C4.08872 8.74299 3.86338 8.02197 3.89606 7.29066C3.9291 6.55111 4.22577 5.84585 4.7314 5.30482C5.44049 4.54603 6.47747 4.19178 7.50529 4.35725C7.55675 4.36553 7.59174 4.41396 7.58347 4.46542C7.57517 4.51692 7.52673 4.55188 7.47529 4.5436C6.50965 4.38815 5.53546 4.72101 4.86931 5.43369C4.39435 5.94193 4.11567 6.6044 4.08464 7.29909C4.05394 7.9862 4.26554 8.66349 4.68051 9.20626C4.71136 9.24663 4.7046 9.30394 4.66588 9.33612Z" fill="white" stroke="white" stroke-width="0.25"/>
<path d="M4.65509 9.34745C4.65029 9.35144 4.64507 9.35498 4.63947 9.35799C4.61584 9.3707 4.58793 9.37275 4.56269 9.36362L3.02931 8.8095C2.9803 8.79179 2.95491 8.73769 2.97262 8.68867C2.99037 8.63965 3.04445 8.61428 3.09346 8.632L4.52778 9.15033L4.88627 7.66803C4.89855 7.61737 4.94954 7.58624 5.0002 7.59849C5.05086 7.61075 5.08199 7.66175 5.06975 7.7124L4.6865 9.29707C4.68169 9.31695 4.67059 9.33457 4.65509 9.34745Z" fill="white" stroke="white" stroke-width="0.25"/>
</g>
</svg>
