<svg width="18" height="18" viewBox="0 0 18 18" fill="none" xmlns="http://www.w3.org/2000/svg">
<path d="M8.99999 13.5C8.77499 13.5 8.62499 13.425 8.47499 13.275L4.64999 9.525C4.34999 9.225 4.34999 8.775 4.64999 8.475C4.94999 8.175 5.39999 8.175 5.69999 8.475L8.99999 11.7L12.225 8.475C12.525 8.175 12.975 8.175 13.275 8.475C13.575 8.775 13.575 9.225 13.275 9.525L9.52499 13.275C9.37499 13.425 9.22499 13.5 8.99999 13.5Z" fill="white"/>
<path d="M9 13.5C8.55 13.5 8.25 13.2 8.25 12.75V2.25C8.25 1.8 8.55 1.5 9 1.5C9.45 1.5 9.75 1.8 9.75 2.25V12.75C9.75 13.125 9.45 13.5 9 13.5Z" fill="white"/>
<path d="M15.75 16.5H2.25C1.8 16.5 1.5 16.2 1.5 15.75C1.5 15.3 1.8 15 2.25 15H15.75C16.2 15 16.5 15.3 16.5 15.75C16.5 16.2 16.2 16.5 15.75 16.5Z" fill="white"/>
</svg>
