<svg width="13" height="13" viewBox="0 0 13 13" fill="none" xmlns="http://www.w3.org/2000/svg">
<path d="M1.11263 5.99704L8.89191 1.79195C9.36681 1.5352 9.90063 2.01782 9.69303 2.51588L8.18666 6.13395H5.53994C5.33803 6.13395 5.17431 6.29767 5.17431 6.49957C5.17431 6.70148 5.33803 6.8652 5.53994 6.8652H8.18666L9.69425 10.4865C9.90144 10.9838 9.36844 11.4652 8.89475 11.2092L1.11263 7.00251C0.712876 6.78679 0.712876 6.21317 1.11263 5.99704Z" fill="white"/>
<path d="M10.8043 4.52764H12.1876C12.3895 4.52764 12.5532 4.36392 12.5532 4.16201C12.5532 3.96011 12.3895 3.79639 12.1876 3.79639H10.8043C10.6024 3.79639 10.4387 3.96011 10.4387 4.16201C10.4387 4.36392 10.6024 4.52764 10.8043 4.52764Z" fill="white"/>
<path d="M9.90873 6.86565H11.2916C11.4935 6.86565 11.6572 6.70193 11.6572 6.50002C11.6572 6.29812 11.4935 6.1344 11.2916 6.1344H9.90873C9.70682 6.1344 9.5431 6.29812 9.5431 6.50002C9.5431 6.70193 9.70682 6.86565 9.90873 6.86565Z" fill="white"/>
<path d="M10.8043 9.20403H12.1876C12.3895 9.20403 12.5532 9.04031 12.5532 8.8384C12.5532 8.6365 12.3895 8.47278 12.1876 8.47278H10.8043C10.6024 8.47278 10.4387 8.6365 10.4387 8.8384C10.4387 9.04031 10.6024 9.20403 10.8043 9.20403Z" fill="white"/>
</svg>
