<svg width="15" height="15" viewBox="0 0 15 15" fill="none" xmlns="http://www.w3.org/2000/svg">
<g clip-path="url(#clip0_678_2139)">
<path d="M14.0217 5.86957H12.8009C12.6985 5.53533 12.5645 5.2125 12.4017 4.905L13.2642 4.0425C13.4488 3.85793 13.5505 3.61207 13.5505 3.35022C13.5505 3.0887 13.4488 2.84283 13.2642 2.65826L12.3414 1.73543C11.9726 1.36663 11.327 1.36565 10.9575 1.73543L10.095 2.59793C9.78783 2.43522 9.46467 2.30152 9.13043 2.1988V0.978261C9.13043 0.438913 8.69152 0 8.15217 0H6.84783C6.30848 0 5.86957 0.438913 5.86957 0.978261V2.19913C5.53533 2.30185 5.2125 2.43554 4.905 2.59826L4.04217 1.73576C3.66065 1.35424 3.03978 1.35424 2.65826 1.73576L1.73511 2.65859C1.35391 3.04011 1.35391 3.66098 1.73511 4.0425L2.59761 4.90533C2.43489 5.2125 2.3012 5.53565 2.19848 5.86989H0.978261C0.438913 5.86989 0 6.3088 0 6.84815V8.1525C0 8.69152 0.438913 9.13043 0.978261 9.13043H2.19913C2.30185 9.46467 2.43554 9.7875 2.59826 10.095L1.73576 10.9578C1.35424 11.3393 1.35424 11.9602 1.73576 12.3417L2.65859 13.2649C3.04011 13.6461 3.66098 13.6461 4.0425 13.2649L4.90533 12.4024C5.2125 12.5651 5.53565 12.6988 5.86989 12.8015V14.0217C5.86989 14.5611 6.3088 15 6.84815 15H8.1525C8.69185 15 9.13076 14.5611 9.13076 14.0217V12.8009C9.465 12.6982 9.78815 12.5645 10.0953 12.4017L10.9578 13.2646C11.3276 13.634 11.9733 13.6334 12.3417 13.2646L13.2646 12.3417C13.4491 12.1572 13.5509 11.9113 13.5509 11.6498C13.5509 11.3879 13.4491 11.1424 13.2646 10.9578L12.4021 10.095C12.5648 9.78783 12.6985 9.46467 12.8012 9.13043H14.0217C14.5611 9.13043 15 8.69152 15 8.15217V6.84783C15 6.30848 14.5611 5.86957 14.0217 5.86957ZM14.3478 8.15217C14.3478 8.33185 14.2017 8.47826 14.0217 8.47826H12.5543C12.4057 8.47826 12.2759 8.57902 12.2387 8.72283C12.1233 9.16794 11.9475 9.59283 11.7157 9.98544C11.6403 10.1136 11.6609 10.2766 11.7659 10.3816L12.8028 11.4189C12.8641 11.4802 12.898 11.5621 12.898 11.6498C12.898 11.7375 12.8641 11.8193 12.8028 11.8807L11.88 12.8035C11.7574 12.9261 11.5412 12.9261 11.4183 12.8035L10.3813 11.7665C10.2763 11.6612 10.1133 11.641 9.98478 11.7163C9.59283 11.9478 9.16794 12.1239 8.7225 12.239C8.57902 12.2759 8.47826 12.4057 8.47826 12.5543V14.0217C8.47826 14.2014 8.33217 14.3478 8.15217 14.3478H6.84783C6.66815 14.3478 6.52174 14.2014 6.52174 14.0217V12.5543C6.52174 12.4057 6.42098 12.2759 6.27717 12.2387C5.83207 12.1236 5.40717 11.9478 5.01457 11.716C4.96304 11.6853 4.90598 11.6707 4.84891 11.6707C4.76446 11.6707 4.68098 11.7033 4.61804 11.7662L3.58109 12.8032C3.45359 12.9303 3.24685 12.9303 3.11935 12.8032L2.19652 11.8803C2.06902 11.7528 2.06902 11.5458 2.19652 11.4186L3.23348 10.3816C3.3388 10.2763 3.35935 10.1133 3.2837 9.98544C3.05217 9.59283 2.87609 9.16826 2.76098 8.72283C2.72413 8.57902 2.59435 8.47826 2.44565 8.47826H0.978261C0.798587 8.47826 0.652174 8.33185 0.652174 8.15217V6.84783C0.652174 6.66815 0.798587 6.52174 0.978261 6.52174H2.44565C2.59435 6.52174 2.72413 6.42098 2.7613 6.27717C2.87641 5.83207 3.05217 5.40717 3.28402 5.01457C3.35967 4.88641 3.33913 4.72337 3.2338 4.61837L2.19685 3.58141C2.06967 3.45424 2.06967 3.24717 2.19685 3.11967L3.11967 2.19685C3.24717 2.06935 3.45391 2.06967 3.58141 2.19685L4.61837 3.2338C4.7237 3.33913 4.88641 3.36 5.01457 3.28402C5.40717 3.0525 5.83174 2.87641 6.27717 2.7613C6.42098 2.72413 6.52174 2.59435 6.52174 2.44565V0.978261C6.52174 0.798587 6.66815 0.652174 6.84783 0.652174H8.15217C8.33217 0.652174 8.47826 0.798587 8.47826 0.978261V2.44565C8.47826 2.59435 8.57902 2.72413 8.72283 2.7613C9.16826 2.87641 9.59315 3.0525 9.98511 3.28402C10.1136 3.35967 10.2766 3.33946 10.3816 3.2338L11.4186 2.19685C11.5415 2.07359 11.7577 2.07391 11.8803 2.19685L12.8032 3.11967C12.8645 3.18098 12.8984 3.26315 12.8984 3.35054C12.8984 3.43793 12.8645 3.52011 12.8032 3.58141L11.7662 4.61837C11.6612 4.7237 11.6403 4.88674 11.716 5.01457C11.9478 5.40717 12.1236 5.83174 12.239 6.27717C12.2759 6.42098 12.4057 6.52174 12.5543 6.52174H14.0217C14.2017 6.52174 14.3478 6.66815 14.3478 6.84783V8.15217Z" fill="black" stroke="black" stroke-width="0.5"/>
<path d="M7.49997 4.56525C5.88192 4.56525 4.56519 5.88199 4.56519 7.50003C4.56519 9.11807 5.88192 10.4348 7.49997 10.4348C9.11834 10.4348 10.4348 9.11807 10.4348 7.50003C10.4348 5.88199 9.11834 4.56525 7.49997 4.56525ZM7.49997 9.78264C6.24127 9.78264 5.21736 8.75873 5.21736 7.50003C5.21736 6.24133 6.24127 5.21742 7.49997 5.21742C8.75834 5.21742 9.78258 6.24133 9.78258 7.50003C9.78258 8.75873 8.75834 9.78264 7.49997 9.78264Z" fill="black" stroke="black" stroke-width="0.5"/>
</g>
<defs>
<clipPath id="clip0_678_2139">
<rect width="15" height="15" fill="white"/>
</clipPath>
</defs>
</svg>
