<svg width="20" height="20" viewBox="0 0 20 20" fill="none" xmlns="http://www.w3.org/2000/svg">
<path d="M18.8596 9.60308L16.2283 6.9687C15.9846 6.72495 15.5877 6.72495 15.3439 6.9687C15.1002 7.21245 15.1002 7.60933 15.3439 7.85308L17.5346 10.0468L15.4377 12.1468C15.1939 12.3906 15.1939 12.7875 15.4377 13.0312C15.5596 13.1531 15.7189 13.2125 15.8783 13.2125C16.0377 13.2125 16.1971 13.15 16.3221 13.0281L18.8627 10.4875C19.1033 10.2437 19.1033 9.84995 18.8596 9.60308Z" fill="white"/>
<path d="M7.87817 10.0156C7.87817 10.3594 8.15942 10.6406 8.50317 10.6406H15.3782C15.7219 10.6406 16.0032 10.3594 16.0032 10.0156C16.0032 9.67188 15.7219 9.39062 15.3782 9.39062H8.50317C8.1563 9.39062 7.87817 9.66875 7.87817 10.0156Z" fill="white"/>
<path d="M13.947 14.8625C12.647 16.1594 10.922 16.875 9.08447 16.875C5.29385 16.875 2.20947 13.7906 2.20947 10C2.20947 6.20937 5.29385 3.125 9.08447 3.125C10.922 3.125 12.647 3.84063 13.947 5.1375C14.1907 5.38125 14.5876 5.38125 14.8313 5.1375C15.0751 4.89375 15.0751 4.49687 14.8313 4.25312C13.2938 2.71875 11.2532 1.875 9.08447 1.875C4.60322 1.875 0.959473 5.51875 0.959473 10C0.959473 14.4812 4.60322 18.125 9.08447 18.125C11.2532 18.125 13.2938 17.2812 14.8282 15.7469C15.072 15.5031 15.072 15.1063 14.8282 14.8625C14.5845 14.6188 14.1907 14.6188 13.947 14.8625Z" fill="white"/>
</svg>
