<svg width="139" height="139" viewBox="0 0 139 139" fill="none" xmlns="http://www.w3.org/2000/svg">
<path d="M69.5 0C31.1777 0 0 31.1777 0 69.5C0 107.822 31.1777 139 69.5 139C107.822 139 139 107.822 139 69.5C139 31.1777 107.822 0 69.5 0ZM69.5 126.364C38.145 126.364 12.6364 100.855 12.6364 69.5C12.6364 38.1454 38.145 12.6364 69.5 12.6364C100.855 12.6364 126.364 38.1454 126.364 69.5C126.364 100.855 100.855 126.364 69.5 126.364Z" fill="#0E395E"/>
<path d="M95.5611 44.9281L59.8195 80.6693L43.4386 64.2879C40.9716 61.8209 36.9709 61.8204 34.5034 64.2875C32.036 66.7549 32.036 70.7552 34.5034 73.2226L55.3517 94.0718C56.5366 95.2567 58.1435 95.9226 59.8191 95.9226H59.8195C61.4951 95.9226 63.102 95.2567 64.2869 94.0722L104.496 53.8637C106.964 51.3963 106.964 47.396 104.496 44.9286C102.029 42.4611 98.0285 42.4607 95.5611 44.9281Z" fill="#0E395E"/>
</svg>
