<svg width="14" height="14" viewBox="0 0 14 14" fill="none" xmlns="http://www.w3.org/2000/svg">
<g clip-path="url(#clip0_1_7629)">
<path d="M8.16667 7.58333C8.16667 6.94167 7.64167 6.41667 7 6.41667C6.35833 6.41667 5.83333 6.94167 5.83333 7.58333C5.83333 8.05583 6.17167 8.7675 6.66167 9.35083C6.3 9.6775 5.83333 9.91667 5.25 9.91667C4.78333 9.91667 4.32833 9.68917 3.92 9.33917C4.73083 8.40583 5.25 7.14583 5.25 6.41667C5.25 5.45417 4.4625 4.66667 3.5 4.66667C2.5375 4.66667 1.75 5.45417 1.75 6.41667C1.75 7.13417 2.2575 8.4175 3.09167 9.35083C2.75333 9.6425 2.38 9.8525 1.995 9.91667C1.8375 9.94 1.72667 10.0917 1.75583 10.2492C1.77917 10.395 1.90167 10.4942 2.04167 10.4942C2.05917 10.4942 2.07083 10.4942 2.08833 10.4942C2.60167 10.4125 3.08 10.1383 3.5 9.765C4.0075 10.2083 4.59667 10.5 5.25 10.5C7.175 10.5 8.16667 8.45833 8.16667 7.58333ZM2.33333 6.41667C2.33333 5.775 2.85833 5.25 3.5 5.25C4.14167 5.25 4.66667 5.775 4.66667 6.41667C4.66667 7.05833 4.2 8.12583 3.51167 8.93083C2.81167 8.1375 2.33333 7.0525 2.33333 6.41667ZM6.41667 7.58333C6.41667 7.2625 6.67917 7 7 7C7.32083 7 7.58333 7.2625 7.58333 7.58333C7.58333 7.84583 7.41417 8.40583 7.0525 8.9075C6.65583 8.41167 6.41667 7.8575 6.41667 7.58333ZM13.5742 6.8425C13.0258 6.29417 12.0633 6.29417 11.5092 6.8425L7.01167 11.34C6.62667 11.725 6.41083 12.2383 6.41083 12.7808V13.7083C6.41083 13.8717 6.53917 14 6.7025 14H7.63C8.17833 14 8.68583 13.79 9.07083 13.3992L13.5683 8.90167C13.8425 8.6275 13.9942 8.26 13.9942 7.86917C13.9942 7.47833 13.8425 7.11083 13.5683 6.83667L13.5742 6.8425ZM13.16 8.49333L8.6625 12.9908C8.38833 13.265 8.02083 13.4167 7.63 13.4167H6.99417V12.7808C6.99417 12.39 7.14583 12.0225 7.42 11.7483L11.9175 7.25083C12.25 6.91833 12.8217 6.91833 13.1542 7.25083C13.3175 7.41417 13.4108 7.63583 13.4108 7.86917C13.4108 8.1025 13.3175 8.32417 13.1542 8.4875L13.16 8.49333ZM4.95833 12.25H2.625C1.49917 12.25 0.583333 11.3342 0.583333 10.2083V2.625C0.583333 1.49917 1.49917 0.583333 2.625 0.583333H6.41667V2.625C6.41667 3.43 7.07 4.08333 7.875 4.08333H9.91667V6.125C9.91667 6.28833 10.045 6.41667 10.2083 6.41667C10.3717 6.41667 10.5 6.28833 10.5 6.125V3.98417C10.5058 3.4125 10.2958 2.88167 9.91083 2.49083L8.02083 0.600833C7.63583 0.215833 7.1225 0 6.58 0H2.625C1.17833 0 0 1.17833 0 2.625V10.2083C0 11.655 1.17833 12.8333 2.625 12.8333H4.95833C5.12167 12.8333 5.25 12.705 5.25 12.5417C5.25 12.3783 5.12167 12.25 4.95833 12.25ZM9.49667 2.89917C9.66583 3.06833 9.7825 3.2725 9.8525 3.5H7.875C7.39083 3.5 7 3.10917 7 2.625V0.6475C7.2275 0.7175 7.43167 0.84 7.60667 1.00917L9.49667 2.89917Z" fill="white" stroke="white" stroke-width="0.5"/>
</g>
<defs>
<clipPath id="clip0_1_7629">
<rect width="14" height="14" fill="white"/>
</clipPath>
</defs>
</svg>
