<svg width="18" height="18" viewBox="0 0 18 18" fill="none" xmlns="http://www.w3.org/2000/svg">
<path d="M4.76245 8.24999C4.76245 5.77499 6.97495 3.82499 9.41245 4.12499C13.2375 4.57499 14.4 9.52499 11.2875 11.6625C10.9125 11.9625 11.325 12.525 11.7 12.2625C13.1625 11.25 13.9875 9.52499 13.8 7.72499C12.9375 1.57499 4.19995 2.06249 4.01245 8.24999C4.01245 9.86249 4.79995 11.3625 6.11245 12.2625C6.52495 12.5625 6.93745 11.925 6.56245 11.6625C5.39995 10.875 4.76245 9.59999 4.76245 8.24999Z" fill="white"/>
<path d="M16.05 8.17502C16.0875 4.01252 12.3375 0.675019 8.21253 1.16252C0.975031 2.10002 -0.337469 11.7375 6.15003 14.625C6.60003 14.8125 6.90003 14.1375 6.45003 13.95C4.16253 12.9375 2.66253 10.6875 2.66253 8.17502C2.92503 0.412518 13.875 -0.412482 15.225 7.31252C15.6375 10.1625 14.025 12.9375 11.3625 14.025C10.9875 14.2125 11.2125 14.85 11.625 14.7C14.2875 13.6125 16.05 11.0625 16.05 8.17502Z" fill="white"/>
<path d="M2.88765 2.92505C3.22515 2.88755 3.22515 2.36255 2.88765 2.36255C2.55015 2.36255 2.55015 2.88755 2.88765 2.92505Z" fill="white"/>
<path d="M15.45 3.45C16.05 3.4125 16.05 2.5125 15.45 2.4375C14.85 2.5125 14.85 3.4125 15.45 3.45Z" fill="white"/>
<path d="M3.0375 13.4625C2.3625 13.4625 2.3625 14.475 3.0375 14.5125C3.75 14.475 3.75 13.4625 3.0375 13.4625Z" fill="white"/>
<path d="M13.575 14.925C13.2 15 13.2 15.5625 13.575 15.6375C13.95 15.6 13.95 15.0375 13.575 14.925Z" fill="white"/>
<path d="M10.95 9.67497C11.625 10.5375 12 8.73747 12 8.24997C12 6.56247 10.6125 5.17497 8.92495 5.21247C6.67495 5.13747 5.13745 7.83747 6.26245 9.71247C6.52495 10.125 7.12495 9.74997 6.89995 9.33747C6.67495 8.92497 6.59995 8.43747 6.67495 7.94997C7.12495 5.09997 11.2125 5.39997 11.25 8.24997C11.25 8.62497 11.175 8.99997 10.9875 9.33747C10.8749 9.44997 10.875 9.56247 10.95 9.67497Z" fill="white"/>
<path d="M8.92515 6.78748C6.97515 6.82498 6.97515 9.67498 8.92515 9.74998C10.8751 9.67498 10.8376 6.82498 8.92515 6.78748Z" fill="white"/>
<path d="M10.3501 11.325C10.2376 10.8375 9.78765 10.4625 9.26265 10.4625H8.58765C7.95015 10.4625 7.46265 10.95 7.46265 11.5875V15.75V15.825C7.50015 16.425 7.98765 16.875 8.58765 16.875H9.26265C9.90015 16.875 10.3876 16.3875 10.3876 15.75V11.625C10.3876 11.5125 10.3876 11.4375 10.3501 11.325Z" fill="white"/>
</svg>
