<svg width="13" height="15" viewBox="0 0 13 15" fill="none" xmlns="http://www.w3.org/2000/svg">
<g clip-path="url(#clip0_450_669)">
<path d="M6.40139 7.22597C6.89517 7.23251 7.38515 7.14204 7.84137 6.96009C8.2976 6.77813 8.71048 6.50851 9.05478 6.16772C9.40822 5.83586 9.68766 5.43811 9.87601 4.99877C10.0644 4.55943 10.1577 4.08773 10.1503 3.6125C10.1571 3.13716 10.0631 2.66547 9.87406 2.22628C9.68505 1.7871 9.40498 1.38963 9.05096 1.05819C8.70256 0.722674 8.28891 0.456519 7.83363 0.27493C7.37836 0.0933417 6.89037 -0.00012207 6.39757 -0.00012207C5.90476 -0.00012207 5.41679 0.0933417 4.96151 0.27493C4.50623 0.456519 4.09258 0.722674 3.74418 1.05819C3.39016 1.38963 3.11009 1.7871 2.92107 2.22628C2.73206 2.66547 2.63808 3.13716 2.64488 3.6125C2.63844 4.08826 2.73296 4.56028 2.92264 4.99965C3.11232 5.43901 3.39317 5.83649 3.74799 6.16772C4.09232 6.50847 4.50521 6.77806 4.96143 6.96001C5.41765 7.14196 5.90761 7.23246 6.40139 7.22597Z" fill="#0E395E"/>
<path d="M12.9667 11.5342C12.9424 11.2163 12.9003 10.8998 12.8408 10.5861C12.7819 10.2638 12.701 9.94555 12.5987 9.63344C12.4951 9.32456 12.3587 9.02683 12.1915 8.74498C12.0268 8.46099 11.8199 8.20158 11.5775 7.97492C11.3222 7.74387 11.0227 7.56277 10.6956 7.44167C10.3368 7.30853 9.95509 7.24189 9.57057 7.24525C9.34614 7.2684 9.13383 7.35496 8.96038 7.49399C8.77732 7.60872 8.56375 7.7418 8.32539 7.88865C8.06744 8.03711 7.79139 8.15427 7.50354 8.23743C6.85078 8.44596 6.14551 8.44596 5.49276 8.23743C5.20487 8.15435 4.92881 8.03719 4.6709 7.88865C4.43445 7.74364 4.22088 7.61331 4.03496 7.49399C3.86151 7.35496 3.6492 7.2684 3.42477 7.24525C3.04023 7.24169 2.65847 7.30834 2.29972 7.44167C1.97262 7.56271 1.67309 7.74382 1.4178 7.97492C1.17577 8.20165 0.969258 8.46105 0.804748 8.74498C0.637646 9.02686 0.501218 9.32459 0.397634 9.63344C0.29536 9.94556 0.214462 10.2638 0.155463 10.5861C0.0958846 10.8998 0.053873 11.2163 0.0296102 11.5342C0.00863478 11.8215 -0.00185294 12.1189 -0.00185294 12.4199C-0.0179035 12.7683 0.0422039 13.116 0.17458 13.4406C0.306955 13.7652 0.50865 14.0594 0.766611 14.3042C1.30537 14.7788 2.01726 15.0289 2.74688 15H10.2494C10.979 15.0289 11.6909 14.7788 12.2297 14.3042C12.4877 14.0595 12.6894 13.7653 12.8218 13.4407C12.9542 13.1161 13.0143 12.7683 12.9981 12.4199C12.9981 12.118 12.9877 11.8197 12.9667 11.5342Z" fill="#0E395E"/>
</g>
<defs>
<clipPath id="clip0_450_669">
<rect width="13" height="15" fill="white"/>
</clipPath>
</defs>
</svg>
