<svg width="20" height="20" viewBox="0 0 20 20" fill="none" xmlns="http://www.w3.org/2000/svg">
<g clip-path="url(#clip0_915_58)">
<path d="M9.88176 9.67119C10.4743 9.67904 11.0623 9.57048 11.6097 9.35213C12.1572 9.13378 12.6527 8.81024 13.0658 8.40129C13.49 8.00306 13.8253 7.52575 14.0513 6.99855C14.2773 6.47134 14.3893 5.9053 14.3804 5.33502C14.3886 4.76461 14.2758 4.19859 14.049 3.67157C13.8222 3.14454 13.4861 2.66759 13.0613 2.26986C12.6432 1.86723 12.1468 1.54785 11.6005 1.32994C11.0541 1.11203 10.4685 0.999878 9.87718 0.999878C9.28581 0.999878 8.70024 1.11203 8.15391 1.32994C7.60758 1.54785 7.11119 1.86723 6.69311 2.26986C6.26829 2.66759 5.9322 3.14454 5.70538 3.67157C5.47857 4.19859 5.36579 4.76461 5.37395 5.33502C5.36623 5.90593 5.47965 6.47236 5.70727 6.9996C5.93489 7.52684 6.2719 8.00381 6.69769 8.40129C7.11088 8.81019 7.60635 9.13369 8.15381 9.35204C8.70127 9.57038 9.28923 9.67898 9.88176 9.67119Z" fill="#0E395E"/>
<path d="M17.7601 14.841C17.7309 14.4595 17.6805 14.0797 17.6091 13.7033C17.5384 13.3165 17.4413 12.9346 17.3185 12.5601C17.1943 12.1894 17.0305 11.8321 16.83 11.4939C16.6322 11.1531 16.384 10.8418 16.0931 10.5699C15.7867 10.2926 15.4273 10.0753 15.0348 9.92996C14.6043 9.77019 14.1462 9.69022 13.6848 9.69425C13.4155 9.72204 13.1607 9.8259 12.9525 9.99274C12.7329 10.1304 12.4766 10.2901 12.1906 10.4663C11.881 10.6445 11.5498 10.7851 11.2043 10.8849C10.421 11.1351 9.57472 11.1351 8.79141 10.8849C8.44594 10.7852 8.11467 10.6446 7.80518 10.4663C7.52144 10.2923 7.26516 10.1359 7.04205 9.99274C6.83391 9.8259 6.57914 9.72204 6.30982 9.69425C5.84837 9.68998 5.39027 9.76996 4.95977 9.92996C4.56724 10.0752 4.2078 10.2925 3.90146 10.5699C3.61102 10.8419 3.36321 11.1532 3.16579 11.4939C2.96527 11.8322 2.80156 12.1895 2.67726 12.5601C2.55453 12.9346 2.45745 13.3165 2.38665 13.7033C2.31516 14.0797 2.26475 14.4595 2.23563 14.841C2.21046 15.1858 2.19787 15.5426 2.19787 15.9039C2.17861 16.3219 2.25074 16.7392 2.40959 17.1287C2.56844 17.5182 2.81048 17.8713 3.12003 18.165C3.76654 18.7345 4.6208 19.0346 5.49636 18.9999H14.4994C15.3749 19.0346 16.2292 18.7345 16.8757 18.165C17.1853 17.8713 17.4274 17.5183 17.5863 17.1287C17.7451 16.7392 17.8172 16.3219 17.7979 15.9039C17.7979 15.5415 17.7853 15.1836 17.7601 14.841Z" fill="#0E395E"/>
</g>
<defs>
<clipPath id="clip0_915_58">
<rect width="15.6" height="18" fill="white" transform="translate(2.2002 1)"/>
</clipPath>
</defs>
</svg>
