<svg width="19" height="23" viewBox="0 0 19 23" fill="none" xmlns="http://www.w3.org/2000/svg">
<path d="M14.1987 7.4771L15.4755 6.14521L15.6722 6.34388C15.8307 6.50378 16.0419 6.59238 16.267 6.59334H16.271C16.4945 6.59334 16.7048 6.50682 16.8638 6.34933L17.7932 5.42872C18.1231 5.10172 18.1256 4.56723 17.7986 4.23718L16.5006 2.92692C16.3782 2.8034 16.1787 2.80244 16.055 2.92484C15.9315 3.04725 15.9305 3.24688 16.0529 3.37041L17.351 4.68066C17.4335 4.76382 17.4329 4.89856 17.3496 4.98107L16.4203 5.90184C16.3802 5.94142 16.3272 5.96337 16.2708 5.96337C16.2705 5.96337 16.27 5.96337 16.2697 5.96337C16.213 5.96305 16.1598 5.94077 16.1197 5.9004L15.7131 5.48992C15.7076 5.48351 15.7022 5.47711 15.6961 5.47102L14.758 4.52589L13.1594 2.91234C13.077 2.82919 13.0775 2.69429 13.1608 2.61194L14.0901 1.69117C14.1734 1.60882 14.3081 1.60946 14.3907 1.69261L15.2488 2.5589C15.3712 2.68243 15.5707 2.68339 15.6943 2.56099C15.8179 2.43842 15.8188 2.23895 15.6964 2.11542L14.8381 1.24913C14.5113 0.919079 13.9767 0.916676 13.6466 1.24368L12.7173 2.16429C12.4568 2.4224 12.4014 2.80948 12.5499 3.12351L11.193 2.9564C10.5084 2.87213 9.81661 3.12111 9.34268 3.62243L7.18455 5.90553H5.54905C5.03412 5.90553 4.61531 6.3245 4.61531 6.83943V10.3713C4.61531 10.5453 4.7563 10.6863 4.93029 10.6863C5.10429 10.6863 5.24528 10.5453 5.24528 10.3713V6.83943C5.24528 6.67185 5.38147 6.53566 5.54905 6.53566H8.96585C8.8718 6.70758 8.81829 6.90464 8.81829 7.11405C8.81829 7.78071 9.36079 8.32321 10.0275 8.32321H12.2152C12.6204 8.32321 13.0187 8.23124 13.3811 8.06157V13.8049H5.24544V11.6314C5.24544 11.4574 5.10445 11.3164 4.93045 11.3164C4.75646 11.3164 4.61531 11.4574 4.61531 11.6314V12.1564H2.88384C2.53344 12.1564 2.21717 12.3642 2.07794 12.6861L1.05608 15.0533C1.01794 15.1411 0.99984 15.2342 1.00048 15.3266C1.00032 15.33 1 15.3334 1 15.3367V21.0397C1 21.5692 1.43082 22 1.96034 22H16.6664C17.1959 22 17.6267 21.5692 17.6267 21.0397V15.3314C17.6267 15.3279 17.6262 15.3246 17.6261 15.321C17.6261 15.2329 17.6089 15.1445 17.5737 15.0605L16.5834 12.6954C16.4466 12.3681 16.1289 12.1566 15.7738 12.1566H14.0113V7.65414C14.0763 7.59822 14.139 7.53926 14.1987 7.4771ZM15.774 12.7865C15.8739 12.7865 15.9635 12.8461 16.0021 12.9386L16.9927 15.304C16.9988 15.3189 16.9976 15.3332 16.9887 15.3465C16.9798 15.36 16.9671 15.3667 16.9509 15.3667H15.6354C15.4614 15.3667 15.3202 15.5077 15.3202 15.6817C15.3202 15.8557 15.4614 15.9967 15.6354 15.9967H16.9509C16.9663 15.9967 16.9815 15.9962 16.9966 15.9951V21.0397C16.9966 21.2217 16.8486 21.3699 16.6664 21.3699H1.96034C1.77834 21.3699 1.63014 21.2217 1.63014 21.0397V15.9951C1.6452 15.9962 1.66042 15.9967 1.6758 15.9967H14.3051C14.4791 15.9967 14.6201 15.8557 14.6201 15.6817C14.6201 15.5077 14.4791 15.3665 14.3051 15.3665H1.6758C1.65962 15.3665 1.6468 15.3598 1.63799 15.3462C1.62901 15.3327 1.62789 15.3183 1.6343 15.3032L2.65633 12.936C2.69558 12.8452 2.78482 12.7865 2.88384 12.7865H4.61531V13.8145H4.37754C4.20355 13.8145 4.06256 13.9555 4.06256 14.1295C4.06256 14.3035 4.20355 14.4445 4.37754 14.4445H14.2351C14.4089 14.4445 14.5501 14.3035 14.5501 14.1295C14.5501 13.9555 14.4089 13.8145 14.2351 13.8145H14.0113V12.7865H15.774ZM10.0276 7.69307C9.7083 7.69307 9.44843 7.43336 9.44843 7.11405C9.44843 6.79473 9.7083 6.53486 10.0276 6.53486H11.3449C11.5189 6.53486 11.6601 6.39387 11.6601 6.21987C11.6601 6.04588 11.5189 5.90473 11.3449 5.90473H8.05245L9.80075 4.05534C10.1377 3.69901 10.6292 3.52197 11.1161 3.58189L13.1861 3.83664L14.3029 4.96169L15.0318 5.6974L13.7439 7.04099C13.3465 7.45547 12.7894 7.69323 12.2152 7.69323H10.0276V7.69307Z" fill="white" stroke="white" stroke-width="0.5"/>
<path d="M15.4913 12.5416C15.5719 12.5416 15.6526 12.5108 15.714 12.4493L18.3185 9.84498C18.4415 9.72193 18.4415 9.52246 18.3185 9.39941C18.1955 9.27637 17.996 9.27637 17.8729 9.39941L15.4913 11.781L14.5379 10.8276C14.4148 10.7045 14.2153 10.7045 14.0923 10.8276C13.9692 10.9506 13.9692 11.1501 14.0923 11.2732L15.2684 12.4493C15.33 12.5108 15.4107 12.5416 15.4913 12.5416Z" fill="white" stroke="white" stroke-width="0.5"/>
<path d="M6.77193 17.3093C6.34623 17.3093 6 17.6556 6 18.0811V19.0717C6 19.4974 6.34623 19.8436 6.77193 19.8436H16.7519C17.1776 19.8436 17.5238 19.4974 17.5238 19.0717V18.0811C17.5238 17.6556 17.1776 17.3093 16.7519 17.3093H6.77193ZM16.8937 18.0811V19.0717C16.8937 19.1499 16.8301 19.2135 16.7519 19.2135H6.77193C6.69374 19.2135 6.63014 19.1499 6.63014 19.0717V18.0811C6.63014 18.0029 6.69374 17.9393 6.77193 17.9393H16.7519C16.8301 17.9393 16.8937 18.0029 16.8937 18.0811Z" fill="white" stroke="white" stroke-width="0.5"/>
</svg>
