<svg width="20" height="20" viewBox="0 0 20 20" fill="none" xmlns="http://www.w3.org/2000/svg">
<path d="M11.07 4.77409C10.7994 5.10803 10.8339 5.60318 11.1534 5.92273L11.2053 5.97455C11.5219 6.29121 11.7781 6.67985 11.994 7.16348C12.2042 7.62697 12.5295 8.03576 12.7022 8.23727C12.9872 8.56545 13.183 8.91379 13.2895 9.26788C13.3097 9.33697 13.3269 9.40318 13.3413 9.46939H13.2377C13.1197 9.46939 13.0218 9.56727 13.0218 9.6853V11.1995C13.0218 11.3176 13.1197 11.4155 13.2377 11.4155C13.3557 11.4155 13.4536 11.3176 13.4536 11.1995V9.90121H13.6033H17.1989H17.3975V11.9826C17.3975 12.1006 17.4954 12.1985 17.6134 12.1985C17.7315 12.1985 17.8294 12.1006 17.8294 11.9826V9.6853C17.8294 9.56727 17.7315 9.46939 17.6134 9.46939H17.4148C17.4177 9.19015 17.4609 8.91667 17.5472 8.65758L17.8783 7.65864C17.9819 7.34197 18.0337 7.01667 18.0337 6.69424V3.04106C18.0337 2.81939 17.9416 2.60348 17.789 2.45379C17.6336 2.29545 17.4177 2.20333 17.196 2.20333C17.0492 2.20333 16.911 2.24364 16.7901 2.30985V2.29833C16.7901 1.83773 16.413 1.46061 15.9524 1.46061C15.7883 1.46061 15.6357 1.50955 15.5062 1.59303C15.3997 1.25045 15.0859 1 14.7087 1C14.3316 1 14.0178 1.25045 13.9113 1.59303C13.7789 1.50955 13.6234 1.46348 13.4651 1.46348C13.0016 1.46348 12.6274 1.84061 12.6274 2.30121V5.01591L12.3078 4.71364C12.1409 4.54667 11.9106 4.45742 11.6716 4.46894C11.4413 4.47758 11.2197 4.58985 11.07 4.77409ZM12.0113 5.01879L12.6994 5.66939C12.7627 5.72985 12.8548 5.74424 12.9325 5.7097C13.0131 5.67515 13.0621 5.59742 13.0621 5.51106V2.29833C13.0621 2.07379 13.2434 1.89242 13.468 1.89242C13.6062 1.89242 13.7012 1.95864 13.753 2.00758C13.8278 2.0853 13.871 2.18606 13.871 2.29258V2.83667C13.871 2.9547 13.9689 3.05258 14.0869 3.05258C14.1157 3.05258 14.1445 3.04682 14.1704 3.0353C14.2481 3.00364 14.3028 2.92591 14.3028 2.83667V2.29833C14.3028 2.29545 14.3028 2.29258 14.3028 2.2897V1.83485C14.3028 1.6103 14.4842 1.42894 14.7087 1.42894C14.9333 1.42894 15.1147 1.6103 15.1147 1.83485V2.29833V2.83667C15.1147 2.9547 15.2125 3.05258 15.3306 3.05258C15.4486 3.05258 15.5465 2.9547 15.5465 2.83667V2.29833C15.5465 2.07379 15.7278 1.89242 15.9524 1.89242C16.1769 1.89242 16.3583 2.07379 16.3583 2.29833V2.83667V2.83955V3.04106C16.3583 3.15909 16.4562 3.25697 16.5742 3.25697C16.6922 3.25697 16.7901 3.15909 16.7901 3.04106C16.7901 2.81652 16.9715 2.63515 17.196 2.63515C17.3025 2.63515 17.4033 2.67833 17.4839 2.75894C17.5616 2.83379 17.6019 2.93455 17.6019 3.04106V6.69136C17.6019 6.97061 17.5559 7.24985 17.4666 7.52045L17.1356 8.51939C17.0348 8.82167 16.9801 9.14121 16.9801 9.46939H13.7875C13.7645 9.36288 13.7386 9.25636 13.7041 9.14409C13.5803 8.72955 13.3528 8.32939 13.0304 7.95515C12.8721 7.77091 12.5756 7.40242 12.3884 6.98788C12.1524 6.4553 11.8645 6.02348 11.5104 5.66939L11.4586 5.61758C11.2974 5.45636 11.2744 5.20591 11.4039 5.04758C11.4787 4.95545 11.5824 4.90364 11.7004 4.89788C11.8184 4.895 11.925 4.9353 12.0113 5.01879Z" fill="white" stroke="white" stroke-width="0.5"/>
<path d="M9.21027 15.5004C9.48375 15.1665 9.44633 14.6714 9.12678 14.3518L9.07497 14.3C8.7583 13.9833 8.50209 13.5976 8.28618 13.1111C8.07603 12.6476 7.75072 12.2388 7.578 12.0373C7.293 11.7091 7.09724 11.3607 6.99072 11.0067C6.97057 10.9376 6.9533 10.8714 6.9389 10.8051H7.04254C7.16057 10.8051 7.25845 10.7073 7.25845 10.5892V9.07499C7.25845 8.95696 7.16057 8.85908 7.04254 8.85908C6.92451 8.85908 6.82663 8.95696 6.82663 9.07499V10.3733H6.67694H3.07845H2.87981V8.29196C2.87981 8.17393 2.78193 8.07605 2.6639 8.07605C2.54587 8.07605 2.448 8.17393 2.448 8.29196V10.5892C2.448 10.7073 2.54587 10.8051 2.6639 10.8051H2.86254C2.85966 11.0873 2.81648 11.3579 2.73012 11.617L2.39618 12.6159C2.29254 12.9326 2.24072 13.2579 2.24072 13.5803V17.2306C2.24072 17.4523 2.33284 17.6682 2.48542 17.8179C2.64087 17.9762 2.85678 18.0683 3.07845 18.0683C3.22527 18.0683 3.36345 18.028 3.48436 17.9618V17.9762C3.48436 18.4368 3.86148 18.8139 4.32209 18.8139C4.48618 18.8139 4.63875 18.765 4.7683 18.6815C4.87481 19.0241 5.1886 19.2745 5.56572 19.2745C5.94284 19.2745 6.25663 19.0241 6.36315 18.6815C6.49557 18.765 6.65103 18.811 6.80936 18.811C7.26997 18.811 7.64709 18.4339 7.64709 17.9733V15.2615L7.96663 15.5638C8.1336 15.7307 8.36678 15.82 8.60284 15.8085C8.83891 15.797 9.06057 15.6847 9.21027 15.5004ZM8.26891 15.2557L7.58087 14.6051C7.51754 14.5447 7.42542 14.5303 7.34769 14.5648C7.26709 14.5994 7.21815 14.6771 7.21815 14.7635V17.9791C7.21815 18.2036 7.03678 18.385 6.81224 18.385C6.67406 18.385 6.57906 18.3188 6.52724 18.2698C6.45239 18.1921 6.40921 18.0914 6.40921 17.9848V17.4407C6.40921 17.3227 6.31133 17.2248 6.1933 17.2248C6.16451 17.2248 6.13572 17.2306 6.10981 17.2421C6.03209 17.2738 5.97739 17.3515 5.97739 17.4407V17.9791V17.9877V18.4426C5.97739 18.6671 5.79603 18.8485 5.57148 18.8485C5.34694 18.8485 5.16557 18.6671 5.16557 18.4426V17.9791V17.4407C5.16557 17.3227 5.06769 17.2248 4.94966 17.2248C4.83163 17.2248 4.73375 17.3227 4.73375 17.4407V17.9791C4.73375 18.2036 4.55239 18.385 4.32784 18.385C4.1033 18.385 3.92193 18.2036 3.92193 17.9791V17.4407V17.4379V17.2335C3.92193 17.1154 3.82406 17.0176 3.70603 17.0176C3.588 17.0176 3.49012 17.1154 3.49012 17.2335C3.49012 17.458 3.30875 17.6394 3.08421 17.6394C2.97769 17.6394 2.87693 17.5962 2.79633 17.5156C2.72148 17.4407 2.6783 17.34 2.6783 17.2335V13.5832C2.6783 13.3039 2.72436 13.0247 2.8136 12.7541L3.14466 11.758C3.24542 11.4557 3.30012 11.1362 3.30012 10.808H6.49845C6.52148 10.9145 6.54739 11.021 6.58193 11.1333C6.70572 11.5479 6.93027 11.948 7.25557 12.3223C7.41391 12.5065 7.71042 12.875 7.89754 13.2895C8.1336 13.8221 8.42148 14.2539 8.77557 14.6051L8.82739 14.657C8.9886 14.8182 9.01163 15.0686 8.88209 15.227C8.80724 15.3162 8.7036 15.3709 8.58845 15.3767C8.46754 15.3853 8.35527 15.3392 8.26891 15.2557Z" fill="white" stroke="white" stroke-width="0.5"/>
<path d="M5.01591 7.64428L4.71364 7.96382C4.54667 8.13079 4.45742 8.3611 4.46894 8.60004C4.48045 8.8361 4.59273 9.05776 4.77697 9.20746C4.92667 9.32837 5.11091 9.38882 5.29227 9.38882C5.5197 9.38882 5.74712 9.29958 5.92273 9.1211L5.97742 9.0664C6.29121 8.74973 6.67985 8.49352 7.16636 8.27761C7.62985 8.06746 8.03864 7.74504 8.24015 7.56943C8.56833 7.28443 8.91667 7.08867 9.27076 6.98216C9.33985 6.96201 9.40606 6.94473 9.47515 6.93034V7.03398C9.47515 7.15201 9.57303 7.24988 9.69106 7.24988H11.2053C11.3233 7.24988 11.4212 7.15201 11.4212 7.03398C11.4212 6.91595 11.3233 6.81807 11.2053 6.81807H9.90697V6.66837V3.07564V2.87701H11.9883C12.1064 2.87701 12.2042 2.77913 12.2042 2.6611C12.2042 2.54307 12.1064 2.44519 11.9883 2.44519H9.69106C9.57303 2.44519 9.47515 2.54307 9.47515 2.6611V2.85973C9.19591 2.85685 8.92242 2.81367 8.66333 2.72731L7.66151 2.39337C7.34485 2.28973 7.02242 2.23792 6.69712 2.23792H3.04394C2.82227 2.23792 2.60636 2.33004 2.45379 2.48261C2.29833 2.63807 2.20621 2.85398 2.20621 3.07564C2.20621 3.22246 2.24652 3.36064 2.31273 3.48155H2.30121C1.84061 3.48155 1.46348 3.85867 1.46348 4.31928C1.46348 4.48337 1.51242 4.63595 1.59591 4.76549C1.25333 4.86913 1 5.18579 1 5.56292C1 5.94004 1.25045 6.25382 1.59303 6.36034C1.50955 6.49276 1.46348 6.64822 1.46348 6.80655C1.46348 7.26716 1.84061 7.64428 2.30121 7.64428H5.01591ZM1.8953 6.80655C1.8953 6.66837 1.96152 6.57337 2.01045 6.52155C2.08818 6.44382 2.18894 6.40352 2.29545 6.40352H2.83667C2.9547 6.40352 3.05258 6.30564 3.05258 6.18761C3.05258 6.12716 3.02955 6.07534 2.98924 6.03504C2.94894 5.99473 2.89712 5.9717 2.83667 5.9717H2.30121C2.29833 5.9717 2.29545 5.9717 2.29545 5.9717H1.83773C1.61318 5.9717 1.43182 5.79034 1.43182 5.56579C1.43182 5.34125 1.61318 5.15988 1.83773 5.15988H2.30121H2.83955C2.95758 5.15988 3.05545 5.06201 3.05545 4.94398C3.05545 4.82595 2.95758 4.72519 2.83955 4.72519H2.30121C2.07667 4.72519 1.8953 4.54382 1.8953 4.31928C1.8953 4.09473 2.07667 3.91337 2.30121 3.91337H2.83955H2.84242H3.04394C3.16197 3.91337 3.25985 3.81549 3.25985 3.69746C3.25985 3.57943 3.16485 3.48155 3.04394 3.48155C2.81939 3.48155 2.63803 3.30019 2.63803 3.07564C2.63803 2.96625 2.68121 2.86837 2.76182 2.78776C2.83667 2.71004 2.93742 2.66973 3.04394 2.66973H6.69424C6.97348 2.66973 7.25273 2.71579 7.52333 2.80504L8.52227 3.1361C8.82454 3.23685 9.14409 3.29155 9.47227 3.29155V6.48988C9.36576 6.51292 9.25924 6.53882 9.14697 6.57337C8.73242 6.69716 8.33227 6.9217 7.95803 7.24701C7.77379 7.40534 7.4053 7.70185 6.99076 7.88898C6.45818 8.12792 6.02636 8.41291 5.67515 8.76701L5.62045 8.8217C5.45924 8.98291 5.20879 9.00595 5.05045 8.8764C4.95833 8.80155 4.90652 8.69792 4.90076 8.58276C4.895 8.46761 4.93818 8.35534 5.02455 8.26898L5.67515 7.58095C5.73561 7.51761 5.75 7.42549 5.71545 7.34776C5.68091 7.27004 5.60318 7.21822 5.51682 7.21822H2.30121C2.07667 7.21246 1.8953 7.0311 1.8953 6.80655Z" fill="white" stroke="white" stroke-width="0.5"/>
<path d="M19.2804 14.7117C19.2804 14.3346 19.0299 14.0208 18.6873 13.9143C18.7708 13.7818 18.8169 13.6264 18.8169 13.4681C18.8169 13.0075 18.4398 12.6303 17.9792 12.6303H15.2645L15.5667 12.3108C15.7337 12.1438 15.8229 11.9135 15.8114 11.6746C15.7999 11.4385 15.6876 11.2168 15.5034 11.0672C15.1695 10.7965 14.6743 10.8311 14.3548 11.1506L14.3001 11.2053C13.9834 11.522 13.5948 11.7782 13.1111 11.9941C12.6448 12.2043 12.2388 12.5296 12.0373 12.7023C11.7092 12.9873 11.3608 13.1831 11.0067 13.2896C10.9376 13.3097 10.8714 13.327 10.8023 13.3414V13.2378C10.8023 13.1197 10.7045 13.0218 10.5864 13.0218H9.07218C8.95415 13.0218 8.85627 13.1197 8.85627 13.2378C8.85627 13.3558 8.95415 13.4537 9.07218 13.4537H10.3705V13.6034V17.199V17.3976H8.28915C8.17112 17.3976 8.07324 17.4955 8.07324 17.6135C8.07324 17.7315 8.17112 17.8294 8.28915 17.8294H10.5864C10.7045 17.8294 10.8023 17.7315 10.8023 17.6135V17.4149C11.0816 17.4178 11.3551 17.4609 11.6142 17.5473L12.6131 17.8784C12.9298 17.982 13.2551 18.0338 13.5775 18.0338H17.2278C17.4495 18.0338 17.6654 17.9417 17.8179 17.7891C17.9763 17.6337 18.0655 17.4178 18.0655 17.1961C18.0655 17.0493 18.0252 16.9111 17.959 16.7902H17.9734C18.434 16.7902 18.8111 16.4131 18.8111 15.9525C18.8111 15.7884 18.7622 15.6358 18.6787 15.5062C19.0299 15.4026 19.2804 15.0859 19.2804 14.7117ZM18.4426 15.1176H17.9792H17.4408C17.3228 15.1176 17.2249 15.2155 17.2249 15.3335C17.2249 15.4515 17.3228 15.5494 17.4408 15.5494H17.9792C18.2037 15.5494 18.3851 15.7308 18.3851 15.9553C18.3851 16.1799 18.2037 16.3612 17.9792 16.3612H17.4408H17.4379H17.2364C17.1184 16.3612 17.0205 16.4591 17.0205 16.5772C17.0205 16.6952 17.1184 16.7931 17.2364 16.7931C17.461 16.7931 17.6423 16.9744 17.6423 17.199C17.6423 17.3055 17.5992 17.4062 17.5185 17.4868C17.4437 17.5646 17.3429 17.6049 17.2364 17.6049H13.5861C13.3069 17.6049 13.0276 17.5588 12.757 17.4696L11.7581 17.1385C11.4558 17.0378 11.1363 16.9831 10.8081 16.9831V13.7847C10.9146 13.7617 11.0211 13.7358 11.1334 13.7012C11.5479 13.5775 11.9481 13.3529 12.3223 13.0276C12.5066 12.8693 12.8751 12.5756 13.2896 12.3856C13.8222 12.1496 14.2511 11.8617 14.6052 11.5076L14.6599 11.4529C14.8211 11.2917 15.0716 11.2687 15.2299 11.3982C15.322 11.4731 15.3738 11.5767 15.3796 11.6918C15.3854 11.807 15.3422 11.9193 15.2558 12.0056L14.6052 12.6937C14.5448 12.757 14.5304 12.8491 14.5649 12.9268C14.5995 13.0046 14.6772 13.0564 14.7635 13.0564H17.9792C18.2037 13.0564 18.3851 13.2378 18.3851 13.4623C18.3851 13.6005 18.3188 13.6955 18.2699 13.7473C18.1922 13.8222 18.0914 13.8653 17.9849 13.8653H17.4408C17.3228 13.8653 17.2249 13.9632 17.2249 14.0812C17.2249 14.11 17.2307 14.1388 17.2422 14.1647C17.2738 14.2425 17.3516 14.2972 17.4408 14.2972H17.9792H17.9878H18.4426C18.6672 14.2972 18.8485 14.4785 18.8485 14.7031C18.8485 14.9276 18.6672 15.1176 18.4426 15.1176Z" fill="white" stroke="white" stroke-width="0.5"/>
</svg>
