<svg width="19" height="19" viewBox="0 0 19 19" fill="none" xmlns="http://www.w3.org/2000/svg">
<path d="M4.00835 14.9329C4.33763 15.2307 4.7873 14.7716 4.47689 14.4486C3.64718 13.6463 2.67462 12.3508 2.14095 11.4838C2.02685 11.2978 1.8548 10.4596 1.74654 8.70851C1.66702 7.41925 1.65669 6.14796 1.69577 5.81464C1.71958 5.61429 1.81167 5.51591 1.86603 5.51232C1.92038 5.50872 2.0565 5.60485 2.1387 5.92515C2.33142 6.67624 2.69888 8.28804 2.83499 8.88774C1.54573 9.717 3.8089 11.6931 4.17142 12.0166C4.2047 12.0468 4.24369 12.07 4.28609 12.0849C4.32849 12.0998 4.37345 12.1061 4.41831 12.1034C4.46317 12.1006 4.50703 12.0889 4.54731 12.069C4.58759 12.0491 4.62348 12.0213 4.65285 11.9872C4.68222 11.9532 4.70449 11.9137 4.71835 11.8709C4.7322 11.8282 4.73736 11.7831 4.73352 11.7383C4.72968 11.6935 4.71692 11.6499 4.69599 11.6102C4.67506 11.5704 4.64639 11.5352 4.61165 11.5067C3.94546 10.9375 2.8597 9.72778 3.17415 9.46993C3.48366 9.27946 3.81698 9.52024 4.79628 10.6415C5.02403 10.902 5.31333 11.0247 5.62015 11.155C6.01995 11.3243 6.43368 11.5 6.84427 12.0215C7.61782 13.0053 7.53966 14.6445 7.53966 14.6607C7.53466 14.75 7.56535 14.8377 7.625 14.9044C7.68464 14.9711 7.76835 15.0114 7.85771 15.0164C7.94706 15.0214 8.03475 14.9907 8.10147 14.9311C8.16819 14.8715 8.20848 14.7877 8.21349 14.6984C8.21753 14.6211 8.30917 12.7906 7.37659 11.6064C6.85909 10.9492 6.31958 10.7201 5.88609 10.5364C5.63273 10.4286 5.43282 10.3437 5.30704 10.1999C4.67275 9.47353 4.10134 8.82081 3.49579 8.73995C3.36103 8.1371 2.98997 6.51857 2.79546 5.75939C2.61263 5.04737 2.17509 4.81872 1.8256 4.84163C1.41052 4.86948 1.09113 5.22886 1.03048 5.73692C0.916379 6.55405 1.12841 11.3477 1.56954 11.8387C2.12253 12.7393 3.13732 14.0919 4.00835 14.9329Z" fill="white" stroke="white" stroke-width="0.5"/>
<path d="M8.21562 18.3523C8.22954 18.7971 8.87372 18.8016 8.88944 18.3523V15.5438C8.88944 15.4545 8.85395 15.3688 8.79076 15.3056C8.72758 15.2424 8.64188 15.2069 8.55253 15.2069H3.84741C3.75806 15.2069 3.67236 15.2424 3.60918 15.3056C3.54599 15.3688 3.5105 15.4545 3.5105 15.5438V18.3523C3.5105 18.4417 3.54599 18.5274 3.60918 18.5906C3.67236 18.6538 3.75806 18.6893 3.84741 18.6893C3.93677 18.6893 4.02246 18.6538 4.08565 18.5906C4.14883 18.5274 4.18433 18.4417 4.18433 18.3523V15.8816H8.21562V18.3523Z" fill="white" stroke="white" stroke-width="0.5"/>
<path d="M13.8377 10.2009C13.7119 10.3446 13.512 10.4295 13.2586 10.5373C12.8251 10.7211 12.2856 10.9502 11.7681 11.6074C10.8355 12.7915 10.9272 14.6221 10.9312 14.6993C10.9362 14.7887 10.9765 14.8724 11.0432 14.932C11.11 14.9917 11.1976 15.0224 11.287 15.0174C11.3764 15.0124 11.4601 14.9721 11.5197 14.9054C11.5794 14.8386 11.61 14.751 11.605 14.6616C11.583 13.7852 11.7187 11.7736 13.5228 11.1577C13.8291 11.0274 14.1184 10.9048 14.3462 10.6442C15.3255 9.52119 15.6588 9.2822 15.9683 9.47267C16.2828 9.73052 15.1957 10.9403 14.5308 11.509C14.4973 11.5379 14.4698 11.5731 14.4499 11.6126C14.43 11.6522 14.4181 11.6952 14.4149 11.7394C14.4116 11.7835 14.4171 11.8278 14.431 11.8699C14.4448 11.9119 14.4669 11.9507 14.4958 11.9843C14.5247 12.0178 14.5599 12.0452 14.5994 12.0651C14.639 12.085 14.682 12.097 14.7261 12.1002C14.7703 12.1035 14.8146 12.098 14.8566 12.0841C14.8987 12.0702 14.9375 12.0482 14.971 12.0193C15.3336 11.6959 17.5967 9.71929 16.3075 8.89049C16.4422 8.29078 16.811 6.67898 17.0038 5.92789C17.086 5.6076 17.2239 5.51101 17.2764 5.51506C17.329 5.5191 17.4229 5.61703 17.4467 5.81738C17.4867 6.15115 17.4754 7.42199 17.3959 8.71125C17.2877 10.4632 17.1161 11.3005 17.0015 11.4865C16.4395 12.3998 15.5119 13.6706 14.7065 14.4514C14.3978 14.7685 14.8412 15.2361 15.175 14.9356C16.0227 14.1158 16.9912 12.7906 17.5756 11.8414C18.0181 11.35 18.2301 6.55724 18.1147 5.73967C18.054 5.2316 17.7346 4.87222 17.3196 4.84437C16.9705 4.82101 16.5325 5.05011 16.3497 5.76213C16.1552 6.52131 15.7859 8.13984 15.6494 8.74269C15.0416 8.82086 14.4724 9.47357 13.8377 10.2009Z" fill="white" stroke="white" stroke-width="0.5"/>
<path d="M15.2945 18.691C15.3838 18.691 15.4695 18.6556 15.5327 18.5924C15.5959 18.5292 15.6314 18.4435 15.6314 18.3541V15.5438C15.6314 15.4545 15.5959 15.3688 15.5327 15.3056C15.4695 15.2424 15.3838 15.2069 15.2945 15.2069H10.5894C10.5 15.2069 10.4143 15.2424 10.3511 15.3056C10.2879 15.3688 10.2524 15.4545 10.2524 15.5438V18.3523C10.2524 18.4417 10.2879 18.5274 10.3511 18.5906C10.4143 18.6538 10.5 18.6893 10.5894 18.6893C10.6787 18.6893 10.7644 18.6538 10.8276 18.5906C10.8908 18.5274 10.9263 18.4417 10.9263 18.3523V15.8816H14.9576V18.3523C14.9573 18.3967 14.9659 18.4407 14.9827 18.4818C14.9995 18.5229 15.0243 18.5603 15.0556 18.5917C15.0869 18.6232 15.1241 18.6482 15.1651 18.6652C15.2061 18.6823 15.2501 18.6911 15.2945 18.691Z" fill="white" stroke="white" stroke-width="0.5"/>
<path d="M11.313 16.4899C11.3129 16.5392 11.3226 16.5881 11.3414 16.6337C11.3603 16.6794 11.3879 16.7208 11.4228 16.7557C11.4577 16.7906 11.4991 16.8184 11.5447 16.8373C11.5903 16.8562 11.6392 16.8659 11.6885 16.8659C12.1867 16.8475 12.1867 16.1323 11.6885 16.1139C11.6392 16.1139 11.5903 16.1236 11.5447 16.1425C11.4991 16.1614 11.4577 16.1891 11.4228 16.224C11.3879 16.259 11.3603 16.3004 11.3414 16.346C11.3226 16.3916 11.3129 16.4405 11.313 16.4899Z" fill="white" stroke="white" stroke-width="0.5"/>
<path d="M7.0791 16.4899C7.0791 16.5896 7.11872 16.6852 7.18923 16.7558C7.25974 16.8263 7.35538 16.8659 7.4551 16.8659C7.95328 16.8475 7.95283 16.1323 7.4551 16.1139C7.35538 16.1139 7.25974 16.1535 7.18923 16.224C7.11872 16.2945 7.0791 16.3902 7.0791 16.4899Z" fill="white" stroke="white" stroke-width="0.5"/>
<path d="M9.31541 10.8984C9.36977 10.9313 9.43223 10.9483 9.49574 10.9475C9.55925 10.9467 9.62126 10.9281 9.67479 10.8939C10.0032 10.7008 14.0955 8.23726 14.9257 5.11295C15.3605 3.476 14.8713 2.50029 14.3844 1.96842C12.6855 0.300916 10.5894 1.00978 9.49016 2.41494C8.39137 1.00978 6.29442 0.303612 4.59592 1.96887C4.10897 2.49894 3.61977 3.47465 4.05461 5.1134C4.89375 8.26646 9.05531 10.7462 9.31541 10.8984ZM5.09276 2.42662C5.59633 1.87857 6.35506 1.67103 6.87391 1.67103C8.19057 1.67103 9.20985 3.12201 9.19727 3.16738C9.22706 3.21887 9.26986 3.26161 9.32139 3.29133C9.37291 3.32105 9.43135 3.33669 9.49083 3.33669C9.55031 3.33669 9.60875 3.32105 9.66028 3.29133C9.7118 3.26161 9.75461 3.21887 9.7844 3.16738C9.79113 3.15525 10.5031 1.92799 11.8463 1.6908C12.3351 1.6041 13.2919 1.77525 13.8894 2.42527C14.432 3.01599 14.5632 3.86277 14.2757 4.9409C13.7016 7.15779 11.0337 9.2534 9.49151 10.2174C7.94395 9.2516 5.28502 7.15914 4.70688 4.94045C4.42072 3.86277 4.55055 3.01734 5.09276 2.42662Z" fill="white" stroke="white" stroke-width="0.5"/>
</svg>
