<svg width="20" height="20" viewBox="0 0 20 20" fill="none" xmlns="http://www.w3.org/2000/svg">
<path d="M10 1C8.21997 1 6.47991 1.52784 4.99987 2.51677C3.51983 3.50571 2.36628 4.91131 1.68509 6.55585C1.0039 8.20038 0.82567 10.01 1.17294 11.7558C1.5202 13.5016 2.37737 15.1053 3.63604 16.364C4.89471 17.6226 6.49836 18.4798 8.24419 18.8271C9.99002 19.1743 11.7996 18.9961 13.4442 18.3149C15.0887 17.6337 16.4943 16.4802 17.4832 15.0001C18.4722 13.5201 19 11.78 19 10C19 7.61305 18.0518 5.32387 16.364 3.63604C14.6761 1.94821 12.3869 1 10 1ZM10.1908 15.2388C9.29172 15.2388 8.40691 15.0136 7.61719 14.5837L4.76228 15.3326L5.52679 12.5424C4.93505 11.5152 4.69871 10.3215 4.85442 9.14632C5.01013 7.97115 5.54918 6.88017 6.38801 6.04252C7.22683 5.20487 8.31857 4.66736 9.49397 4.51331C10.6694 4.35925 11.8627 4.59727 12.8891 5.19046C13.9155 5.78365 14.7175 6.69886 15.1707 7.79422C15.624 8.88958 15.7033 10.1039 15.3963 11.2489C15.0892 12.3939 14.413 13.4056 13.4725 14.1272C12.532 14.8487 11.3796 15.2399 10.1942 15.24L10.1908 15.2388Z" fill="#0E395E"/>
<path d="M10.1921 5.37612C9.39204 5.37584 8.60654 5.58993 7.91727 5.99611C7.228 6.40229 6.66014 6.98572 6.27276 7.68574C5.88539 8.38575 5.69265 9.17677 5.71457 9.97651C5.7365 10.7763 5.97231 11.5555 6.39745 12.2333L6.50905 12.4029L6.05704 14.0547L7.75125 13.6083L7.91531 13.7054C8.60516 14.1142 9.3924 14.3297 10.1943 14.3292C11.3695 14.3107 12.4902 13.8308 13.3147 12.9932C14.1392 12.1556 14.6013 11.0274 14.6013 9.85213C14.6013 8.67681 14.1392 7.54862 13.3147 6.71101C12.4902 5.87341 11.3695 5.39355 10.1943 5.375L10.1921 5.37612ZM12.8249 11.7757C12.7258 11.9392 12.5939 12.0804 12.4375 12.1904C12.2812 12.3005 12.1038 12.377 11.9164 12.4152C11.6334 12.4635 11.3429 12.4451 11.0682 12.3616C10.8075 12.2806 10.5511 12.186 10.3003 12.0781C9.37087 11.6118 8.5786 10.9118 8.00125 10.0469C7.68668 9.64628 7.49584 9.16259 7.45213 8.65513C7.44834 8.44553 7.48826 8.23745 7.56935 8.04414C7.65044 7.85083 7.77092 7.67653 7.92311 7.53236C7.96812 7.48097 8.0233 7.43946 8.08515 7.41046C8.147 7.38145 8.2142 7.36557 8.28249 7.36384C8.37178 7.36384 8.46218 7.36384 8.54031 7.36384C8.61843 7.36384 8.73339 7.33259 8.84276 7.59486C8.95214 7.85714 9.22445 8.52678 9.25793 8.59374C9.27921 8.62898 9.29137 8.66897 9.29332 8.71008C9.29527 8.7512 9.28695 8.79215 9.2691 8.82924C9.16903 8.99059 9.05711 9.14428 8.93428 9.28906C8.87401 9.36272 8.79701 9.42856 8.87513 9.5636C9.07737 9.90952 9.32973 10.2236 9.62401 10.4955C9.94327 10.7799 10.3096 11.0065 10.7066 11.1652C10.8405 11.2321 10.9198 11.221 10.9979 11.1317C11.076 11.0424 11.3327 10.7388 11.4242 10.6038C11.5158 10.4687 11.6039 10.4922 11.7267 10.5368C11.8495 10.5815 12.5079 10.9074 12.6463 10.9743C12.7847 11.0413 12.8696 11.0759 12.9042 11.1317C12.9418 11.3483 12.9146 11.5711 12.826 11.7723L12.8249 11.7757Z" fill="#0E395E"/>
</svg>
