<svg width="17" height="17" viewBox="0 0 17 17" fill="none" xmlns="http://www.w3.org/2000/svg">
<g clip-path="url(#clip0_450_676)">
<path d="M8.064 0C6.4691 0 4.91 0.472945 3.58389 1.35903C2.25777 2.24511 1.22418 3.50454 0.613839 4.97804C0.00349402 6.45154 -0.1562 8.07294 0.154951 9.63721C0.466102 11.2015 1.23412 12.6383 2.36189 13.7661C3.48967 14.8939 4.92653 15.6619 6.4908 15.9731C8.05506 16.2842 9.67646 16.1245 11.15 15.5142C12.6235 14.9038 13.8829 13.8702 14.769 12.5441C15.6551 11.218 16.128 9.65891 16.128 8.064C16.128 5.92529 15.2784 3.87418 13.7661 2.36189C12.2538 0.849598 10.2027 0 8.064 0ZM8.235 12.758C7.42938 12.758 6.6366 12.5562 5.929 12.171L3.371 12.842L4.056 10.342C3.5258 9.42164 3.31405 8.35206 3.45356 7.29911C3.59308 6.24615 4.07607 5.26863 4.82766 4.5181C5.57925 3.76757 6.55744 3.28595 7.6106 3.14792C8.66375 3.00989 9.73302 3.22316 10.6526 3.75465C11.5723 4.28615 12.2908 5.10618 12.697 6.08762C13.1031 7.06906 13.1742 8.15708 12.8991 9.18299C12.6239 10.2089 12.0181 11.1154 11.1754 11.7619C10.3326 12.4085 9.30016 12.7589 8.238 12.759L8.235 12.758Z" fill="#0E395E"/>
<path d="M8.23602 3.92104C7.51918 3.9208 6.81537 4.11262 6.19778 4.47655C5.5802 4.84049 5.07139 5.36325 4.7243 5.99046C4.37721 6.61767 4.20452 7.32643 4.22416 8.043C4.24381 8.75957 4.45509 9.4578 4.83603 10.065L4.93602 10.217L4.53102 11.697L6.04902 11.297L6.19603 11.384C6.81413 11.7504 7.5195 11.9435 8.23802 11.943C9.29097 11.9264 10.2952 11.4965 11.0339 10.746C11.7726 9.99548 12.1867 8.98463 12.1867 7.93155C12.1867 6.87847 11.7726 5.8676 11.0339 5.11711C10.2952 4.36662 9.29097 3.93667 8.23802 3.92004L8.23602 3.92104ZM10.595 9.65504C10.5062 9.80153 10.388 9.92805 10.2479 10.0267C10.1079 10.1253 9.94888 10.1938 9.78102 10.228C9.5274 10.2713 9.26718 10.2549 9.02102 10.18C8.78739 10.1075 8.55774 10.0227 8.33302 9.92604C7.50021 9.50818 6.79033 8.88101 6.27302 8.10605C5.99117 7.74711 5.82018 7.31373 5.78102 6.85904C5.77762 6.67124 5.81339 6.4848 5.88604 6.31159C5.9587 6.13838 6.06665 5.98221 6.20301 5.85304C6.24334 5.80699 6.29278 5.7698 6.3482 5.74381C6.40362 5.71782 6.46383 5.7036 6.52502 5.70204C6.60502 5.70204 6.68602 5.70204 6.75602 5.70204C6.82602 5.70204 6.92902 5.67404 7.02702 5.90904C7.12502 6.14404 7.36901 6.74404 7.39901 6.80404C7.41808 6.83561 7.42898 6.87144 7.43072 6.90828C7.43247 6.94512 7.42501 6.98181 7.40902 7.01505C7.31936 7.15961 7.21908 7.29732 7.10902 7.42704C7.05502 7.49304 6.98603 7.55203 7.05603 7.67303C7.23723 7.98298 7.46334 8.26437 7.72702 8.50804C8.01307 8.76283 8.34131 8.96586 8.69702 9.10805C8.81702 9.16805 8.88802 9.15805 8.95802 9.07805C9.02802 8.99805 9.25802 8.72604 9.34002 8.60504C9.42202 8.48404 9.50102 8.50504 9.61102 8.54504C9.72102 8.58504 10.311 8.87704 10.435 8.93704C10.559 8.99704 10.635 9.02805 10.666 9.07805C10.6997 9.2721 10.6754 9.47177 10.596 9.65204L10.595 9.65504Z" fill="#0E395E"/>
</g>
<defs>
<clipPath id="clip0_450_676">
<rect width="16.127" height="16.127" fill="white"/>
</clipPath>
</defs>
</svg>
