<svg width="17" height="14" viewBox="0 0 17 14" fill="none" xmlns="http://www.w3.org/2000/svg">
<g clip-path="url(#clip0_450_708)">
<path d="M10.489 3.147C10.3033 3.147 10.1253 3.07325 9.99402 2.94197C9.86274 2.8107 9.78899 2.63265 9.78899 2.447V1.4H6.99399V2.447C6.99399 2.63265 6.92024 2.8107 6.78897 2.94197C6.65769 3.07325 6.47965 3.147 6.29399 3.147C6.10834 3.147 5.9303 3.07325 5.79902 2.94197C5.66774 2.8107 5.59399 2.63265 5.59399 2.447V1.4C5.59399 1.0287 5.74149 0.672601 6.00404 0.41005C6.2666 0.147499 6.62269 0 6.99399 0H9.79399C10.1653 0 10.5214 0.147499 10.7839 0.41005C11.0465 0.672601 11.194 1.0287 11.194 1.4V2.447C11.194 2.53935 11.1757 2.63078 11.1402 2.71604C11.1047 2.80129 11.0527 2.87868 10.9872 2.94375C10.9217 3.00882 10.8439 3.06027 10.7584 3.09516C10.6729 3.13004 10.5813 3.14766 10.489 3.147Z" fill="#0E395E"/>
<path d="M8.887 9.35605C8.72661 9.4134 8.55732 9.44184 8.387 9.44005C8.20312 9.43928 8.02088 9.4054 7.849 9.34005L2.60305e-07 6.72705V12.0621C-0.000131183 12.3146 0.049519 12.5647 0.146112 12.7981C0.242705 13.0315 0.384347 13.2435 0.562941 13.4221C0.741534 13.6007 0.953576 13.7423 1.18694 13.8389C1.42031 13.9355 1.67043 13.9852 1.923 13.9851H14.859C15.1116 13.9852 15.3617 13.9355 15.5951 13.8389C15.8284 13.7423 16.0405 13.6007 16.2191 13.4221C16.3977 13.2435 16.5393 13.0315 16.6359 12.7981C16.7325 12.5647 16.7821 12.3146 16.782 12.0621V6.72705L8.887 9.35605Z" fill="#0E395E"/>
<path d="M16.781 4.02102V5.62102L8.559 8.36302C8.45012 8.40043 8.33188 8.40043 8.223 8.36302L1.04095e-06 5.62202V4.02202C-0.0002619 3.76937 0.0492912 3.51914 0.145826 3.28566C0.24236 3.05218 0.383981 2.84002 0.562587 2.66132C0.741194 2.48262 0.95328 2.34089 1.18671 2.24423C1.42015 2.14757 1.67035 2.09789 1.923 2.09802H14.859C15.1115 2.09802 15.3615 2.14777 15.5947 2.24442C15.828 2.34107 16.0399 2.48274 16.2184 2.66132C16.3969 2.8399 16.5385 3.05189 16.635 3.2852C16.7315 3.5185 16.7811 3.76854 16.781 4.02102Z" fill="#0E395E"/>
</g>
<defs>
<clipPath id="clip0_450_708">
<rect width="16.781" height="13.985" fill="white"/>
</clipPath>
</defs>
</svg>
