<svg width="20" height="20" viewBox="0 0 20 20" fill="none" xmlns="http://www.w3.org/2000/svg">
<path d="M12.2508 5.8754C12.0516 5.8754 11.8607 5.7963 11.7199 5.6555C11.5791 5.51469 11.5 5.32372 11.5 5.1246V4.00161H8.5021V5.1246C8.5021 5.32372 8.42299 5.51469 8.28219 5.6555C8.14139 5.7963 7.95042 5.8754 7.75129 5.8754C7.55217 5.8754 7.3612 5.7963 7.22039 5.6555C7.07959 5.51469 7.00049 5.32372 7.00049 5.1246V4.00161C7.00049 3.60336 7.15869 3.22142 7.4403 2.93981C7.72191 2.6582 8.10385 2.5 8.5021 2.5H11.5053C11.9036 2.5 12.2855 2.6582 12.5671 2.93981C12.8487 3.22142 13.0069 3.60336 13.0069 4.00161V5.1246C13.0069 5.22365 12.9873 5.32172 12.9493 5.41316C12.9112 5.50461 12.8554 5.58761 12.7851 5.6574C12.7148 5.72719 12.6314 5.78238 12.5397 5.8198C12.448 5.85721 12.3498 5.87611 12.2508 5.8754Z" fill="#0E395E"/>
<path d="M10.532 12.5351C10.36 12.5967 10.1784 12.6272 9.99571 12.6252C9.79848 12.6244 9.60302 12.5881 9.41866 12.518L1 9.71533V15.4375C0.999859 15.7084 1.05311 15.9767 1.15672 16.227C1.26032 16.4773 1.41224 16.7047 1.6038 16.8963C1.79535 17.0879 2.02278 17.2398 2.27309 17.3434C2.5234 17.447 2.79167 17.5002 3.06257 17.5001H16.9374C17.2083 17.5002 17.4766 17.447 17.7269 17.3434C17.9772 17.2398 18.2046 17.0879 18.3962 16.8963C18.5878 16.7047 18.7397 16.4773 18.8433 16.227C18.9469 15.9767 19.0001 15.7084 19 15.4375V9.71533L10.532 12.5351Z" fill="#0E395E"/>
<path d="M18.9989 6.81281V8.52894L10.1802 11.4699C10.0634 11.5101 9.93659 11.5101 9.81981 11.4699L1 8.53001V6.81388C0.999719 6.54289 1.05287 6.27451 1.15641 6.02408C1.25995 5.77365 1.41185 5.54609 1.60342 5.35442C1.79499 5.16275 2.02247 5.01073 2.27284 4.90706C2.52322 4.80339 2.79158 4.7501 3.06257 4.75024H16.9374C17.2082 4.75024 17.4764 4.8036 17.7266 4.90727C17.9768 5.01094 18.2041 5.16288 18.3955 5.35442C18.587 5.54596 18.7388 5.77335 18.8423 6.02358C18.9459 6.27382 18.9991 6.542 18.9989 6.81281Z" fill="#0E395E"/>
</svg>
