<svg width="512" height="512" viewBox="0 0 512 512" fill="none" xmlns="http://www.w3.org/2000/svg">
<path d="M503.647 206.701V487.024C503.698 494.016 500.741 500.694 495.53 505.356L494.793 506.092C490.298 509.924 484.579 512.02 478.671 511.999H33.3343C27.469 511.998 21.7965 509.903 17.3371 506.092C17.033 505.913 16.7798 505.66 16.6007 505.356C11.3499 500.71 8.34625 494.034 8.35261 487.024V206.701C8.29433 200.469 10.6792 194.462 14.9967 189.968C16.7565 187.89 18.8712 186.14 21.2403 184.797C24.9368 182.775 29.0837 181.716 33.2973 181.72H478.666C485.656 181.846 492.305 184.77 497.123 189.836C501.31 194.457 503.636 200.466 503.647 206.701Z" fill="#ED944B"/>
<path d="M497.146 189.812C495.392 191.979 256.13 382.257 256.13 382.257L14.9824 190.024L15.0884 189.924V189.818L242.475 4.84081C250.411 -1.6136 261.788 -1.6136 269.724 4.84081L497.146 189.812Z" fill="#E9791E"/>
<path d="M446.278 60.8307V230.778L256.106 382.257L65.8281 230.573V60.8307H446.278Z" fill="#EEEFEE"/>
<path d="M495.499 505.343C495.285 505.61 495.041 505.853 494.774 506.068L280.557 363.169L300.163 347.378L495.499 505.343Z" fill="#E9791E"/>
<path d="M231.542 363.063L17.3243 506.049C17.0096 505.894 16.7543 505.64 16.5996 505.324L211.835 347.171L231.542 363.063Z" fill="#E9791E"/>
<path d="M107.975 105.437H404.019V118.282H107.975V105.437Z" fill="#DBD8DD"/>
<path d="M107.975 154.977H404.019V167.821H107.975V154.977Z" fill="#DBD8DD"/>
<path d="M107.975 204.523H404.019V217.367H107.975V204.523Z" fill="#DBD8DD"/>
<path d="M157.695 254.062H354.305V266.906H157.695V254.062Z" fill="#DBD8DD"/>
</svg>
